<svg width="21" height="20" viewBox="0 0 21 20" fill="none" xmlns="http://www.w3.org/2000/svg">
<path d="M3 14.5H8.25V16H3V14.5ZM3 9.25H9.75V10.75H3V9.25ZM3 4H18V5.5H3V4ZM17.0055 10.7687L17.8725 10.4755L18.6225 11.7745L17.9355 12.3782C18.022 12.7882 18.022 13.2118 17.9355 13.6218L18.6225 14.2255L17.8725 15.5245L17.0055 15.2313C16.698 15.5088 16.332 15.7225 15.9293 15.8538L15.75 16.75H14.25L14.07 15.853C13.6719 15.7229 13.3056 15.5109 12.9945 15.2305L12.1275 15.5245L11.3775 14.2255L12.0645 13.6218C11.978 13.2118 11.978 12.7882 12.0645 12.3782L11.3775 11.7745L12.1275 10.4755L12.9945 10.7687C13.302 10.4912 13.668 10.2775 14.0707 10.1462L14.25 9.25H15.75L15.93 10.147C16.332 10.2775 16.698 10.492 17.0055 10.7695V10.7687ZM15 14.5C15.3978 14.5 15.7794 14.342 16.0607 14.0607C16.342 13.7794 16.5 13.3978 16.5 13C16.5 12.6022 16.342 12.2206 16.0607 11.9393C15.7794 11.658 15.3978 11.5 15 11.5C14.6022 11.5 14.2206 11.658 13.9393 11.9393C13.658 12.2206 13.5 12.6022 13.5 13C13.5 13.3978 13.658 13.7794 13.9393 14.0607C14.2206 14.342 14.6022 14.5 15 14.5V14.5Z" fill="#009FAF"/>
</svg>
