<svg width="24" height="24" viewBox="0 0 24 24" fill="none" xmlns="http://www.w3.org/2000/svg">
<path d="M7.50039 6.6V3.9C7.50039 3.66131 7.59521 3.43239 7.76399 3.2636C7.93278 3.09482 8.1617 3 8.40039 3H19.2004C19.4391 3 19.668 3.09482 19.8368 3.2636C20.0056 3.43239 20.1004 3.66131 20.1004 3.9V16.5C20.1004 16.7387 20.0056 16.9676 19.8368 17.1364C19.668 17.3052 19.4391 17.4 19.2004 17.4H16.5004V20.1C16.5004 20.5968 16.0954 21 15.5941 21H4.80669C4.688 21.0007 4.57035 20.978 4.46048 20.9331C4.35061 20.8882 4.2507 20.822 4.16648 20.7384C4.08227 20.6547 4.0154 20.5553 3.96974 20.4457C3.92407 20.3362 3.90051 20.2187 3.90039 20.1L3.90309 7.5C3.90309 7.0032 4.30809 6.6 4.80939 6.6H7.50039ZM5.70309 8.4L5.70039 19.2H14.7004V8.4H5.70309ZM9.30039 6.6H16.5004V15.6H18.3004V4.8H9.30039V6.6Z" fill="#5C5C5C"/>
</svg>
