<svg width="24" height="24" viewBox="0 0 24 24" fill="none" xmlns="http://www.w3.org/2000/svg">
<path fill-rule="evenodd" clip-rule="evenodd" d="M12 19.5C16.1421 19.5 19.5 16.1421 19.5 12C19.5 7.85786 16.1421 4.5 12 4.5C7.85786 4.5 4.5 7.85786 4.5 12C4.5 16.1421 7.85786 19.5 12 19.5ZM13.339 15.8503L13.4588 15.3607C13.3968 15.3898 13.2968 15.4231 13.1598 15.461C13.0224 15.4988 12.8987 15.5181 12.79 15.5181C12.5584 15.5181 12.3954 15.4802 12.3008 15.4039C12.2068 15.3276 12.16 15.1841 12.16 14.9739C12.16 14.8906 12.1741 14.7665 12.2037 14.604C12.2323 14.4405 12.2653 14.2951 12.3019 14.168L12.749 12.5851C12.7928 12.4398 12.8229 12.2801 12.839 12.1058C12.8555 11.9319 12.8632 11.8102 12.8632 11.7412C12.8632 11.4074 12.7462 11.1365 12.5121 10.9275C12.278 10.7187 11.9447 10.6143 11.5128 10.6143C11.2724 10.6143 11.0183 10.6571 10.7493 10.7424C10.4804 10.8275 10.1992 10.9301 9.90505 11.0498L9.78498 11.5398C9.87263 11.5074 9.97703 11.4725 10.0992 11.4364C10.2208 11.4005 10.3401 11.3819 10.4562 11.3819C10.6932 11.3819 10.8528 11.4223 10.9364 11.5019C11.0201 11.5817 11.0621 11.7236 11.0621 11.9266C11.0621 12.0388 11.0488 12.1635 11.0213 12.299C10.9941 12.4354 10.9601 12.5796 10.9202 12.7318L10.4711 14.321C10.4312 14.488 10.402 14.6374 10.3836 14.7701C10.3654 14.9026 10.3567 15.0327 10.3567 15.1591C10.3567 15.4858 10.4774 15.755 10.7187 15.9675C10.96 16.1792 11.2983 16.2857 11.7332 16.2857C12.0165 16.2857 12.2651 16.2487 12.479 16.1742C12.6927 16.1 12.9797 15.9921 13.339 15.8503ZM13.2594 9.42024C13.4682 9.22658 13.5722 8.99105 13.5722 8.71526C13.5722 8.44009 13.4684 8.20409 13.2594 8.00797C13.051 7.81239 12.7999 7.71429 12.5063 7.71429C12.2117 7.71429 11.9596 7.81216 11.7493 8.00797C11.5389 8.20409 11.4336 8.44001 11.4336 8.71526C11.4336 8.99105 11.5389 9.2265 11.7493 9.42024C11.96 9.6146 12.2117 9.71186 12.5063 9.71186C12.8 9.71186 13.051 9.6146 13.2594 9.42024Z" fill="#A4A4A4"/>
</svg>
