<svg width="24" height="24" viewBox="0 0 24 24" fill="none" xmlns="http://www.w3.org/2000/svg">
<path d="M5.26877 6.54002L2.45447 3.72663L3.72797 2.45312L21.5471 20.2731L20.2736 21.5457L17.2946 18.5667C15.7117 19.5707 13.8752 20.1024 12.0008 20.0994C7.14797 20.0994 3.11057 16.6074 2.26367 11.9994C2.6507 9.90307 3.70514 7.98803 5.26967 6.54002H5.26877ZM14.4821 15.7542L13.1645 14.4366C12.6605 14.6777 12.0942 14.7566 11.5435 14.6623C10.9929 14.5681 10.485 14.3053 10.09 13.9102C9.69492 13.5152 9.43214 13.0073 9.33787 12.4567C9.24359 11.906 9.32245 11.3397 9.56357 10.8357L8.24597 9.51812C7.67332 10.3835 7.41732 11.4201 7.52132 12.4526C7.62532 13.485 8.08294 14.4498 8.81668 15.1835C9.55042 15.9173 10.5152 16.3749 11.5476 16.4789C12.5801 16.5829 13.6167 16.3269 14.4821 15.7542ZM8.37737 4.58343C9.49967 4.14243 10.7228 3.89942 12.0008 3.89942C16.8536 3.89942 20.891 7.39143 21.7379 11.9994C21.4621 13.4986 20.8422 14.9132 19.9271 16.1322L16.4531 12.6582C16.5563 11.9631 16.4952 11.2534 16.2748 10.5861C16.0544 9.91881 15.6808 9.3124 15.1838 8.81547C14.6869 8.31854 14.0805 7.9449 13.4132 7.72449C12.7459 7.50408 12.0362 7.44303 11.3411 7.54622L8.37737 4.58433V4.58343Z" fill="#009FAF"/>
</svg>
