<svg width="21" height="20" viewBox="0 0 21 20" fill="none" xmlns="http://www.w3.org/2000/svg">
<path d="M10.75 2.5C14.8922 2.5 18.25 5.85775 18.25 10C18.25 14.1422 14.8922 17.5 10.75 17.5C6.60775 17.5 3.25 14.1422 3.25 10H4.75C4.75 13.3135 7.4365 16 10.75 16C14.0635 16 16.75 13.3135 16.75 10C16.75 6.6865 14.0635 4 10.75 4C8.6875 4 6.868 5.04025 5.78875 6.625H7.75V8.125H3.25V3.625H4.75V5.5C6.118 3.6775 8.29675 2.5 10.75 2.5ZM11.5 6.25V9.68875L13.9323 12.121L12.871 13.1823L10 10.3098V6.25H11.5Z" fill="#009FAF"/>
</svg>
