<svg width="20" height="20" viewBox="0 0 20 20" fill="none" xmlns="http://www.w3.org/2000/svg">
<path d="M16.75 7.00017C17.1478 7.00017 17.5294 7.15821 17.8107 7.43951C18.092 7.72081 18.25 8.10234 18.25 8.50017V11.5002C18.25 11.898 18.092 12.2795 17.8107 12.5608C17.5294 12.8421 17.1478 13.0002 16.75 13.0002H15.9535C15.7707 14.4501 15.0649 15.7836 13.9688 16.7502C12.8727 17.7168 11.4615 18.2501 10 18.2502V16.7502C11.1935 16.7502 12.3381 16.2761 13.182 15.4322C14.0259 14.5882 14.5 13.4436 14.5 12.2502V7.75017C14.5 6.55669 14.0259 5.4121 13.182 4.56819C12.3381 3.72428 11.1935 3.25017 10 3.25017C8.80653 3.25017 7.66193 3.72428 6.81802 4.56819C5.97411 5.4121 5.5 6.55669 5.5 7.75017V13.0002H3.25C2.85218 13.0002 2.47064 12.8421 2.18934 12.5608C1.90804 12.2795 1.75 11.898 1.75 11.5002V8.50017C1.75 8.10234 1.90804 7.72081 2.18934 7.43951C2.47064 7.15821 2.85218 7.00017 3.25 7.00017H4.0465C4.22952 5.55034 4.93531 4.21712 6.03143 3.25068C7.12755 2.28423 8.53866 1.75098 10 1.75098C11.4613 1.75098 12.8724 2.28423 13.9686 3.25068C15.0647 4.21712 15.7705 5.55034 15.9535 7.00017H16.75ZM6.82 12.8389L7.615 11.5669C8.32981 12.0147 9.15652 12.2515 10 12.2502C10.8435 12.2515 11.6702 12.0147 12.385 11.5669L13.18 12.8389C12.2269 13.436 11.1247 13.7519 10 13.7502C8.87534 13.7519 7.77306 13.436 6.82 12.8389Z" fill="#5C5C5C"/>
</svg>
