<svg width="16" height="16" viewBox="0 0 16 16" fill="none" xmlns="http://www.w3.org/2000/svg">
<path d="M3.51194 4.36034L1.63574 2.48474L2.48475 1.63574L14.3641 13.5157L13.5151 14.3641L11.5291 12.3781C10.4739 13.0475 9.24959 13.4019 7.99995 13.3999C4.76475 13.3999 2.07314 11.0719 1.50854 7.99994C1.76656 6.60237 2.46952 5.32568 3.51254 4.36034H3.51194ZM9.65415 10.5031L8.77575 9.62474C8.43977 9.78549 8.06221 9.83806 7.6951 9.77521C7.328 9.71236 6.98943 9.53718 6.72607 9.27382C6.46271 9.01046 6.28753 8.67189 6.22467 8.30478C6.16182 7.93768 6.2144 7.56011 6.37515 7.22414L5.49675 6.34574C5.11497 6.92264 4.94431 7.61374 5.01364 8.30204C5.08298 8.99033 5.38806 9.63351 5.87722 10.1227C6.36638 10.6118 7.00956 10.9169 7.69785 10.9862C8.38615 11.0556 9.07725 10.8849 9.65415 10.5031V10.5031ZM5.58435 3.05594C6.33255 2.76194 7.14795 2.59994 7.99995 2.59994C11.2351 2.59994 13.9267 4.92794 14.4913 7.99994C14.3075 8.99936 13.8943 9.94249 13.2841 10.7551L10.9681 8.43914C11.0369 7.97571 10.9962 7.50261 10.8493 7.05774C10.7024 6.61286 10.4533 6.20859 10.122 5.8773C9.7907 5.54602 9.38642 5.29692 8.94155 5.14999C8.49668 5.00305 8.02358 4.96235 7.56015 5.03114L5.58435 3.05654V3.05594Z" fill="#6FC05E"/>
</svg>
