<svg width="24" height="24" viewBox="0 0 24 24" fill="none" xmlns="http://www.w3.org/2000/svg">
<path d="M7.5 6H6V4.5H18V6H16.5V7.5C16.5 8.71157 15.8878 9.68601 15.1171 10.4825C14.5899 11.0273 13.9485 11.529 13.2982 12C13.9485 12.471 14.5899 12.9727 15.1171 13.5175C15.8878 14.314 16.5 15.2885 16.5 16.5V18H18V19.5H6V18H7.5V16.5C7.5 15.2885 8.11212 14.314 8.88293 13.5175C9.41012 12.9727 10.0515 12.471 10.7018 12C10.0515 11.529 9.41012 11.0273 8.88293 10.4825C8.11212 9.68601 7.5 8.71157 7.5 7.5V6ZM9 6V7.5C9 8.16343 9.32538 8.78274 9.96083 9.43937C10.506 10.0027 11.2161 10.5299 12 11.0836C12.7839 10.5299 13.494 10.0027 14.0392 9.43937C14.6747 8.78274 15 8.16343 15 7.5V6H9ZM12 12.9164C11.2161 13.4701 10.506 13.9972 9.96083 14.5606C9.32538 15.2173 9 15.8365 9 16.5V18H15V16.5C15 15.8365 14.6747 15.2173 14.0392 14.5606C13.494 13.9972 12.7839 13.4701 12 12.9164Z" fill="#5C5C5C"/>
</svg>
