<svg width="20" height="20" viewBox="0 0 20 20" fill="none" xmlns="http://www.w3.org/2000/svg">
<path d="M16.75 7V16.7448C16.7507 16.8432 16.732 16.9409 16.6949 17.0322C16.6579 17.1234 16.6032 17.2065 16.534 17.2766C16.4649 17.3468 16.3826 17.4026 16.2919 17.4409C16.2011 17.4792 16.1037 17.4993 16.0052 17.5H3.99475C3.79736 17.5 3.60804 17.4216 3.4684 17.2821C3.32875 17.1426 3.2502 16.9534 3.25 16.756V3.244C3.25 2.84125 3.58675 2.5 4.0015 2.5H12.2477L16.75 7ZM15.25 7.75H11.5V4H4.75V16H15.25V7.75ZM7 6.25H9.25V7.75H7V6.25ZM7 9.25H13V10.75H7V9.25ZM7 12.25H13V13.75H7V12.25Z" fill="#5C5C5C"/>
</svg>
