<svg width="20" height="20" viewBox="0 0 20 20" fill="none" xmlns="http://www.w3.org/2000/svg">
<path d="M1.51746 6.24777C3.91677 4.304 6.91209 3.24545 9.99996 3.25001C13.2137 3.25001 16.165 4.37276 18.4825 6.24777L17.0687 7.99752C15.0692 6.37791 12.5731 5.496 9.99996 5.50001C7.32246 5.50001 4.86246 6.43601 2.93121 7.99752L1.51746 6.24777ZM3.87321 9.16527C5.60616 7.76126 7.76964 6.99667 9.99996 7.00002C12.3205 7.00002 14.452 7.81076 16.1267 9.16452L14.713 10.915C13.3798 9.83517 11.7156 9.24722 9.99996 9.25002C8.21496 9.25002 6.57546 9.87402 5.28696 10.915L3.87321 9.16452V9.16527ZM6.22971 12.0828C7.29609 11.2187 8.62744 10.7481 9.99996 10.75C11.428 10.75 12.7397 11.2488 13.7702 12.082L12.3565 13.8325C11.6899 13.2926 10.8577 12.9987 9.99996 13C9.14216 12.9987 8.31005 13.2926 7.64346 13.8325L6.22971 12.082V12.0828ZM8.58621 15.0003C8.98599 14.6761 9.48523 14.4994 9.99996 14.5C10.5355 14.5 11.0275 14.6875 11.4137 14.9995L9.99996 16.75L8.58621 14.9995V15.0003Z" fill="#1253A5"/>
</svg>
