<svg width="20" height="20" viewBox="0 0 20 20" fill="none" xmlns="http://www.w3.org/2000/svg">
<path d="M2.5 14.5H7.75V16H2.5V14.5ZM2.5 9.25H9.25V10.75H2.5V9.25ZM2.5 4H17.5V5.5H2.5V4ZM16.5055 10.7687L17.3725 10.4755L18.1225 11.7745L17.4355 12.3782C17.522 12.7882 17.522 13.2118 17.4355 13.6218L18.1225 14.2255L17.3725 15.5245L16.5055 15.2313C16.198 15.5088 15.832 15.7225 15.4293 15.8538L15.25 16.75H13.75L13.57 15.853C13.1719 15.7229 12.8056 15.5109 12.4945 15.2305L11.6275 15.5245L10.8775 14.2255L11.5645 13.6218C11.478 13.2118 11.478 12.7882 11.5645 12.3782L10.8775 11.7745L11.6275 10.4755L12.4945 10.7687C12.802 10.4912 13.168 10.2775 13.5707 10.1462L13.75 9.25H15.25L15.43 10.147C15.832 10.2775 16.198 10.492 16.5055 10.7695V10.7687ZM14.5 14.5C14.8978 14.5 15.2794 14.342 15.5607 14.0607C15.842 13.7794 16 13.3978 16 13C16 12.6022 15.842 12.2206 15.5607 11.9393C15.2794 11.658 14.8978 11.5 14.5 11.5C14.1022 11.5 13.7206 11.658 13.4393 11.9393C13.158 12.2206 13 12.6022 13 13C13 13.3978 13.158 13.7794 13.4393 14.0607C13.7206 14.342 14.1022 14.5 14.5 14.5V14.5Z" fill="#5C5C5C"/>
</svg>
