<svg width="20" height="20" viewBox="0 0 20 20" fill="none" xmlns="http://www.w3.org/2000/svg">
<path d="M6.95566 14.5002C6.73291 13.5455 5.72791 12.7647 5.31541 12.2502C4.60905 11.3677 4.16637 10.3036 4.03836 9.18045C3.91034 8.05733 4.10221 6.92088 4.59185 5.90203C5.08149 4.88318 5.84898 4.02338 6.80593 3.42166C7.76287 2.81995 8.87032 2.5008 10.0007 2.50098C11.1311 2.50116 12.2385 2.82066 13.1952 3.42269C14.152 4.02471 14.9192 4.88476 15.4085 5.90377C15.8978 6.92277 16.0893 8.05928 15.9609 9.18236C15.8326 10.3054 15.3895 11.3694 14.6829 12.2517C14.2704 12.7655 13.2669 13.5462 13.0442 14.5002H6.95491H6.95566ZM12.9999 16.0002V16.7502C12.9999 17.1481 12.8419 17.5296 12.5606 17.8109C12.2793 18.0922 11.8977 18.2502 11.4999 18.2502H8.49991C8.10208 18.2502 7.72055 18.0922 7.43925 17.8109C7.15794 17.5296 6.99991 17.1481 6.99991 16.7502V16.0002H12.9999ZM10.7499 8.50398V5.50022L7.37491 10.004H9.24991V13.004L12.6249 8.50398H10.7499Z" fill="#FEC00F"/>
</svg>
