<svg width="20" height="20" viewBox="0 0 20 20" fill="none" xmlns="http://www.w3.org/2000/svg">
<path d="M1.66663 5C1.66663 3.61929 2.78591 2.5 4.16663 2.5H15.8333C17.214 2.5 18.3333 3.61929 18.3333 5V5.85586C18.3333 6.31609 17.9602 6.68919 17.5 6.68919C17.0397 6.68919 16.6666 6.31609 16.6666 5.85586V5C16.6666 4.53976 16.2935 4.16667 15.8333 4.16667H4.16663C3.70639 4.16667 3.33329 4.53976 3.33329 5V6.66667H11.6666C12.1269 6.66667 12.5 7.03976 12.5 7.5C12.5 7.96024 12.1269 8.33333 11.6666 8.33333H3.33329V15C3.33329 15.4602 3.70639 15.8333 4.16663 15.8333H10.6081C11.0683 15.8333 11.4414 16.2064 11.4414 16.6667C11.4414 17.1269 11.0683 17.5 10.6081 17.5H4.16663C2.78591 17.5 1.66663 16.3807 1.66663 15V5Z" fill="#EE2F24"/>
<path d="M15.244 8.57741C14.9186 8.90285 14.9186 9.43049 15.244 9.75592L17.1548 11.6667H10.8333C10.3731 11.6667 9.99996 12.0398 9.99996 12.5C9.99996 12.9602 10.3731 13.3333 10.8333 13.3333H17.1548L15.244 15.2441C14.9186 15.5695 14.9186 16.0972 15.244 16.4226C15.5695 16.748 16.0971 16.748 16.4225 16.4226L19.7559 13.0893C19.9084 12.9367 19.9895 12.7397 19.999 12.54C19.9996 12.5267 20 12.5133 20 12.5L16.4225 8.57741L19.9999 12.4923C19.998 12.2816 19.9166 12.0715 19.7559 11.9107L16.4225 8.57741C16.0971 8.25197 15.5695 8.25197 15.244 8.57741Z" fill="#EE2F24"/>
</svg>
