<svg width="20" height="20" viewBox="0 0 20 20" fill="none" xmlns="http://www.w3.org/2000/svg">
<path d="M1.66663 5C1.66663 3.61929 2.78591 2.5 4.16663 2.5H15.8333C17.214 2.5 18.3333 3.61929 18.3333 5V5.85586C18.3333 6.31609 17.9602 6.68919 17.5 6.68919C17.0397 6.68919 16.6666 6.31609 16.6666 5.85586V5C16.6666 4.53976 16.2935 4.16667 15.8333 4.16667H4.16663C3.70639 4.16667 3.33329 4.53976 3.33329 5V6.66667H9.99996C10.4602 6.66667 10.8333 7.03976 10.8333 7.5C10.8333 7.96024 10.4602 8.33333 9.99996 8.33333H3.33329V15C3.33329 15.4602 3.70639 15.8333 4.16663 15.8333H8.9414C9.40164 15.8333 9.77473 16.2064 9.77473 16.6667C9.77473 17.1269 9.40164 17.5 8.9414 17.5H4.16663C2.78591 17.5 1.66663 16.3807 1.66663 15V5Z" fill="#6FC05E"/>
<path d="M13.5774 8.57741C13.9028 8.25197 14.4304 8.25197 14.7559 8.57741C15.0813 8.90285 15.0813 9.43049 14.7559 9.75592L12.8451 11.6667H19.1666C19.6269 11.6667 20 12.0398 20 12.5C20 12.9602 19.6269 13.3333 19.1666 13.3333H12.8451L14.7559 15.2441C15.0813 15.5695 15.0813 16.0972 14.7559 16.4226C14.4304 16.748 13.9028 16.748 13.5774 16.4226L10.2446 13.0898L10.2386 13.0838C10.0915 12.934 10.0006 12.7289 9.99996 12.5025L9.99996 12.5L9.99996 12.4975C10.0003 12.3854 10.0227 12.2785 10.0632 12.181C10.1029 12.085 10.1614 11.9948 10.2386 11.9162L10.2446 11.9101L13.5774 8.57741Z" fill="#6FC05E"/>
</svg>
