<svg width="20" height="20" viewBox="0 0 20 20" fill="none" xmlns="http://www.w3.org/2000/svg">
<path d="M14.5 2.5C14.6989 2.5 14.8897 2.57902 15.0303 2.71967C15.171 2.86032 15.25 3.05109 15.25 3.25V9.25H13.75V4H6.25V16H9.25V17.5H5.5C5.30109 17.5 5.11032 17.421 4.96967 17.2803C4.82902 17.1397 4.75 16.9489 4.75 16.75V3.25C4.75 3.05109 4.82902 2.86032 4.96967 2.71967C5.11032 2.57902 5.30109 2.5 5.5 2.5H14.5ZM12.25 10C12.779 9.99992 13.2986 10.1397 13.7562 10.4052C14.2137 10.6708 14.5929 11.0525 14.8553 11.5119C15.1177 11.9712 15.254 12.4917 15.2504 13.0207C15.2467 13.5497 15.1032 14.0683 14.8345 14.524L16.492 16.1815L15.4323 17.2428L13.7733 15.5853C13.3758 15.8192 12.9298 15.9584 12.4698 15.992C12.0099 16.0256 11.5484 15.9527 11.1212 15.779C10.6939 15.6053 10.3125 15.3354 10.0066 14.9903C9.7006 14.6453 9.47831 14.2343 9.35696 13.7894C9.23561 13.3444 9.21848 12.8775 9.3069 12.4249C9.39531 11.9722 9.58689 11.5461 9.86675 11.1795C10.1466 10.813 10.5072 10.5158 10.9206 10.3113C11.3339 10.1067 11.7888 10.0002 12.25 10ZM12.25 11.5C11.8522 11.5 11.4706 11.658 11.1893 11.9393C10.908 12.2206 10.75 12.6022 10.75 13C10.75 13.3978 10.908 13.7794 11.1893 14.0607C11.4706 14.342 11.8522 14.5 12.25 14.5C12.6478 14.5 13.0294 14.342 13.3107 14.0607C13.592 13.7794 13.75 13.3978 13.75 13C13.75 12.6022 13.592 12.2206 13.3107 11.9393C13.0294 11.658 12.6478 11.5 12.25 11.5Z" fill="#A4A4A4"/>
</svg>
