<svg width="20" height="20" viewBox="0 0 20 20" fill="none" xmlns="http://www.w3.org/2000/svg">
<path d="M10.75 15.25H15.25V8.48351L10 4.40051L4.75 8.48351V15.25H9.25V10.75H10.75V15.25ZM16.75 16C16.75 16.1989 16.671 16.3897 16.5303 16.5303C16.3897 16.671 16.1989 16.75 16 16.75H4C3.80109 16.75 3.61032 16.671 3.46967 16.5303C3.32902 16.3897 3.25 16.1989 3.25 16V8.11751C3.24992 8.00322 3.27596 7.89042 3.32614 7.78773C3.37631 7.68504 3.44929 7.59518 3.5395 7.52501L9.5395 2.85851C9.67116 2.75609 9.8332 2.70049 10 2.70049C10.1668 2.70049 10.3288 2.75609 10.4605 2.85851L16.4605 7.52501C16.5507 7.59518 16.6237 7.68504 16.6739 7.78773C16.724 7.89042 16.7501 8.00322 16.75 8.11751V16V16Z" fill="#A4A4A4"/>
</svg>
