<svg width="20" height="20" viewBox="0 0 20 20" fill="none" xmlns="http://www.w3.org/2000/svg">
<path d="M10.75 15.25H15.25V8.48352L10 4.40052L4.75 8.48352V15.25H9.25V10.75H10.75V15.25ZM16.75 16C16.75 16.1989 16.671 16.3897 16.5303 16.5303C16.3897 16.671 16.1989 16.75 16 16.75H4C3.80109 16.75 3.61032 16.671 3.46967 16.5303C3.32902 16.3897 3.25 16.1989 3.25 16V8.11752C3.24992 8.00323 3.27596 7.89043 3.32614 7.78774C3.37631 7.68505 3.44929 7.59519 3.5395 7.52502L9.5395 2.85852C9.67116 2.7561 9.8332 2.7005 10 2.7005C10.1668 2.7005 10.3288 2.7561 10.4605 2.85852L16.4605 7.52502C16.5507 7.59519 16.6237 7.68505 16.6739 7.78774C16.724 7.89043 16.7501 8.00323 16.75 8.11752V16Z" fill="#009FAF"/>
</svg>
