<svg width="20" height="20" viewBox="0 0 20 20" fill="none" xmlns="http://www.w3.org/2000/svg">
<path d="M16.75 3.244V16.756C16.7484 16.953 16.6694 17.1414 16.5301 17.2806C16.3907 17.4198 16.2022 17.4986 16.0052 17.5H3.99475C3.79736 17.5 3.60804 17.4216 3.4684 17.2821C3.32875 17.1426 3.2502 16.9534 3.25 16.756V3.244C3.25157 3.04704 3.33056 2.85859 3.46991 2.71938C3.60926 2.58018 3.79778 2.50137 3.99475 2.5H16.0052C16.4162 2.5 16.75 2.833 16.75 3.244ZM15.25 4H4.75V16H15.25V4ZM9.46975 10.8408L12.652 7.65925L13.7125 8.71975L9.46975 12.9625L6.55225 10.045L7.6135 8.9845L9.46975 10.8408Z" fill="#009FAF"/>
</svg>
