<svg width="32" height="32" viewBox="0 0 32 32" fill="none" xmlns="http://www.w3.org/2000/svg">
<path fill-rule="evenodd" clip-rule="evenodd" d="M12.5663 19.3956L14.8421 17.3685H12.3216V14.5849H13.5088L11.2878 12.5904L9.15454 14.5523H10.2431V17.897C10.2504 18.9323 10.4257 19.3992 11.3317 19.4101L12.5663 19.3956Z" fill="#3C893F"/>
<path fill-rule="evenodd" clip-rule="evenodd" d="M19.4337 12.6049L17.158 14.632H19.6785V17.4156H18.4913L20.7122 19.4101L22.8418 17.4482H21.7533V14.1035C21.746 13.0682 21.5743 12.6013 20.6647 12.5904L19.4337 12.6049Z" fill="#3C893F"/>
<path fill-rule="evenodd" clip-rule="evenodd" d="M19.4265 19.4028L17.3809 17.1477V19.6453H14.5718V18.4689L12.5554 20.6697L14.5389 22.7801V21.7014H17.9142C18.9589 21.6941 19.4302 21.524 19.4411 20.6227L19.4265 19.4028Z" fill="#3C893F"/>
<path fill-rule="evenodd" clip-rule="evenodd" d="M12.5737 12.5977L14.6156 14.8528V12.3551H17.4284V13.5316L19.4411 11.3307L17.4612 9.21679V10.2955H14.086C13.0413 10.3027 12.5664 10.4765 12.5554 11.3742L12.5737 12.5977Z" fill="#3C893F"/>
<path fill-rule="evenodd" clip-rule="evenodd" d="M3.49622 9.78871C3.2113 10.2448 2.96655 10.2448 2.75103 12.1814C2.53186 14.1143 3.77384 16.1523 3.77384 16.1523C3.77384 16.1523 3.64599 15.2184 4.23776 14.4474C4.83318 13.6763 6.01671 12.5325 6.57195 11.7615C7.12719 10.9905 7.26965 10.0059 7.26965 10.0059C6.75825 10.2376 6.19205 10.3643 5.59298 10.3643C4.82587 10.3643 4.10991 10.1543 3.49622 9.78871Z" fill="#1C4596"/>
<path fill-rule="evenodd" clip-rule="evenodd" d="M8.46044 6.38613C8.46044 7.96072 7.17462 9.2385 5.58197 9.2385C3.99296 9.2385 2.70349 7.96072 2.70349 6.38613C2.70349 4.81153 3.99296 3.53375 5.58197 3.53375C7.17462 3.53375 8.46044 4.81153 8.46044 6.38613Z" fill="#1C4596"/>
<path fill-rule="evenodd" clip-rule="evenodd" d="M8.85864 3.98623C8.85864 3.98623 11.0686 2.40439 13.2896 2.09671C15.5105 1.78903 18.6959 2.31389 18.6959 2.31389C18.6959 2.31389 17.1617 2.42249 16.2046 2.97631C15.2512 3.53376 14.4877 4.3844 13.3553 5.39794C12.223 6.40785 11.423 7.07027 10.623 7.4431C10.1079 7.68563 9.66593 7.74354 9.41753 7.7544C9.57461 7.32727 9.65862 6.86756 9.65862 6.38613C9.65862 5.48843 9.35909 4.65588 8.85864 3.98623Z" fill="#1C4596"/>
<path fill-rule="evenodd" clip-rule="evenodd" d="M9.8595 28.5246C10.3198 28.8106 10.3234 29.0495 12.2741 29.2631C14.2247 29.4803 16.2813 28.2532 16.2813 28.2532C16.2813 28.2532 15.3388 28.3799 14.5608 27.7898C13.7827 27.1998 12.6284 26.0306 11.8503 25.4804C11.0759 24.9302 10.0787 24.7854 10.0787 24.7854C10.3125 25.2922 10.4403 25.8533 10.4403 26.4469C10.4403 27.207 10.2284 27.9165 9.8595 28.5246Z" fill="#3C893F"/>
<path fill-rule="evenodd" clip-rule="evenodd" d="M6.42584 23.6054C8.0185 23.6054 9.30431 24.8832 9.30431 26.4578C9.30431 28.0323 8.0185 29.3101 6.42584 29.3101C4.83683 29.3101 3.54736 28.0323 3.54736 26.4578C3.54736 24.8832 4.83683 23.6054 6.42584 23.6054Z" fill="#3C893F"/>
<path fill-rule="evenodd" clip-rule="evenodd" d="M4.00392 23.2108C4.00392 23.2108 2.40761 21.0209 2.09712 18.82C1.78662 16.6192 2.31994 13.4628 2.31994 13.4628C2.31994 13.4628 2.42588 14.9867 2.98842 15.9315C3.54731 16.8762 4.40574 17.6328 5.42855 18.7549C6.4477 19.877 7.11618 20.6697 7.49243 21.4625C7.73717 21.9729 7.79562 22.4109 7.80658 22.657C7.37554 22.505 6.91162 22.4217 6.42579 22.4217C5.51987 22.4217 4.68336 22.7149 4.00392 23.2108Z" fill="#3C893F"/>
<path fill-rule="evenodd" clip-rule="evenodd" d="M28.5002 22.2118C28.7888 21.7557 29.0299 21.752 29.2491 19.8191C29.4646 17.8861 28.2263 15.8482 28.2263 15.8482C28.2263 15.8482 28.3541 16.7821 27.7587 17.5531C27.1669 18.3241 25.9834 19.468 25.4282 20.239C24.8729 21.0064 24.7268 21.9946 24.7268 21.9946C25.2382 21.7629 25.8081 21.6362 26.4035 21.6362C27.1706 21.6362 27.8902 21.8462 28.5002 22.2118Z" fill="#1C4596"/>
<path fill-rule="evenodd" clip-rule="evenodd" d="M23.5359 25.6143C23.5359 24.0361 24.8254 22.7583 26.4144 22.7583C28.007 22.7583 29.2928 24.0361 29.2928 25.6143C29.2928 27.1889 28.007 28.4667 26.4144 28.4667C24.8254 28.4667 23.5359 27.1889 23.5359 25.6143Z" fill="#1C4596"/>
<path fill-rule="evenodd" clip-rule="evenodd" d="M23.1414 28.0142C23.1414 28.0142 20.9314 29.5961 18.7105 29.9038C16.4895 30.2114 13.3005 29.683 13.3005 29.683C13.3005 29.683 14.8384 29.578 15.7918 29.0205C16.7489 28.4667 17.5087 27.6161 18.6411 26.6025C19.7735 25.5926 20.5734 24.9302 21.3734 24.5574C21.8885 24.3148 22.3305 24.2569 22.5825 24.2461C22.4254 24.6732 22.3414 25.1329 22.3414 25.6143C22.3414 26.512 22.6373 27.341 23.1414 28.0142Z" fill="#1C4596"/>
<path fill-rule="evenodd" clip-rule="evenodd" d="M22.1369 3.47584C21.6803 3.18988 21.6766 2.95098 19.726 2.73379C17.7753 2.52022 15.7151 3.74732 15.7151 3.74732C15.7151 3.74732 16.6612 3.62063 17.4392 4.21065C18.2137 4.79706 19.368 5.96986 20.146 6.52007C20.9241 7.07027 21.9177 7.21506 21.9177 7.21506C21.6876 6.70829 21.5597 6.14361 21.5597 5.55359C21.5597 4.79344 21.7716 4.08396 22.1369 3.47584Z" fill="#3C893F"/>
<path fill-rule="evenodd" clip-rule="evenodd" d="M25.5706 8.39511C23.9816 8.39511 22.6921 7.11733 22.6921 5.54273C22.6921 3.96813 23.9816 2.69036 25.5706 2.69036C27.1596 2.69036 28.4491 3.96813 28.4491 5.54273C28.4491 7.11733 27.1596 8.39511 25.5706 8.39511Z" fill="#3C893F"/>
<path fill-rule="evenodd" clip-rule="evenodd" d="M27.996 8.78967C27.996 8.78967 29.5923 10.9796 29.9028 13.1804C30.2133 15.3813 29.68 18.5377 29.68 18.5377C29.68 18.5377 29.5741 17.0138 29.0115 16.069C28.4526 15.1206 27.5905 14.3677 26.5714 13.2456C25.5486 12.1235 24.8838 11.3307 24.5039 10.538C24.2628 10.0276 24.2043 9.58964 24.1934 9.34349C24.6244 9.49552 25.0883 9.57878 25.5705 9.57878C26.4801 9.57878 27.3166 9.28558 27.9924 8.78967H27.996Z" fill="#3C893F"/>
</svg>
