<svg width="32" height="32" viewBox="0 0 32 32" fill="none" xmlns="http://www.w3.org/2000/svg">
<path fill-rule="evenodd" clip-rule="evenodd" d="M9.99536 2C8.17766 2 6.7121 3.54982 6.7121 5.4531C6.7121 6.8289 7.47336 8.00893 8.57642 8.56904L8.45731 8.63974L4.70279 10.891C4.38171 11.0814 4.14867 11.3968 4.05028 11.772C3.95189 12.1581 3.99849 12.5496 4.18492 12.8922C4.4335 13.349 4.89958 13.6318 5.39673 13.6318C5.5987 13.6318 5.79549 13.5774 5.97674 13.4904L9.35839 11.4512V6.61682C9.35839 6.45368 9.48786 6.32317 9.64322 6.32317H10.3734C10.5288 6.32317 10.653 6.45368 10.653 6.61682V10.6681L15.7747 7.5739C15.8887 7.50864 16.0285 7.50864 16.1424 7.5739L26.1061 13.5285C26.2667 13.5937 26.4324 13.6318 26.6033 13.6318C27.1056 13.6318 27.5665 13.349 27.8151 12.8922C28.0015 12.5496 28.0481 12.1581 27.9497 11.772C27.8565 11.3968 27.6235 11.0814 27.2972 10.891L16.6914 4.52865C16.4842 4.40357 16.2408 4.33288 16.0026 4.33288C15.7644 4.33288 15.521 4.40357 15.3087 4.52865L13.3201 5.725L13.2734 5.75218C13.2786 5.6543 13.2838 5.55642 13.2838 5.4531C13.2838 3.54982 11.8131 2 9.99536 2ZM8.74731 3.6042C8.7991 3.6042 8.85089 3.62051 8.89232 3.66401C8.94928 3.73471 8.95964 3.83803 8.91303 3.90872C8.88196 3.95222 8.85088 3.99029 8.81981 4.02836C8.78356 4.06642 8.74731 4.10449 8.72142 4.15343C8.54535 4.40901 8.44695 4.69722 8.42106 5.00175C8.38481 5.44766 8.50391 5.85007 8.77838 6.20897C8.78874 6.23616 8.81463 6.25791 8.83535 6.2851L8.88196 6.33948C8.93892 6.41018 8.94928 6.48087 8.91303 6.56244C8.88196 6.63857 8.82499 6.67664 8.74214 6.68207H8.73695C8.68516 6.68207 8.63856 6.65488 8.59713 6.61138C8.46249 6.46456 8.34855 6.29598 8.25534 6.10565C8.13105 5.86638 8.05855 5.60536 8.03266 5.32802C8.03266 5.28452 8.03266 5.24102 8.02748 5.19751C8.03266 4.63741 8.18802 4.19149 8.49356 3.79996C8.55052 3.72383 8.59713 3.66401 8.64891 3.63138C8.67999 3.60963 8.71624 3.6042 8.74731 3.6042ZM11.3159 3.60963C11.3625 3.60963 11.3988 3.62595 11.435 3.65857C11.5282 3.74558 11.6163 3.85978 11.6991 3.99573C11.8597 4.25131 11.9529 4.51777 11.9995 4.81142C12.0202 4.92018 12.0254 5.03981 12.0254 5.12682C12.0202 5.64886 11.87 6.08934 11.5645 6.48087C11.5023 6.56244 11.4557 6.61682 11.404 6.65488C11.3729 6.67664 11.3366 6.68207 11.3056 6.68207C11.2486 6.68207 11.202 6.66032 11.1657 6.62226C11.1036 6.55156 11.0932 6.4428 11.145 6.37211C11.1709 6.33405 11.202 6.29598 11.2331 6.25791C11.2693 6.21985 11.3056 6.17634 11.3366 6.13284C11.492 5.89357 11.5852 5.64343 11.6215 5.3824C11.6732 4.97456 11.5956 4.58303 11.3781 4.22412C11.3263 4.13168 11.2538 4.04467 11.1865 3.95766C11.1243 3.89241 11.1088 3.82171 11.1243 3.75646C11.1398 3.69664 11.1916 3.64226 11.2538 3.62051C11.2745 3.60963 11.2952 3.60963 11.3159 3.60963ZM9.39982 4.20237C9.44643 4.20237 9.48786 4.22412 9.52411 4.25675C9.56036 4.30025 9.58625 4.34919 9.58625 4.40357C9.58625 4.45795 9.56036 4.51777 9.51893 4.56127C9.4516 4.63197 9.36357 4.72985 9.32214 4.8658C9.22374 5.17576 9.27554 5.44766 9.48268 5.68693C9.52411 5.73587 9.56554 5.77937 9.57589 5.83919C9.59143 5.91532 9.56036 6.00233 9.49303 6.0404C9.46196 6.06759 9.42053 6.07846 9.38428 6.07846C9.34285 6.07846 9.3066 6.06759 9.28071 6.0404C9.15642 5.93708 9.06321 5.80656 8.98553 5.62711C8.91821 5.46941 8.88713 5.30627 8.88713 5.13226C8.89749 4.80054 9.0166 4.51233 9.23929 4.2785C9.28589 4.22956 9.34286 4.20237 9.39982 4.20237ZM10.6634 4.20781C10.7048 4.20781 10.7463 4.21868 10.7722 4.24587C10.8964 4.34919 10.9897 4.48514 11.0673 4.65916C11.1295 4.81142 11.1657 4.98 11.1657 5.14857C11.1554 5.48573 11.0363 5.77394 10.8136 6.01321C10.7618 6.05671 10.71 6.0839 10.653 6.0839C10.6064 6.0839 10.565 6.06215 10.5288 6.02952C10.4925 5.99145 10.4666 5.93708 10.4666 5.8827C10.4666 5.82832 10.4925 5.77394 10.5339 5.725C10.6013 5.6543 10.6841 5.55642 10.7307 5.41503C10.8343 5.10507 10.7773 4.83317 10.5702 4.59934C10.5236 4.53952 10.4925 4.50146 10.477 4.44708C10.4614 4.37095 10.4977 4.28394 10.5547 4.24044C10.5909 4.21325 10.6323 4.20781 10.6634 4.20781ZM10.0264 4.88211C10.1611 4.88211 10.2698 5.00175 10.275 5.14313C10.275 5.21383 10.2491 5.27365 10.2025 5.32259C10.1559 5.37697 10.0938 5.39872 10.0264 5.39872C9.89179 5.39872 9.78304 5.28452 9.77786 5.14313C9.77786 5.00175 9.89179 4.88755 10.0264 4.88211ZM15.9612 8.35696L6.5205 14.0559V28.336C6.5205 29.2496 7.22997 30 8.09998 30H24.19C25.06 30 25.7747 29.2496 25.7747 28.336V14.2245L15.9612 8.35696ZM16.1476 11.6034C21.1502 11.6034 24.4645 15.1163 24.4645 20.3694C24.4645 25.6225 21.1502 29.168 16.1476 29.168C11.145 29.168 7.83069 25.6551 7.83069 20.3694C7.83069 15.0837 11.145 11.6034 16.1476 11.6034ZM16.1476 15.4698C13.9363 15.4698 12.709 17.2099 12.709 20.3694C12.709 23.5288 13.9363 25.3016 16.1476 25.3016C18.3589 25.3016 19.5862 23.5288 19.5862 20.3694C19.5862 17.2426 18.3589 15.4698 16.1476 15.4698Z" fill="#FF0025"/>
</svg>
