<svg width="32" height="32" viewBox="0 0 32 32" fill="none" xmlns="http://www.w3.org/2000/svg">
<path fill-rule="evenodd" clip-rule="evenodd" d="M15.9977 7.80277C16.3936 7.80277 16.7848 7.81651 17.1715 7.83483C17.4062 8.47138 18.5155 11.7961 17.2497 15.2491C16.7388 16.6275 15.2336 19.2241 13.1807 21.0009C11.1646 22.7412 8.63291 23.799 7.88263 24.0875C4.32451 22.4618 2 19.7919 2 16.7786C2 15.5009 2.41427 14.2919 3.16456 13.1929C3.89643 12.2266 4.90449 11.3061 6.14269 10.4039C8.67434 8.79653 12.1542 7.80277 15.9977 7.80277Z" fill="#0B8E31"/>
<path fill-rule="evenodd" clip-rule="evenodd" d="M4.8125 27C4.8125 27 10.3039 25.5849 14.2486 22.5579C18.198 19.5308 20.4903 15.4917 21.3004 10.6557C21.618 8.76436 21.5674 6.98293 21.5996 5H24.2003C24.2003 5 24.4627 10.1016 22.9207 14.562C21.3787 19.0271 17.2728 21.9946 16.2647 22.7868C15.2567 23.5837 12.3016 25.0491 9.59041 25.9788C6.87924 26.913 4.8125 27 4.8125 27Z" fill="#B2B705"/>
<path fill-rule="evenodd" clip-rule="evenodd" d="M26.9989 11.4434C27.2612 11.6586 27.5052 11.8784 27.7399 12.1028C27.8688 12.2356 28.0069 12.3776 28.1496 12.5333C29.328 13.8476 30 15.368 30 16.9937C30 21.9488 23.7307 25.965 15.9977 25.965C15.16 25.965 14.3406 25.9192 13.5443 25.8276C14.6951 25.5254 17.4062 24.7377 19.0403 23.6844C21.1577 22.3243 23.496 20.1124 24.3337 18.9263C25.1715 17.7402 26.0921 16.1557 26.5524 14.2094C26.9574 12.5058 26.9943 11.6357 26.9989 11.4434Z" fill="#096C8C"/>
</svg>
