<svg width="32" height="32" viewBox="0 0 32 32" fill="none" xmlns="http://www.w3.org/2000/svg">
<path fill-rule="evenodd" clip-rule="evenodd" d="M7.6344 18.7342C8.12139 16.9302 8.60839 15.1262 9.09538 13.3251C7.37794 12.0386 4.43581 12.8734 2.58581 15.4179C1.55996 16.6929 1.95186 17.8393 3.214 17.3104C5.21673 16.2955 6.7094 16.7186 7.6344 18.7342Z" fill="#7E1D7C"/>
<path fill-rule="evenodd" clip-rule="evenodd" d="M15.7808 25.1296C17.3945 24.169 19.0082 23.2112 20.6248 22.2507C22.3422 23.5343 22.3393 26.5704 20.3827 29.0348C19.4318 30.3642 18.2128 30.3041 18.3771 28.9547C18.8093 26.7648 17.9881 25.4583 15.7808 25.1296Z" fill="#7E1D7C"/>
<path fill-rule="evenodd" clip-rule="evenodd" d="M6.11005 25.4954C5.52509 25.6698 4.943 25.8442 4.35803 26.0186C5.26286 23.1683 5.96021 20.904 7.07251 17.4705C8.1877 14.037 10.0982 10.4434 11.8992 7.67595C15.9738 1.88098 25.0307 0.0198385 28.457 4.46827C30.8833 8.38495 30.2522 13.1164 27.921 16.8473C24.659 21.796 15.2044 26.193 9.34034 29.6265C9.29424 29.1062 9.25101 28.5859 9.20491 28.0684C7.88801 28.7059 6.57399 29.3435 5.2571 29.981C5.53949 28.4858 5.82477 26.9906 6.11005 25.4954Z" fill="#852582"/>
<path fill-rule="evenodd" clip-rule="evenodd" d="M7.87939 15.2806C8.98882 12.5532 10.4786 9.85728 11.8992 7.67594C15.9739 1.88098 25.0308 0.0198386 28.457 4.46827C29.2523 5.74905 29.7163 7.11846 29.9036 8.50788C28.6097 10.6635 26.803 12.7905 24.587 14.6402C18.3252 19.8662 11.1616 20.884 8.58539 16.913C8.26553 16.4184 8.03212 15.8724 7.87939 15.2806Z" fill="#8F298C"/>
<path fill-rule="evenodd" clip-rule="evenodd" d="M12.5562 6.8239C16.8815 1.70934 25.2064 0.245591 28.4569 4.46817C29.2465 5.7461 29.7133 7.10693 29.9006 8.49349C27.9152 9.92865 24.8549 10.8635 21.5324 10.8635C17.0486 10.8635 13.4812 9.15961 12.5562 6.8239Z" fill="#973C91"/>
<path fill-rule="evenodd" clip-rule="evenodd" d="M6.11005 25.4955C5.52509 25.6698 4.943 25.8442 4.35803 26.0186C5.13319 23.5771 5.75562 21.5645 6.6201 18.88C8.68622 21.9361 12.2335 25.3153 15.628 26.1158C13.3804 27.3737 11.1846 28.5459 9.34034 29.6265C9.29424 29.1062 9.25101 28.5859 9.20491 28.0685L5.88529 29.678L5.37812 29.3492L6.11005 25.4955Z" fill="#7E8081"/>
<path fill-rule="evenodd" clip-rule="evenodd" d="M6.11005 25.4955C5.52509 25.6699 4.943 25.8443 4.35803 26.0187C4.99487 24.0203 5.52797 22.3079 6.17345 20.278C8.14736 23.0569 10.6918 25.1496 13.9452 27.0508C12.2969 27.9599 10.7178 28.8176 9.34034 29.6266C9.29424 29.1063 9.25101 28.586 9.20491 28.0685C7.88801 28.7061 6.57399 29.3436 5.2571 29.9811C5.53949 28.4859 5.82477 26.9907 6.11005 25.4955Z" fill="#FAAB3B"/>
<path fill-rule="evenodd" clip-rule="evenodd" d="M7.32895 21.7531C8.74094 23.3913 10.4008 24.7836 12.3458 26.0615L10.7667 27.0164L10.7437 25.747L7.33183 27.2394L7.93986 23.3656L6.68347 23.7429L7.32895 21.7531Z" fill="#FFD43A"/>
<path fill-rule="evenodd" clip-rule="evenodd" d="M19.547 2.43551C23.0424 1.49208 26.5897 2.04384 28.4569 4.46818C29.8401 6.70383 30.2291 9.2025 29.8747 11.6297C25.2238 10.6234 20.7659 6.08631 19.547 2.43551Z" fill="#938F99"/>
<path fill-rule="evenodd" clip-rule="evenodd" d="M19.547 2.43551C23.0424 1.49208 26.5897 2.04384 28.4569 4.46818C29.2523 5.74896 29.7162 7.11837 29.9035 8.50779C29.3819 9.37403 28.7797 10.2346 28.1025 11.0779C24.1316 9.4741 20.6103 5.61745 19.547 2.43551Z" fill="#BABDBE"/>
<path fill-rule="evenodd" clip-rule="evenodd" d="M19.547 2.43551C23.0424 1.49208 26.5897 2.04384 28.457 4.46818C29.2465 5.7461 29.7133 7.10693 29.9006 8.4935C28.9295 9.19392 27.702 9.77714 26.3101 10.1888C23.1087 8.30481 20.4461 5.12858 19.547 2.43551Z" fill="#ACAFB0"/>
<path fill-rule="evenodd" clip-rule="evenodd" d="M20.8351 2.15817C23.8896 1.65787 26.8173 2.34114 28.457 4.46816C29.5808 6.28355 30.0505 8.2762 29.9957 10.2603C25.5667 9.37687 21.8552 5.80326 20.8351 2.15817Z" fill="#AEAAB4"/>
<path fill-rule="evenodd" clip-rule="evenodd" d="M20.8351 2.15817C23.8896 1.65787 26.8173 2.34114 28.457 4.46816C29.2523 5.74894 29.7162 7.11835 29.9035 8.50777C29.6038 9.00522 29.2782 9.4998 28.9267 9.99153C24.9788 8.79366 21.7716 5.50593 20.8351 2.15817Z" fill="#CACCCD"/>
<path fill-rule="evenodd" clip-rule="evenodd" d="M11.7032 23.7542C9.44974 25.9699 8.16742 24.6319 9.2048 22.9852C10.1788 21.4728 11.1499 19.9576 12.1239 18.4453C13.6021 16.2154 16.6106 18.2423 14.9507 20.3379C13.9076 21.6758 12.8472 22.7365 11.7032 23.7542Z" fill="#7E1D7C"/>
<path fill-rule="evenodd" clip-rule="evenodd" d="M23.8233 2.66721C24.9817 2.75584 25.9211 3.14465 25.9211 3.53631C25.9211 3.92512 24.9817 4.17099 23.8233 4.08236C22.6678 3.9966 21.7284 3.60779 21.7284 3.21612C21.7284 2.82445 22.6678 2.57859 23.8233 2.66721Z" fill="#E7E7E8"/>
<path fill-rule="evenodd" clip-rule="evenodd" d="M19.2474 17.3105C21.5037 17.3105 23.3421 15.4836 23.3421 13.248C23.3421 11.0095 21.5037 9.18265 19.2474 9.18265C16.9939 9.18265 15.1526 11.0095 15.1526 13.248C15.1526 15.4836 16.9939 17.3105 19.2474 17.3105Z" fill="white"/>
<path fill-rule="evenodd" clip-rule="evenodd" d="M19.2472 16.4184C21.0079 16.4184 22.4458 14.9946 22.4458 13.2479C22.4458 11.4982 21.0079 10.0745 19.2472 10.0745C17.4866 10.0745 16.0515 11.4982 16.0515 13.2479C16.0515 14.9946 17.4866 16.4184 19.2472 16.4184Z" fill="#1FB1DE"/>
<path fill-rule="evenodd" clip-rule="evenodd" d="M19.3338 13.7225C20.5037 13.5967 21.5065 13.9627 21.5699 14.5459C21.6333 15.1262 20.7371 15.698 19.5643 15.8238C18.3944 15.9525 17.3944 15.5837 17.331 15.0033C17.2677 14.423 18.1638 13.8483 19.3338 13.7225Z" fill="#AED9EF"/>
</svg>
