<svg width="32" height="32" viewBox="0 0 32 32" fill="none" xmlns="http://www.w3.org/2000/svg">
<path fill-rule="evenodd" clip-rule="evenodd" d="M2 30H30V2H2V30Z" fill="#FFF200"/>
<path fill-rule="evenodd" clip-rule="evenodd" d="M12.2562 11.8958L11.7042 13.6466L11.0147 15.8584L10.4605 17.6176L9.80481 19.7025L12.7808 18.4127L17.3241 16.4229L17.0618 17.717L16.5647 20.2269L16.2031 22.0221L15.2216 26.9869C15.5706 26.2194 15.8816 25.3651 16.1988 24.5701C16.3088 24.2973 17.1126 22.223 17.1781 22.1532C17.1929 22.0348 17.7133 20.745 17.7979 20.5716L18.6862 18.364L19.4096 16.5435L20.5264 13.7227L21.0319 12.4245L17.9607 13.6593L13.6163 15.408L14.3671 13.6699L15.3295 11.4708C15.357 11.3313 15.8371 10.2656 15.9323 10.0372C16.1079 9.62699 17.7196 5.94779 17.7767 5.74057H14.2318C14.1408 5.79978 14.1175 6.00488 14.0837 6.10849L12.2562 11.8958Z" fill="#ED1C24"/>
<path fill-rule="evenodd" clip-rule="evenodd" d="M16.203 22.0226L16.5668 20.2268C15.0206 20.009 13.9271 20.9058 13.1234 20.9375C12.2287 20.9692 11.6703 19.9688 9.72223 20.2395C8.97983 20.3432 8.21204 20.6245 7.64941 20.9417V22.8263C7.75517 22.7946 7.96034 22.6529 8.09147 22.5894C8.24376 22.5175 8.40663 22.4392 8.57161 22.3737C8.89945 22.2425 9.25268 22.1283 9.62917 22.0649C10.6592 21.8935 11.0949 22.1283 11.8352 22.5238C12.5375 22.8982 13.2947 22.9532 14.0667 22.6233C15.1264 22.1706 14.9233 22.1156 16.2051 22.0226H16.203Z" fill="#00AEEE"/>
<path fill-rule="evenodd" clip-rule="evenodd" d="M15.3296 11.4707L14.3672 13.6704C14.5702 13.6112 14.786 13.461 15.1794 13.3532C16.7594 12.9238 17.8296 13.6577 17.9608 13.6598L21.0319 12.4225L20.5264 13.7233C20.8204 13.645 21.216 13.0718 22.5527 13.2622C23.1851 13.3532 23.6589 13.5604 24.1666 13.8925C24.2321 13.9369 24.2892 13.9877 24.3527 14.0236C24.3717 13.4843 24.3527 12.9238 24.3548 12.3823C24.3569 12.1179 24.4119 12.1391 24.027 11.9043C23.8704 11.807 23.6483 11.7076 23.458 11.642C22.6775 11.3734 21.3725 11.255 20.647 11.6526C20.2472 11.8705 20.059 12.0989 19.4794 12.1327C18.976 12.1645 18.5023 12.0375 18.0856 11.881C17.0238 11.4792 16.6113 11.3057 15.3275 11.4707H15.3296Z" fill="#00AEEE"/>
<path fill-rule="evenodd" clip-rule="evenodd" d="M17.7978 20.5737C17.7132 20.745 17.1929 22.0353 17.1781 22.1558C17.8169 22.3335 18.2145 22.7163 18.9252 22.8115C20.8182 23.0632 20.6744 21.6947 22.7388 22.0945C23.754 22.2912 24.1178 22.7206 24.3568 22.8284L24.3547 20.9312C23.9401 20.6266 23.5467 20.4172 22.9016 20.2882C22.339 20.1761 21.5437 20.1486 21.0044 20.3093C20.4185 20.4828 20.2112 20.8783 19.5259 20.9312C18.8808 20.9798 18.3139 20.7746 17.7978 20.5716V20.5737Z" fill="#00AEEE"/>
<path fill-rule="evenodd" clip-rule="evenodd" d="M19.4097 16.5436L18.6863 18.3647C19.2489 18.4747 19.7629 18.4705 20.2726 18.2611C20.7105 18.0834 20.9791 17.7894 21.5163 17.6773C22.0387 17.5694 22.6521 17.6456 23.1323 17.7937C23.3649 17.8656 23.5849 17.9544 23.788 18.0623C24.0291 18.1934 24.2723 18.3795 24.3569 18.424V16.5352C24.1962 16.3533 23.6209 16.0867 23.2951 15.9895C22.851 15.8604 22.3793 15.797 21.8843 15.8012C21.4021 15.8054 20.9325 15.89 20.5793 16.0931C20.0992 16.3723 20.0907 16.4611 19.4097 16.5436Z" fill="#00AEEE"/>
<path fill-rule="evenodd" clip-rule="evenodd" d="M11.7041 13.6474L12.2562 11.896C11.4228 11.5195 10.8792 11.308 9.85126 11.4244C9.12577 11.509 8.19089 11.8114 7.65364 12.1393L7.64941 14.0196C7.78055 13.9858 8.52084 13.4612 9.55302 13.2772C10.5387 13.1017 10.9744 13.2645 11.7041 13.6474Z" fill="#00AEEE"/>
<path fill-rule="evenodd" clip-rule="evenodd" d="M10.4604 17.618L11.0146 15.8582C10.3885 15.7461 9.72435 15.8096 9.13846 15.9598C8.70486 16.0698 7.94976 16.332 7.64941 16.5457V18.426C7.72767 18.3964 7.83978 18.3224 7.92015 18.2801C8.02379 18.223 8.11263 18.1743 8.22473 18.1235C8.95868 17.7851 9.61225 17.5948 10.4583 17.6201L10.4604 17.618Z" fill="#00AEEE"/>
<path fill-rule="evenodd" clip-rule="evenodd" d="M14.3671 13.67L13.6162 15.4087L17.9607 13.6595C17.8295 13.6574 16.7593 12.9234 15.1793 13.3528C14.7859 13.4607 14.568 13.6108 14.3671 13.67Z" fill="#FEF101"/>
<path fill-rule="evenodd" clip-rule="evenodd" d="M12.7808 18.4153C13.5147 18.5655 14.2465 18.1213 14.7901 17.8908C15.56 17.5629 16.2094 17.5968 17.0618 17.7173L17.324 16.4229L12.7808 18.4153Z" fill="#00AEEE"/>
</svg>
