<svg width="32" height="32" viewBox="0 0 32 32" fill="none" xmlns="http://www.w3.org/2000/svg">
<path d="M23.2001 4C23.5184 4 23.8236 4.12643 24.0486 4.35147C24.2737 4.57652 24.4001 4.88174 24.4001 5.2V14.8H22.0001V6.4H10.0001V25.6H14.8001V28H8.8001C8.48184 28 8.17661 27.8736 7.95157 27.6485C7.72653 27.4235 7.6001 27.1183 7.6001 26.8V5.2C7.6001 4.88174 7.72653 4.57652 7.95157 4.35147C8.17661 4.12643 8.48184 4 8.8001 4H23.2001ZM19.6001 16C20.4465 15.9999 21.2779 16.2236 22.01 16.6484C22.742 17.0732 23.3488 17.6841 23.7686 18.419C24.1885 19.1539 24.4065 19.9868 24.4007 20.8332C24.3948 21.6796 24.1653 22.5093 23.7353 23.2384L26.3873 25.8904L24.6917 27.5884L22.0373 24.9364C21.4014 25.3108 20.6878 25.5335 19.9518 25.5872C19.2159 25.641 18.4775 25.5244 17.794 25.2464C17.1104 24.9685 16.5002 24.5366 16.0106 23.9845C15.5211 23.4324 15.1654 22.7749 14.9712 22.063C14.7771 21.3511 14.7497 20.604 14.8911 19.8798C15.0326 19.1556 15.3391 18.4737 15.7869 17.8872C16.2347 17.3007 16.8116 16.8253 17.473 16.498C18.1343 16.1707 18.8622 16.0003 19.6001 16V16ZM19.6001 18.4C18.9636 18.4 18.3531 18.6529 17.903 19.1029C17.453 19.553 17.2001 20.1635 17.2001 20.8C17.2001 21.4365 17.453 22.047 17.903 22.4971C18.3531 22.9471 18.9636 23.2 19.6001 23.2C20.2366 23.2 20.8471 22.9471 21.2972 22.4971C21.7472 22.047 22.0001 21.4365 22.0001 20.8C22.0001 20.1635 21.7472 19.553 21.2972 19.1029C20.8471 18.6529 20.2366 18.4 19.6001 18.4Z" fill="#171717"/>
</svg>
