<svg width="32" height="32" viewBox="0 0 32 32" fill="none" xmlns="http://www.w3.org/2000/svg">
<path d="M4 23.2H12.4V25.6H4V23.2ZM4 14.8H14.8V17.2H4V14.8ZM4 6.4H28V8.8H4V6.4ZM26.4088 17.23L27.796 16.7608L28.996 18.8392L27.8968 19.8052C28.0352 20.4612 28.0352 21.1388 27.8968 21.7948L28.996 22.7608L27.796 24.8392L26.4088 24.37C25.9168 24.814 25.3312 25.156 24.6868 25.366L24.4 26.8H22L21.712 25.3648C21.0751 25.1567 20.4889 24.8174 19.9912 24.3688L18.604 24.8392L17.404 22.7608L18.5032 21.7948C18.3648 21.1388 18.3648 20.4612 18.5032 19.8052L17.404 18.8392L18.604 16.7608L19.9912 17.23C20.4832 16.786 21.0688 16.444 21.7132 16.234L22 14.8H24.4L24.688 16.2352C25.3312 16.444 25.9168 16.7872 26.4088 17.2312V17.23ZM23.2 23.2C23.8365 23.2 24.447 22.9471 24.8971 22.4971C25.3471 22.047 25.6 21.4365 25.6 20.8C25.6 20.1635 25.3471 19.553 24.8971 19.1029C24.447 18.6529 23.8365 18.4 23.2 18.4C22.5635 18.4 21.953 18.6529 21.5029 19.1029C21.0529 19.553 20.8 20.1635 20.8 20.8C20.8 21.4365 21.0529 22.047 21.5029 22.4971C21.953 22.9471 22.5635 23.2 23.2 23.2V23.2Z" fill="#171717"/>
</svg>
