<svg width="32" height="32" viewBox="0 0 32 32" fill="none" xmlns="http://www.w3.org/2000/svg">
<path d="M25.6002 28H6.4002C6.08194 28 5.77671 27.8736 5.55167 27.6485C5.32662 27.4235 5.2002 27.1183 5.2002 26.8V5.2C5.2002 4.88174 5.32662 4.57652 5.55167 4.35147C5.77671 4.12643 6.08194 4 6.4002 4H25.6002C25.9185 4 26.2237 4.12643 26.4487 4.35147C26.6738 4.57652 26.8002 4.88174 26.8002 5.2V26.8C26.8002 27.1183 26.6738 27.4235 26.4487 27.6485C26.2237 27.8736 25.9185 28 25.6002 28ZM24.4002 25.6V6.4H7.6002V25.6H24.4002ZM11.2002 12.4H20.8002V14.8H11.2002V12.4ZM11.2002 17.2H20.8002V19.6H11.2002V17.2Z" fill="#171717"/>
</svg>
