<svg width="24" height="22" viewBox="0 0 24 22" fill="none" xmlns="http://www.w3.org/2000/svg">
<path d="M1.2 0.199219H22.8C23.1183 0.199219 23.4235 0.325647 23.6485 0.550691C23.8736 0.775734 24 1.08096 24 1.39922V20.5992C24 20.9175 23.8736 21.2227 23.6485 21.4477C23.4235 21.6728 23.1183 21.7992 22.8 21.7992H1.2C0.88174 21.7992 0.576515 21.6728 0.351472 21.4477C0.126428 21.2227 0 20.9175 0 20.5992V1.39922C0 1.08096 0.126428 0.775734 0.351472 0.550691C0.576515 0.325647 0.88174 0.199219 1.2 0.199219V0.199219ZM21.6 9.79922H2.4V19.3992H21.6V9.79922ZM21.6 7.39922V2.59922H2.4V7.39922H21.6ZM14.4 14.5992H19.2V16.9992H14.4V14.5992Z" fill="#171717"/>
</svg>
