<svg width="32" height="32" viewBox="0 0 32 32" fill="none" xmlns="http://www.w3.org/2000/svg">
<path d="M15.9999 18.4V20.8C14.0903 20.8 12.259 21.5586 10.9087 22.9089C9.55847 24.2591 8.7999 26.0905 8.7999 28H6.3999C6.3999 25.454 7.41133 23.0122 9.21168 21.2118C11.012 19.4115 13.4538 18.4 15.9999 18.4V18.4ZM15.9999 17.2C12.0219 17.2 8.7999 13.978 8.7999 10C8.7999 6.02205 12.0219 2.80005 15.9999 2.80005C19.9779 2.80005 23.1999 6.02205 23.1999 10C23.1999 13.978 19.9779 17.2 15.9999 17.2ZM15.9999 14.8C18.6519 14.8 20.7999 12.652 20.7999 10C20.7999 7.34805 18.6519 5.20005 15.9999 5.20005C13.3479 5.20005 11.1999 7.34805 11.1999 10C11.1999 12.652 13.3479 14.8 15.9999 14.8ZM19.1139 24.1745C18.9617 23.5342 18.9617 22.8671 19.1139 22.2268L17.9235 21.5392L19.1235 19.4608L20.3139 20.1484C20.7917 19.6959 21.3693 19.3621 21.9999 19.1741V17.8H24.3999V19.1741C25.0383 19.3637 25.6143 19.702 26.0859 20.1484L27.2763 19.4608L28.4763 21.5392L27.2859 22.2268C27.4379 22.8668 27.4379 23.5333 27.2859 24.1733L28.4763 24.8609L27.2763 26.9392L26.0859 26.2516C25.6081 26.7042 25.0305 27.038 24.3999 27.226V28.6H21.9999V27.226C21.3693 27.038 20.7917 26.7042 20.3139 26.2516L19.1235 26.9392L17.9235 24.8609L19.1139 24.1745V24.1745ZM23.1999 25C23.6773 25 24.1351 24.8104 24.4727 24.4728C24.8103 24.1353 24.9999 23.6774 24.9999 23.2C24.9999 22.7227 24.8103 22.2648 24.4727 21.9273C24.1351 21.5897 23.6773 21.4 23.1999 21.4C22.7225 21.4 22.2647 21.5897 21.9271 21.9273C21.5895 22.2648 21.3999 22.7227 21.3999 23.2C21.3999 23.6774 21.5895 24.1353 21.9271 24.4728C22.2647 24.8104 22.7225 25 23.1999 25Z" fill="#171717"/>
</svg>
