<svg width="32" height="32" viewBox="0 0 32 32" fill="none" xmlns="http://www.w3.org/2000/svg">
<path d="M26.8 5.1904V26.8096C26.7974 27.1247 26.671 27.4263 26.4481 27.649C26.2251 27.8717 25.9235 27.9978 25.6084 28H6.39155C6.07573 28 5.77282 27.8746 5.54939 27.6514C5.32595 27.4282 5.20027 27.1254 5.19995 26.8096V5.1904C5.20246 4.87526 5.32885 4.57375 5.55181 4.35102C5.77477 4.12828 6.07641 4.0022 6.39155 4H25.6084C26.266 4 26.8 4.5328 26.8 5.1904V5.1904ZM24.4 6.4H7.59995V25.6H24.4V6.4ZM15.1516 17.3452L20.2432 12.2548L21.94 13.9516L15.1516 20.74L10.4836 16.072L12.1816 14.3752L15.1516 17.3452V17.3452Z" fill="#171717"/>
</svg>
