<svg width="43" height="40" viewBox="0 0 43 40" fill="none" xmlns="http://www.w3.org/2000/svg">
<path d="M34.1915 40C33.7246 40 33.2828 39.9351 32.8662 39.8055C32.4496 39.6686 32.1228 39.4993 31.8857 39.2975L32.2305 38.6923C32.4604 38.8653 32.7549 39.0165 33.114 39.1462C33.4732 39.2687 33.8503 39.33 34.2454 39.33C34.7841 39.33 35.172 39.2471 35.409 39.0814C35.6461 38.9085 35.7646 38.6815 35.7646 38.4006C35.7646 38.1916 35.6964 38.0295 35.5599 37.9142C35.4306 37.7918 35.2582 37.7017 35.0427 37.6441C34.8272 37.5792 34.5866 37.5252 34.3208 37.482C34.055 37.4387 33.7893 37.3883 33.5235 37.3307C33.2649 37.273 33.0278 37.1902 32.8124 37.0821C32.5969 36.9668 32.4209 36.8119 32.2844 36.6174C32.1551 36.4229 32.0905 36.1635 32.0905 35.8393C32.0905 35.5295 32.1767 35.2521 32.349 35.0072C32.5214 34.7622 32.7728 34.5713 33.1033 34.4344C33.4409 34.2903 33.8503 34.2183 34.3316 34.2183C34.6979 34.2183 35.0642 34.2687 35.4306 34.3696C35.7969 34.4632 36.0986 34.5893 36.3357 34.7478L36.0016 35.3638C35.7502 35.1909 35.4809 35.0684 35.1935 34.9964C34.9062 34.9171 34.6189 34.8775 34.3316 34.8775C33.8216 34.8775 33.4445 34.9675 33.2002 35.1477C32.9632 35.3206 32.8447 35.5439 32.8447 35.8177C32.8447 36.0338 32.9093 36.2031 33.0386 36.3256C33.1751 36.4481 33.3511 36.5454 33.5666 36.6174C33.7893 36.6822 34.0299 36.7363 34.2885 36.7795C34.5543 36.8227 34.8164 36.8768 35.075 36.9416C35.3408 36.9993 35.5814 37.0821 35.7969 37.1902C36.0196 37.291 36.1956 37.4387 36.3249 37.6333C36.4614 37.8206 36.5296 38.0691 36.5296 38.3789C36.5296 38.7104 36.4362 38.9985 36.2495 39.2435C36.0699 39.4812 35.8041 39.6686 35.4521 39.8055C35.1073 39.9351 34.6871 40 34.1915 40Z" fill="white"/>
<path d="M29.7791 39.946V34.2724H30.5441V39.946H29.7791ZM30.167 33.0187C30.0089 33.0187 29.8761 32.9647 29.7683 32.8566C29.6606 32.7486 29.6067 32.6189 29.6067 32.4676C29.6067 32.3163 29.6606 32.1902 29.7683 32.0894C29.8761 31.9813 30.0089 31.9272 30.167 31.9272C30.325 31.9272 30.4579 31.9777 30.5656 32.0785C30.6734 32.1794 30.7272 32.3055 30.7272 32.4568C30.7272 32.6153 30.6734 32.7486 30.5656 32.8566C30.4651 32.9647 30.3322 33.0187 30.167 33.0187Z" fill="white"/>
<path d="M25.385 34.2183C25.8447 34.2183 26.247 34.3083 26.5918 34.4884C26.9438 34.6613 27.2167 34.9279 27.4107 35.2882C27.6118 35.6484 27.7123 36.1023 27.7123 36.6498V39.9459H26.9473V36.7255C26.9473 36.1275 26.7965 35.6772 26.4948 35.3746C26.2003 35.0648 25.7837 34.9099 25.245 34.9099C24.8427 34.9099 24.4907 34.9928 24.189 35.1585C23.8945 35.317 23.6647 35.5511 23.4995 35.8609C23.3414 36.1635 23.2624 36.5309 23.2624 36.9632V39.9459H22.4974V34.2723H23.2301V35.8285L23.1116 35.5367C23.2912 35.126 23.5785 34.8054 23.9736 34.5749C24.3686 34.3371 24.8391 34.2183 25.385 34.2183Z" fill="white"/>
<path d="M18.7561 40C18.2892 40 17.8474 39.9351 17.4308 39.8055C17.0142 39.6686 16.6874 39.4993 16.4503 39.2975L16.7951 38.6923C17.025 38.8653 17.3195 39.0165 17.6786 39.1462C18.0378 39.2687 18.4149 39.33 18.81 39.33C19.3487 39.33 19.7366 39.2471 19.9736 39.0814C20.2107 38.9085 20.3292 38.6815 20.3292 38.4006C20.3292 38.1916 20.2609 38.0295 20.1245 37.9142C19.9952 37.7918 19.8228 37.7017 19.6073 37.6441C19.3918 37.5792 19.1512 37.5252 18.8854 37.482C18.6196 37.4387 18.3538 37.3883 18.0881 37.3307C17.8295 37.273 17.5924 37.1902 17.3769 37.0821C17.1614 36.9668 16.9855 36.8119 16.849 36.6174C16.7197 36.4229 16.655 36.1635 16.655 35.8393C16.655 35.5295 16.7412 35.2521 16.9136 35.0072C17.086 34.7622 17.3374 34.5713 17.6678 34.4344C18.0055 34.2903 18.4149 34.2183 18.8962 34.2183C19.2625 34.2183 19.6288 34.2687 19.9952 34.3696C20.3615 34.4632 20.6632 34.5893 20.9002 34.7478L20.5662 35.3638C20.3148 35.1909 20.0454 35.0684 19.7581 34.9964C19.4708 34.9171 19.1835 34.8775 18.8962 34.8775C18.3862 34.8775 18.009 34.9675 17.7648 35.1477C17.5278 35.3206 17.4093 35.5439 17.4093 35.8177C17.4093 36.0338 17.4739 36.2031 17.6032 36.3256C17.7397 36.4481 17.9157 36.5454 18.1312 36.6174C18.3538 36.6822 18.5945 36.7363 18.8531 36.7795C19.1188 36.8227 19.381 36.8768 19.6396 36.9416C19.9054 36.9993 20.146 37.0821 20.3615 37.1902C20.5842 37.291 20.7602 37.4387 20.8895 37.6333C21.0259 37.8206 21.0942 38.0691 21.0942 38.3789C21.0942 38.7104 21.0008 38.9985 20.814 39.2435C20.6345 39.4812 20.3687 39.6686 20.0167 39.8055C19.6719 39.9351 19.2517 40 18.7561 40Z" fill="white"/>
<path d="M14.3429 39.946V34.2724H15.1079V39.946H14.3429ZM14.7308 33.0187C14.5728 33.0187 14.4399 32.9647 14.3322 32.8566C14.2244 32.7486 14.1705 32.6189 14.1705 32.4676C14.1705 32.3163 14.2244 32.1902 14.3322 32.0894C14.4399 31.9813 14.5728 31.9272 14.7308 31.9272C14.8888 31.9272 15.0217 31.9777 15.1295 32.0785C15.2372 32.1794 15.2911 32.3055 15.2911 32.4568C15.2911 32.6153 15.2372 32.7486 15.1295 32.8566C15.0289 32.9647 14.896 33.0187 14.7308 33.0187Z" fill="white"/>
<path d="M9.96057 40C9.46493 40 9.01958 39.8884 8.62452 39.665C8.22945 39.4345 7.91698 39.1031 7.68713 38.6708C7.45727 38.2385 7.34234 37.7162 7.34234 37.1038C7.34234 36.4842 7.45727 35.9618 7.68713 35.5368C7.92417 35.1045 8.24022 34.7767 8.63529 34.5533C9.03036 34.33 9.47212 34.2183 9.96057 34.2183C10.4993 34.2183 10.9806 34.3408 11.4044 34.5858C11.8353 34.8235 12.173 35.1585 12.4172 35.5908C12.6614 36.0231 12.7835 36.5274 12.7835 37.1038C12.7835 37.6729 12.6614 38.1773 12.4172 38.6167C12.173 39.049 11.8353 39.3876 11.4044 39.6326C10.9806 39.8776 10.4993 40 9.96057 40ZM7.04065 39.946V31.9272H7.80565V35.9474L7.6979 37.093L7.77332 38.2385V39.946H7.04065ZM9.90669 39.3192C10.3089 39.3192 10.6681 39.2291 10.9842 39.049C11.3002 38.8617 11.5516 38.6023 11.7384 38.2709C11.9251 37.9323 12.0185 37.5433 12.0185 37.1038C12.0185 36.6571 11.9251 36.268 11.7384 35.9366C11.5516 35.6052 11.3002 35.3494 10.9842 35.1693C10.6681 34.982 10.3089 34.8884 9.90669 34.8884C9.50444 34.8884 9.1417 34.982 8.81846 35.1693C8.5024 35.3494 8.251 35.6052 8.06424 35.9366C7.88466 36.268 7.79487 36.6571 7.79487 37.1038C7.79487 37.5433 7.88466 37.9323 8.06424 38.2709C8.251 38.6023 8.5024 38.8617 8.81846 39.049C9.1417 39.2291 9.50444 39.3192 9.90669 39.3192Z" fill="white"/>
<path d="M0.0128174 0V5.22804V10.421V15.6139H5.22754V10.421V5.22804V0H0.0128174Z" fill="url(#paint0_linear_3686_2412)"/>
<path d="M39.9231 8.20095C37.8872 6.16587 35.2192 5.146 32.5488 5.146C29.8785 5.146 27.2129 6.16587 25.1745 8.20095L21.4874 11.8898L17.8002 8.20095C13.7283 4.12846 7.12593 4.12846 3.05397 8.20095C-1.01799 12.2781 -1.01799 18.8816 3.05397 22.9541C7.12593 27.0266 13.7283 27.0266 17.8002 22.9541L20.5779 20.1751L17.8002 15.5763L21.4874 19.2652L25.1745 22.9517C29.2488 27.0242 35.8489 27.0242 39.9208 22.9517C43.9928 18.8792 43.9928 12.2734 39.9208 8.19861L39.9231 8.20095ZM14.1178 19.2675C13.1336 20.2523 11.8229 20.795 10.4306 20.795C9.0383 20.795 7.72763 20.2523 6.74345 19.2675C5.75928 18.2804 5.21822 16.9705 5.21822 15.5787C5.21822 14.1869 5.75928 12.8769 6.74345 11.8898C7.72763 10.905 9.03597 10.3623 10.4306 10.3623C11.8252 10.3623 13.1336 10.905 14.1178 11.8898L17.8049 15.5787L14.1178 19.2675ZM36.236 19.2675C35.2518 20.2523 33.9412 20.795 32.5488 20.795C31.1565 20.795 29.8459 20.2523 28.8617 19.2675L25.1745 15.5787L28.8617 11.8898C29.8459 10.905 31.1565 10.3623 32.5488 10.3623C33.9412 10.3623 35.2518 10.905 36.236 11.8898C37.2202 12.8769 37.7659 14.1845 37.7659 15.5787C37.7659 16.9728 37.2225 18.2828 36.236 19.2675Z" fill="url(#paint1_linear_3686_2412)"/>
<path d="M21.4712 11.8688L25.3822 7.92267C25.3822 7.92267 28.1202 5.13438 32.5513 5.13672C34.7645 5.13672 37.6121 5.88759 39.9256 8.20571C39.9256 8.20571 43.7807 11.6817 42.8571 17.2021C42.8571 17.2021 42.3954 21.5366 38.4797 24.1986C37.5281 24.8465 33.3886 27.3144 28.3534 25.1272C28.3534 25.1272 38.3794 22.1986 37.724 15.0946C37.4395 12.0232 34.7365 10.4349 32.7169 10.3741C32.7169 10.3741 30.5363 10.2151 28.8665 11.8993L25.1887 15.5858L21.4735 11.8688H21.4712Z" fill="url(#paint2_linear_3686_2412)"/>
<path d="M20.5919 20.1913L18.6259 22.1562C18.6259 22.1562 16.0511 25.3399 12.0562 25.9293C8.06115 26.5188 5.20659 24.6685 5.20659 24.6685C5.20659 24.6685 1.53343 22.8697 0.297379 18.161C0.297379 18.161 -0.0011381 17.1317 0.0058584 15.6042C0.0058584 15.6042 4.16644 20.7949 10.405 20.7949C10.405 20.7949 12.406 20.9282 14.0991 19.3071L17.8073 15.5762L20.5942 20.1913H20.5919Z" fill="url(#paint3_linear_3686_2412)"/>
<path d="M17.8049 15.5762L20.5919 20.1913L21.4898 19.2674L17.8049 15.5762Z" fill="#1253A5"/>
<defs>
<linearGradient id="paint0_linear_3686_2412" x1="2.62018" y1="26.3601" x2="2.62018" y2="1.09239" gradientUnits="userSpaceOnUse">
<stop offset="0.42" stop-color="#6FC05E"/>
<stop offset="0.53" stop-color="#73C15C"/>
<stop offset="0.67" stop-color="#81C556"/>
<stop offset="0.81" stop-color="#98CC4D"/>
<stop offset="0.95" stop-color="#B8D540"/>
<stop offset="0.97" stop-color="#BBD63F"/>
</linearGradient>
<linearGradient id="paint1_linear_3686_2412" x1="44.1654" y1="26.002" x2="0.571604" y2="6.0801" gradientUnits="userSpaceOnUse">
<stop offset="0.09" stop-color="#1253A5"/>
<stop offset="0.31" stop-color="#348BB7"/>
<stop offset="0.48" stop-color="#4BB0C4"/>
<stop offset="0.57" stop-color="#54BFC9"/>
<stop offset="1" stop-color="#BBD63F"/>
</linearGradient>
<linearGradient id="paint2_linear_3686_2412" x1="8.41807" y1="-0.327575" x2="39.7742" y2="20.1055" gradientUnits="userSpaceOnUse">
<stop offset="0.35" stop-color="#1253A5"/>
<stop offset="0.36" stop-color="#1156A5"/>
<stop offset="0.64" stop-color="#048AAC"/>
<stop offset="0.78" stop-color="#009FAF"/>
<stop offset="1" stop-color="#54BFC9"/>
</linearGradient>
<linearGradient id="paint3_linear_3686_2412" x1="26.9703" y1="14.1025" x2="5.59583" y2="20.9284" gradientUnits="userSpaceOnUse">
<stop stop-color="#009FAF"/>
<stop offset="0.16" stop-color="#1BA9B7"/>
<stop offset="0.35" stop-color="#34B2BF"/>
<stop offset="0.54" stop-color="#46B9C4"/>
<stop offset="0.75" stop-color="#50BDC7"/>
<stop offset="1" stop-color="#54BFC9"/>
</linearGradient>
</defs>
</svg>
