<svg width="32" height="32" viewBox="0 0 32 32" fill="none" xmlns="http://www.w3.org/2000/svg">
<path d="M5.2 5.2H26.8C27.1183 5.2 27.4235 5.32643 27.6485 5.55147C27.8736 5.77652 28 6.08174 28 6.4V25.6C28 25.9183 27.8736 26.2235 27.6485 26.4485C27.4235 26.6736 27.1183 26.8 26.8 26.8H5.2C4.88174 26.8 4.57652 26.6736 4.35147 26.4485C4.12643 26.2235 4 25.9183 4 25.6V6.4C4 6.08174 4.12643 5.77652 4.35147 5.55147C4.57652 5.32643 4.88174 5.2 5.2 5.2V5.2ZM25.6 14.8H6.4V24.4H25.6V14.8ZM25.6 12.4V7.6H6.4V12.4H25.6ZM18.4 19.6H23.2V22H18.4V19.6Z" fill="#171717"/>
</svg>
