<svg width="148" height="148" viewBox="0 0 148 148" fill="none" xmlns="http://www.w3.org/2000/svg">
<path style="mix-blend-mode:multiply" d="M105.219 102.016H98.9172L80.9028 84.0045L79.4575 85.4642C77.0913 87.8311 73.8989 89.1873 70.5527 89.2471C67.2065 89.307 63.9676 88.0658 61.5183 85.7851L56.8933 81.4781L70.8637 67.5048C72.2559 68.059 73.52 68.8922 74.5782 69.9532L63.1689 81.3596L64.4783 82.5794C66.0982 84.0831 68.2379 84.9006 70.4478 84.8602C72.6577 84.8198 74.766 83.9246 76.3299 82.3626L80.8797 77.8099L101.53 98.4605C102.039 98.7958 101.906 98.7062 105.219 102.016Z" fill="url(#paint0_linear_1131_1059)"/>
<path d="M63.1833 81.3682L74.5146 70.037C75.5363 69.0146 76.7493 68.2035 78.0845 67.65C79.4197 67.0965 80.8508 66.8114 82.2962 66.811H117.359V97.6424H100.73L80.9058 77.8185L76.353 82.3828C74.7892 83.9451 72.6805 84.8402 70.4704 84.8801C68.2603 84.92 66.1207 84.1015 64.5015 82.5967L63.1833 81.3682Z" fill="#DEE1EC"/>
<path d="M84.6289 82.7702L80.293 78.4342L81.5215 77.2086L85.8574 81.5446C87.9367 83.619 90.7539 84.784 93.691 84.784C96.6281 84.784 99.4453 83.619 101.525 81.5446L102.707 80.3594L103.935 81.5879L102.75 82.7702C100.345 85.1689 97.0865 86.5159 93.6896 86.5159C90.2926 86.5159 87.0342 85.1689 84.6289 82.7702Z" fill="#5E6175"/>
<path d="M41.2349 109.971C42.1019 110.836 43.2766 111.322 44.5013 111.322C45.726 111.322 46.9007 110.836 47.7677 109.971L52.2106 105.525C52.6713 105.103 53.0417 104.592 53.2995 104.023C53.5573 103.454 53.6972 102.839 53.7107 102.214C53.7241 101.59 53.611 100.969 53.378 100.389C53.145 99.8099 52.7969 99.2835 52.3549 98.8421C51.9129 98.4006 51.3861 98.0533 50.8061 97.8211C50.2262 97.5888 49.6053 97.4765 48.9807 97.4908C48.3562 97.5051 47.7411 97.6458 47.1724 97.9044C46.6037 98.1629 46.0933 98.534 45.672 98.9953L41.2262 103.438C40.3624 104.306 39.8783 105.482 39.8799 106.706C39.8815 107.931 40.3688 109.105 41.2349 109.971Z" fill="#DEE1EC"/>
<path d="M49.4789 114.79C50.3458 115.654 51.5199 116.139 52.7438 116.139C53.9678 116.139 55.1419 115.654 56.0088 114.79L60.4604 110.338C60.9305 109.919 61.3102 109.409 61.576 108.838C61.8419 108.267 61.9884 107.648 62.0065 107.018C62.0246 106.389 61.9139 105.762 61.6813 105.177C61.4487 104.592 61.0991 104.06 60.6538 103.615C60.2085 103.169 59.6769 102.82 59.0917 102.587C58.5065 102.355 57.8799 102.244 57.2504 102.262C56.6209 102.28 56.0017 102.427 55.4309 102.692C54.86 102.958 54.3494 103.338 53.9304 103.808L49.4789 108.26C48.6148 109.127 48.1296 110.301 48.1296 111.525C48.1296 112.749 48.6148 113.923 49.4789 114.79Z" fill="#DEE1EC"/>
<path d="M57.5553 119.773C58.4222 120.637 59.5963 121.122 60.8202 121.122C62.0442 121.122 63.2183 120.637 64.0852 119.773L69.034 114.824C69.8194 113.943 70.238 112.794 70.2041 111.614C70.1701 110.434 69.6862 109.312 68.8514 108.477C68.0166 107.642 66.8941 107.158 65.714 107.124C64.5339 107.09 63.3855 107.509 62.504 108.294L57.5553 113.243C56.6912 114.11 56.2061 115.284 56.2061 116.508C56.2061 117.732 56.6912 118.906 57.5553 119.773Z" fill="#DEE1EC"/>
<path d="M66.3168 124.074C67.1837 124.938 68.3577 125.424 69.5817 125.424C70.8057 125.424 71.9798 124.938 72.8467 124.074L77.1248 119.796C77.9157 118.915 78.3387 117.765 78.3068 116.581C78.2748 115.398 77.7903 114.272 76.9531 113.435C76.1158 112.598 74.9896 112.114 73.8062 112.083C72.6228 112.051 71.4725 112.475 70.592 113.266L66.3168 117.544C65.4527 118.411 64.9675 119.585 64.9675 120.809C64.9675 122.033 65.4527 123.207 66.3168 124.074Z" fill="#DEE1EC"/>
<path d="M106.635 109.971C105.768 110.836 104.594 111.322 103.369 111.322C102.144 111.322 100.97 110.836 100.102 109.971L98.3912 108.26C98.8641 108.678 99.2465 109.188 99.5147 109.76C99.7829 110.331 99.9313 110.951 99.9507 111.582C99.9702 112.213 99.8603 112.841 99.6278 113.428C99.3954 114.015 99.0453 114.548 98.599 114.994C98.1528 115.441 97.6199 115.791 97.0332 116.024C96.4464 116.257 95.8183 116.367 95.1874 116.348C94.5564 116.328 93.9361 116.18 93.3646 115.912C92.7931 115.644 92.2825 115.262 91.8642 114.79L90.3177 113.243C91.1149 114.123 91.5432 115.276 91.514 116.462C91.4848 117.649 91.0002 118.779 90.1607 119.619C89.3213 120.458 88.1911 120.943 87.0042 120.972C85.8174 121.001 84.6647 120.573 83.7849 119.776L81.5563 117.541C82.0237 117.961 82.4007 118.472 82.6643 119.042C82.928 119.612 83.0727 120.23 83.0896 120.858C83.1066 121.486 82.9954 122.111 82.7629 122.694C82.5305 123.278 82.1815 123.808 81.7374 124.253C81.2933 124.697 80.7633 125.046 80.1798 125.279C79.5963 125.511 78.9715 125.623 78.3436 125.606C77.7156 125.59 77.0976 125.445 76.5272 125.182C75.9569 124.918 75.4462 124.542 75.0263 124.074L73.9366 122.985L77.1162 119.805C77.9017 118.923 78.3203 117.775 78.2864 116.595C78.2524 115.415 77.7685 114.292 76.9337 113.458C76.0988 112.623 74.9764 112.139 73.7963 112.105C72.6162 112.071 71.4677 112.489 70.5863 113.275C69.2537 114.608 69.3983 114.48 69.3607 114.46C71.8062 111.425 69.5977 106.944 65.7619 106.944C64.5369 106.945 63.3621 107.432 62.4955 108.297C60.7148 110.081 60.8594 109.962 60.8131 109.936C61.5167 109.009 61.8445 107.85 61.7311 106.691C61.6177 105.532 61.0715 104.459 60.2015 103.685C59.3315 102.912 58.2017 102.495 57.0376 102.517C55.8736 102.54 54.761 103.001 53.9219 103.808L52.2945 105.436C52.9101 104.779 53.3205 103.956 53.4755 103.069C53.6305 102.182 53.5232 101.27 53.1669 100.443C52.8106 99.6159 52.2207 98.9111 51.4696 98.4147C50.7184 97.9183 49.8388 97.6519 48.9384 97.6482H30.5078V66.7359H66.8054C69.7202 66.7366 72.5156 67.8936 74.5783 69.9531L63.1719 81.3595L64.4784 82.5765C66.0977 84.0813 68.2372 84.8997 70.4474 84.8599C72.6575 84.82 74.7661 83.9248 76.33 82.3626L80.8827 77.8099L101.53 98.4605C102.025 98.8045 101.663 98.4836 106.612 103.432C107.482 104.297 107.973 105.471 107.977 106.697C107.982 107.923 107.499 109.101 106.635 109.971Z" fill="#DEE1EC"/>
<path style="mix-blend-mode:multiply" d="M105.219 102.016C101.187 102.016 97.3204 100.414 94.4686 97.5644L80.9087 84.0045L79.4634 85.4642C77.0972 87.8311 73.9048 89.1873 70.5586 89.2471C67.2123 89.307 63.9735 88.0658 61.5242 85.7851L56.8992 81.4781L70.8696 67.5048C72.2597 68.0597 73.5217 68.8929 74.5782 69.9532L63.1689 81.3596L64.4784 82.5794C66.0983 84.0831 68.2379 84.9006 70.4479 84.8602C72.6578 84.8198 74.7661 83.9246 76.33 82.3626L80.8798 77.8099L101.53 98.4605C102.039 98.7958 101.906 98.7062 105.219 102.016Z" fill="url(#paint1_linear_1131_1059)"/>
<path d="M118.227 98.5096H100.363L80.9001 79.0442L76.9602 82.9812C75.2407 84.713 72.914 85.7064 70.474 85.7507C68.034 85.7949 65.6728 84.8865 63.8917 83.2182L61.929 81.3885L73.8933 69.4242C74.9927 68.3216 76.2993 67.4475 77.7381 66.8522C79.1768 66.2568 80.7191 65.9521 82.2761 65.9554H118.227V98.5096ZM101.082 96.7753H116.492V67.6782H82.2963C80.9642 67.6745 79.6446 67.9352 78.414 68.4453C77.1834 68.9554 76.0664 69.7047 75.1275 70.6498L64.4322 81.3451L65.0797 81.9463C66.5323 83.3076 68.4583 84.0492 70.4487 84.0136C72.4392 83.978 74.3374 83.168 75.7404 81.7556L80.9059 76.6016L101.082 96.7753Z" fill="#5E6175"/>
<path d="M44.5157 112.191C43.7948 112.194 43.0804 112.054 42.4143 111.778C41.7483 111.502 41.1439 111.096 40.6365 110.584C39.6092 109.554 39.0322 108.159 39.0322 106.705C39.0322 105.25 39.6092 103.855 40.6365 102.825L45.0823 98.3825C45.5805 97.8266 46.1869 97.3781 46.8643 97.0644C47.5417 96.7508 48.2759 96.5785 49.0221 96.5581C49.7683 96.5377 50.5108 96.6697 51.2043 96.9459C51.8978 97.2221 52.5278 97.6368 53.0556 98.1647C53.5835 98.6925 53.9982 99.3224 54.2744 100.016C54.5506 100.709 54.6826 101.452 54.6622 102.198C54.6418 102.944 54.4695 103.679 54.1558 104.356C53.8422 105.033 53.3937 105.64 52.8378 106.138L48.3949 110.584C47.8866 111.095 47.282 111.5 46.6162 111.776C45.9504 112.051 45.2364 112.193 44.5157 112.191ZM46.3079 99.6081L41.8506 104.063C39.4947 106.415 41.1771 110.465 44.5013 110.465C44.9942 110.467 45.4826 110.37 45.9381 110.182C46.3935 109.993 46.8071 109.716 47.1549 109.367L51.5978 104.921C52.2313 104.204 52.5677 103.273 52.5383 102.317C52.5089 101.36 52.1159 100.452 51.4394 99.7751C50.763 99.0986 49.854 98.7056 48.8978 98.6762C47.9416 98.6468 47.0102 98.9832 46.2935 99.6167L46.3079 99.6081Z" fill="#5E6175"/>
<path d="M52.7423 117.01C52.0218 117.013 51.3078 116.873 50.6421 116.597C49.9765 116.321 49.3727 115.915 48.866 115.402C47.8387 114.373 47.2617 112.978 47.2617 111.523C47.2617 110.069 47.8387 108.674 48.866 107.644L53.3176 103.192C53.8168 102.64 54.4232 102.194 55.1 101.883C55.7768 101.572 56.5098 101.402 57.2544 101.383C57.9991 101.364 58.7397 101.497 59.4314 101.773C60.1231 102.05 60.7514 102.464 61.278 102.991C61.8046 103.517 62.2185 104.146 62.4946 104.838C62.7707 105.529 62.9032 106.27 62.8841 107.015C62.8649 107.759 62.6945 108.492 62.3831 109.169C62.0718 109.846 61.6261 110.452 61.0731 110.951L56.6216 115.402C56.1132 115.913 55.5086 116.318 54.8428 116.594C54.177 116.87 53.4631 117.011 52.7423 117.01ZM57.1968 103.323C56.7039 103.322 56.2158 103.418 55.7604 103.607C55.305 103.795 54.8913 104.072 54.5432 104.421L50.0916 108.873C49.4526 109.588 49.1116 110.522 49.1387 111.481C49.1657 112.44 49.5587 113.353 50.2371 114.031C50.9155 114.71 51.8278 115.104 52.787 115.131C53.7463 115.159 54.6797 114.818 55.3959 114.18L59.8475 109.728C60.3694 109.203 60.7244 108.534 60.8678 107.808C61.0111 107.081 60.9365 106.328 60.6533 105.643C60.37 104.959 59.8908 104.373 59.2758 103.961C58.6609 103.548 57.9375 103.326 57.1968 103.323Z" fill="#5E6175"/>
<path d="M60.8217 121.984C60.1018 121.989 59.3882 121.85 58.7226 121.575C58.057 121.301 57.4529 120.897 56.9454 120.386C55.9189 119.356 55.3425 117.962 55.3425 116.508C55.3425 115.054 55.9189 113.66 56.9454 112.63L61.8941 107.682C62.9401 106.744 64.3057 106.243 65.7099 106.281C67.1141 106.32 68.4502 106.894 69.4435 107.888C70.4368 108.881 71.0117 110.217 71.0501 111.621C71.0884 113.026 70.5873 114.391 69.6497 115.437L64.7009 120.386C64.1923 120.896 63.5875 121.3 62.9216 121.574C62.2557 121.849 61.5419 121.988 60.8217 121.984ZM65.7704 107.82C65.2775 107.819 64.7891 107.915 64.3337 108.104C63.8782 108.292 63.4646 108.569 63.1169 108.919L58.1681 113.868C57.5345 114.584 57.1982 115.516 57.2276 116.472C57.257 117.428 57.65 118.337 58.3264 119.013C59.0029 119.69 59.9119 120.083 60.868 120.112C61.8242 120.142 62.7556 119.805 63.4724 119.172L68.4212 114.223C70.803 111.83 69.0687 107.82 65.7704 107.82Z" fill="#5E6175"/>
<path d="M69.5802 126.294C68.8597 126.298 68.1457 126.158 67.48 125.882C66.8144 125.606 66.2106 125.199 65.7039 124.687C64.6775 123.658 64.1011 122.263 64.1011 120.809C64.1011 119.356 64.6775 117.961 65.7039 116.932L69.9791 112.653C70.4792 112.104 71.0856 111.661 71.7616 111.353C72.4376 111.044 73.1692 110.876 73.9121 110.858C74.655 110.841 75.3938 110.974 76.0836 111.25C76.7735 111.527 77.4001 111.94 77.9256 112.465C78.451 112.991 78.8644 113.618 79.1406 114.307C79.4169 114.997 79.5502 115.736 79.5327 116.479C79.5151 117.222 79.3469 117.953 79.0384 118.629C78.7298 119.305 78.2873 119.912 77.7376 120.412L73.4595 124.687C72.9516 125.199 72.3471 125.604 71.6812 125.88C71.0152 126.156 70.3011 126.297 69.5802 126.294ZM73.8584 112.781C73.3654 112.779 72.8771 112.876 72.4217 113.064C71.9662 113.253 71.5526 113.53 71.2048 113.879L66.9295 118.157C66.296 118.874 65.9596 119.805 65.989 120.762C66.0184 121.718 66.4114 122.627 67.0879 123.303C67.7643 123.98 68.6733 124.373 69.6295 124.402C70.5857 124.431 71.5171 124.095 72.2338 123.461L76.512 119.183C78.8909 116.804 77.1595 112.781 73.8584 112.781Z" fill="#5E6175"/>
<path d="M78.2898 126.294C77.5694 126.297 76.8558 126.156 76.1903 125.88C75.5248 125.604 74.9209 125.199 74.4135 124.687L72.7109 122.985L76.5092 119.183C76.8593 118.837 77.137 118.424 77.326 117.969C77.5151 117.514 77.6118 117.025 77.6105 116.533C77.6105 113.18 73.5492 111.541 71.2078 113.879L69.5486 115.541L68.0455 114.712L68.693 113.908C69.2587 113.156 69.5218 112.219 69.4303 111.283C69.3387 110.346 68.8991 109.478 68.1984 108.85C67.4978 108.222 66.5869 107.88 65.646 107.891C64.7052 107.902 63.8027 108.266 63.117 108.91L61.0184 111L59.4834 110.22L60.1396 109.387C60.7054 108.633 60.9671 107.693 60.8726 106.755C60.7782 105.817 60.3345 104.949 59.6296 104.323C58.9248 103.696 58.0103 103.358 57.0676 103.375C56.1249 103.391 55.2228 103.762 54.5405 104.412L52.9159 106.037L51.673 104.829C52.1723 104.295 52.505 103.627 52.6305 102.907C52.756 102.187 52.6688 101.446 52.3795 100.774C52.0902 100.103 51.6114 99.5307 51.0017 99.1274C50.3921 98.7242 49.6781 98.5074 48.9471 98.5038H29.6406V65.8687H66.8054C68.3649 65.8629 69.9101 66.1666 71.3514 66.762C72.7928 67.3574 74.1018 68.2328 75.2027 69.3374L75.8155 69.9502L64.4322 81.3422L65.0797 81.9492C66.5323 83.3108 68.4586 84.0523 70.4493 84.0162C72.44 83.98 74.3381 83.169 75.7403 81.7555L80.9059 76.6016L102.111 97.813C102.69 98.2292 102.591 98.1801 107.248 102.837C108.186 103.782 108.748 105.035 108.831 106.363C108.914 107.692 108.512 109.005 107.699 110.059C106.886 111.113 105.719 111.836 104.413 112.094C103.107 112.351 101.752 112.126 100.6 111.46C100.612 112.414 100.375 113.354 99.9122 114.189C99.4498 115.024 98.7779 115.724 97.9627 116.22C97.1475 116.716 96.2172 116.991 95.2634 117.018C94.3096 117.045 93.3652 116.823 92.5233 116.374C92.6418 120.984 87.3924 123.626 83.7647 120.924C83.733 122.356 83.1428 123.719 82.12 124.723C81.0971 125.726 79.7227 126.29 78.2898 126.294ZM75.1564 122.985L75.6334 123.461C75.9807 123.811 76.3938 124.088 76.8487 124.276C77.3037 124.465 77.7916 124.561 78.2841 124.56C81.6401 124.56 83.2762 120.513 80.9348 118.154L82.1633 116.929C82.1835 116.958 81.9234 116.692 84.392 119.163C85.1072 119.808 86.0426 120.153 87.0052 120.128C87.9677 120.103 88.884 119.71 89.5648 119.029C90.2457 118.348 90.6392 117.432 90.6642 116.469C90.6892 115.507 90.3437 114.571 89.6991 113.856L90.9248 112.63L92.4712 114.177C92.8103 114.563 93.2252 114.876 93.6901 115.096C94.155 115.316 94.6601 115.438 95.1741 115.455C95.6881 115.472 96.2001 115.383 96.6784 115.194C97.1567 115.005 97.591 114.72 97.9546 114.356C98.3182 113.992 98.6032 113.557 98.792 113.079C98.9809 112.601 99.0695 112.089 99.0524 111.575C99.0354 111.061 98.913 110.556 98.6929 110.091C98.4727 109.626 98.1595 109.211 97.7727 108.873L98.9983 107.647C99.1486 107.786 98.4202 107.069 100.71 109.358C101.425 109.993 102.356 110.331 103.312 110.303C104.269 110.275 105.178 109.884 105.856 109.208C106.533 108.533 106.928 107.625 106.959 106.668C106.99 105.712 106.655 104.78 106.022 104.063C100.192 98.235 101.805 99.8162 100.941 99.0906L80.9059 79.0557L76.9659 82.9927C75.2477 84.7256 72.9212 85.7199 70.4813 85.7642C68.0413 85.8085 65.6803 84.8992 63.9003 83.2298L61.9347 81.4L73.3382 69.9965C71.513 68.4512 69.1969 67.6068 66.8054 67.6146H31.375V96.7781H48.9471C49.673 96.7781 50.3917 96.9219 51.0616 97.2014C51.7316 97.4808 52.3395 97.8903 52.8502 98.4061C53.3609 98.9219 53.7643 99.5339 54.0371 100.207C54.3099 100.879 54.4466 101.599 54.4393 102.325C55.2701 101.846 56.2121 101.592 57.1714 101.589C58.1308 101.587 59.074 101.836 59.9073 102.311C60.7406 102.786 61.4348 103.472 61.9208 104.299C62.4069 105.126 62.6678 106.066 62.6776 107.025C66.3458 104.516 71.3697 107.242 71.2541 111.702C72.4129 111.091 73.7522 110.914 75.0301 111.203C76.3081 111.493 77.4404 112.229 78.2228 113.28C79.0052 114.332 79.386 115.628 79.2965 116.935C79.207 118.242 78.6531 119.474 77.7348 120.409L75.1564 122.985Z" fill="#5E6175"/>
<path d="M38.8588 62.397H22.1567V101.076H38.8588V62.397Z" fill="#009FAF"/>
<path d="M128.529 62.397H111.827V101.076H128.529V62.397Z" fill="#009FAF"/>
<path d="M30.7505 75.5176C32.3151 75.5176 33.5833 74.2493 33.5833 72.6848C33.5833 71.1203 32.3151 69.852 30.7505 69.852C29.186 69.852 27.9177 71.1203 27.9177 72.6848C27.9177 74.2493 29.186 75.5176 30.7505 75.5176Z" fill="#F5F5F5"/>
<path d="M120.178 95.5323C121.742 95.5323 123.011 94.264 123.011 92.6995C123.011 91.135 121.742 89.8667 120.178 89.8667C118.613 89.8667 117.345 91.135 117.345 92.6995C117.345 94.264 118.613 95.5323 120.178 95.5323Z" fill="#F5F5F5"/>
<path d="M74.0665 58.4774C83.982 58.4774 92.0201 50.4392 92.0201 40.5237C92.0201 30.6081 83.982 22.57 74.0665 22.57C64.1509 22.57 56.1128 30.6081 56.1128 40.5237C56.1128 50.4392 64.1509 58.4774 74.0665 58.4774Z" fill="#F5F5F5"/>
<path d="M74.0667 59.3445C70.3441 59.3451 66.705 58.2418 63.6096 56.1741C60.5141 54.1064 58.1014 51.1671 56.6764 47.7281C55.2515 44.2891 54.8783 40.5048 55.6042 36.8537C56.3301 33.2026 58.1224 29.8488 60.7544 27.2164C63.3864 24.5839 66.74 22.7911 70.391 22.0647C74.0419 21.3382 77.8263 21.7108 81.2656 23.1352C84.7048 24.5596 87.6444 26.9719 89.7126 30.0671C91.7808 33.1622 92.8846 36.8012 92.8846 40.5237C92.8785 45.5129 90.8941 50.2961 87.3664 53.8243C83.8388 57.3525 79.0559 59.3377 74.0667 59.3445ZM74.0667 23.4401C70.687 23.4395 67.3831 24.4412 64.5728 26.3185C61.7625 28.1957 59.5721 30.8643 58.2785 33.9865C56.9849 37.1088 56.6463 40.5446 57.3055 43.8593C57.9647 47.174 59.5921 50.2188 61.9818 52.6085C64.3716 54.9983 67.4164 56.6257 70.7311 57.2849C74.0458 57.9441 77.4816 57.6055 80.6038 56.3119C83.7261 55.0183 86.3946 52.8278 88.2719 50.0175C90.1492 47.2072 91.1508 43.9033 91.1503 40.5237C91.1449 35.9945 89.3433 31.6523 86.1407 28.4497C82.9381 25.247 78.5959 23.4454 74.0667 23.4401Z" fill="#5E6175"/>
<path d="M71.2887 50.4414L63.5505 42.7032L66.2128 40.0381L71.2887 45.114L82.7125 33.6902L85.3776 36.3525L71.2887 50.4414Z" fill="#009FAF"/>
<path d="M103.866 38.6332H98.4143V40.3676H103.866V38.6332Z" fill="#5E6175"/>
<path d="M100.497 29.8354L96.6421 33.6903L97.8685 34.9167L101.723 31.0618L100.497 29.8354Z" fill="#5E6175"/>
<path d="M98.2056 43.9566L96.9792 45.183L100.834 49.0379L102.061 47.8115L98.2056 43.9566Z" fill="#5E6175"/>
<path d="M48.9297 38.506H43.478V40.2404H48.9297V38.506Z" fill="#5E6175"/>
<path d="M49.4734 43.953L45.6191 47.8086L46.8457 49.0348L50.7 45.1792L49.4734 43.953Z" fill="#5E6175"/>
<path d="M46.5081 29.835L45.2817 31.0614L49.1367 34.9163L50.3631 33.6899L46.5081 29.835Z" fill="#5E6175"/>
<path d="M125.67 108.633V106.898C126.806 106.898 127.069 106.898 127.37 106.898L127.436 108.633C127.107 108.638 126.991 108.633 125.67 108.633ZM122.78 108.633H121.045V106.898H122.78V108.633ZM118.155 108.633H116.42V106.898H118.155V108.633ZM113.53 108.633H111.827V106.898H113.53V108.633ZM130.506 108.078L129.974 106.43C130.478 106.265 130.969 106.06 131.44 105.817L132.238 107.358C131.681 107.645 131.102 107.886 130.506 108.078ZM134.784 105.566L133.605 104.297C133.994 103.934 134.353 103.542 134.68 103.123L136.05 104.184C135.668 104.679 135.244 105.141 134.784 105.566ZM137.611 101.487L136.004 100.831C136.207 100.34 136.367 99.8318 136.484 99.3132L138.172 99.6977C138.035 100.309 137.847 100.907 137.611 101.487ZM138.461 96.6365H136.727V94.9021H138.461V96.6365ZM138.461 92.0115H136.727V90.2771H138.461V92.0115ZM138.461 87.3865H136.727V85.6521H138.461V87.3865ZM138.461 82.7615H136.727V81.0271H138.461V82.7615ZM138.461 78.1365H136.727V76.4021H138.461V78.1365ZM138.461 73.5115H136.727V71.7771H138.461V73.5115ZM138.461 68.8865H136.727V67.1521H138.461V68.8865ZM136.605 64.406C136.522 63.8812 136.397 63.364 136.23 62.8596L137.874 62.3132C138.072 62.9071 138.221 63.5162 138.32 64.1343L136.605 64.406ZM135.059 60.4892C134.762 60.0485 134.429 59.6328 134.065 59.2463L135.325 58.0553C135.755 58.5099 136.146 58.9991 136.496 59.518L135.059 60.4892ZM132.003 57.5986C131.549 57.323 131.072 57.0861 130.578 56.8904L131.223 55.2774C131.804 55.5097 132.364 55.7891 132.9 56.1128L132.003 57.5986ZM128.012 56.2545C127.467 56.204 126.919 56.1857 126.373 56.1996V54.4652C126.98 54.4509 127.588 54.4721 128.194 54.5288L128.012 56.2545ZM123.482 56.1996H121.748V54.4652H123.482V56.1996ZM118.857 56.1996H117.123V54.4652H118.857V56.1996ZM114.232 56.1996H112.498V54.4652H114.232V56.1996ZM109.607 56.1996H107.873V54.4652H109.607V56.1996ZM104.982 56.1996H103.248V54.4652H104.982V56.1996ZM100.357 56.1996H98.6226V54.4652H100.357V56.1996ZM95.7319 56.1996H93.9976V54.4652H95.7319V56.1996Z" fill="#A9AFC4"/>
<path d="M22.8535 113.645C22.5017 113.221 22.2599 112.716 22.1497 112.176C22.0395 111.636 22.0642 111.078 22.2216 110.549C22.379 110.021 22.6642 109.54 23.0521 109.149C23.4399 108.757 23.9183 108.467 24.4449 108.305C24.9715 108.142 25.5301 108.112 26.0711 108.218C26.6121 108.323 27.1188 108.56 27.5463 108.907C27.9738 109.255 28.309 109.703 28.522 110.211C28.7351 110.719 28.8195 111.272 28.7677 111.821C28.7042 112.48 28.4472 113.105 28.0291 113.618C27.611 114.131 27.0506 114.508 26.4182 114.703C25.7859 114.898 25.11 114.902 24.4757 114.714C23.8414 114.525 23.2769 114.153 22.8535 113.645ZM25.429 109.887C25.1162 109.888 24.8103 109.98 24.5485 110.151C24.2867 110.322 24.0803 110.566 23.9543 110.852C23.8283 111.139 23.7882 111.456 23.8388 111.764C23.8894 112.073 24.0286 112.36 24.2394 112.592C24.4502 112.823 24.7235 112.988 25.0263 113.067C25.3291 113.146 25.6482 113.135 25.945 113.036C26.2418 112.937 26.5034 112.754 26.6981 112.509C26.8929 112.264 27.0123 111.968 27.042 111.656C27.0624 111.433 27.0362 111.208 26.965 110.995C26.8937 110.782 26.779 110.586 26.6282 110.42C26.4773 110.254 26.2936 110.121 26.0887 110.03C25.8837 109.939 25.662 109.891 25.4377 109.89L25.429 109.887Z" fill="#5E6175"/>
<path d="M10.1404 103.317C9.86586 102.985 9.67733 102.591 9.59155 102.169C9.50577 101.747 9.52537 101.31 9.64862 100.897C9.77187 100.485 9.99497 100.109 10.2982 99.8031C10.6013 99.4973 10.9753 99.271 11.3868 99.1442C11.7983 99.0174 12.2348 98.994 12.6575 99.0761C13.0802 99.1583 13.4762 99.3434 13.8103 99.6151C14.1444 99.8868 14.4063 100.237 14.5729 100.634C14.7395 101.031 14.8057 101.463 14.7654 101.892C14.7157 102.407 14.5147 102.896 14.1877 103.297C13.8607 103.698 13.4223 103.993 12.9278 104.145C12.4333 104.298 11.9047 104.3 11.4087 104.153C10.9127 104.005 10.4714 103.714 10.1404 103.317ZM12.1639 100.761C11.9918 100.759 11.8227 100.806 11.6773 100.898C11.5319 100.99 11.4165 101.123 11.3452 101.279C11.2739 101.436 11.2498 101.61 11.2759 101.78C11.302 101.95 11.3772 102.109 11.4922 102.237C11.6072 102.365 11.757 102.457 11.9233 102.501C12.0896 102.545 12.2652 102.54 12.4285 102.485C12.5918 102.431 12.7358 102.331 12.8429 102.196C12.9499 102.061 13.0153 101.898 13.031 101.727C13.0422 101.605 13.0281 101.482 12.9894 101.366C12.9507 101.25 12.8884 101.143 12.8063 101.053C12.7243 100.962 12.6243 100.889 12.5127 100.839C12.4012 100.789 12.2804 100.762 12.1581 100.761H12.1639Z" fill="#5E6175"/>
<path d="M16.7919 59.3446C16.2105 59.344 15.6425 59.1711 15.1594 58.8477C14.6763 58.5243 14.3 58.065 14.0779 57.5278C13.8559 56.9906 13.7981 56.3996 13.9118 55.8295C14.0256 55.2594 14.3058 54.7359 14.717 54.325C15.1283 53.9142 15.6521 53.6345 16.2223 53.5213C16.7925 53.4081 17.3834 53.4665 17.9204 53.6891C18.4574 53.9117 18.9164 54.2885 19.2393 54.7718C19.5622 55.2552 19.7345 55.8235 19.7345 56.4048C19.7337 57.1847 19.4234 57.9325 18.8716 58.4837C18.3198 59.0349 17.5718 59.3446 16.7919 59.3446ZM16.7919 55.1994C16.5536 55.2 16.3208 55.2712 16.123 55.404C15.9251 55.5367 15.7711 55.7252 15.6803 55.9455C15.5895 56.1658 15.566 56.4081 15.6129 56.6417C15.6597 56.8754 15.7747 57.0899 15.9434 57.2581C16.1121 57.4264 16.3269 57.541 16.5606 57.5872C16.7944 57.6335 17.0366 57.6095 17.2567 57.5181C17.4768 57.4268 17.6649 57.2723 17.7972 57.0742C17.9295 56.876 18.0001 56.6431 18.0001 56.4048C17.9971 56.0866 17.8683 55.7825 17.642 55.5589C17.4157 55.3353 17.1101 55.2102 16.7919 55.211V55.1994Z" fill="#5E6175"/>
<defs>
<linearGradient id="paint0_linear_1131_1059" x1="56.8846" y1="84.7618" x2="105.213" y2="84.7618" gradientUnits="userSpaceOnUse">
<stop stop-color="#CACFDD"/>
<stop offset="1" stop-color="#EEF0F1"/>
</linearGradient>
<linearGradient id="paint1_linear_1131_1059" x1="56.8847" y1="84.7618" x2="105.213" y2="84.7618" gradientUnits="userSpaceOnUse">
<stop stop-color="#CACFDD"/>
<stop offset="1" stop-color="#EEF0F1"/>
</linearGradient>
</defs>
</svg>
