<svg width="84" height="85" viewBox="0 0 84 85" fill="none" xmlns="http://www.w3.org/2000/svg">
<path d="M72.7692 2.01953H14.3077C11.0435 2.01953 7.91298 3.31623 5.60486 5.62439C3.2967 7.93252 2 11.063 2 14.3272V82.0195L17.3846 72.7888L32.7692 82.0195L37.7974 77.7418M72.7692 2.01953C70.3212 2.01953 67.9729 2.99205 66.2418 4.72316C64.5108 6.45424 63.5385 8.80218 63.5385 11.2503V38.2297M72.7692 2.01953C75.2172 2.01953 77.5655 2.99205 79.2966 4.72316C81.0277 6.45424 82 8.80218 82 11.2503V32.7888H71.4184" stroke="#5C5C5C" stroke-width="4" stroke-linecap="round" stroke-linejoin="round"/>
<path d="M15.3018 29.6953H30.7047M38.9196 29.6953H47.1345" stroke="#5C5C5C" stroke-width="4" stroke-linecap="round"/>
<path d="M15.3018 44.0742H27.2159" stroke="#5C5C5C" stroke-width="4" stroke-linecap="round"/>
<circle cx="61.8873" cy="64.0094" r="19.9625" fill="#F99C1C"/>
<path d="M61.4957 64.9972L61.6865 54.5508" stroke="#5C5C5C" stroke-width="4" stroke-linecap="round" stroke-linejoin="round"/>
<path d="M61.5088 73.4609C61.69 73.4609 61.8369 73.3141 61.8369 73.1328C61.8369 72.9516 61.69 72.8047 61.5088 72.8047" stroke="#5C5C5C" stroke-width="4" stroke-linecap="round" stroke-linejoin="round"/>
<path d="M61.5098 73.4609C61.3284 73.4609 61.1816 73.3141 61.1816 73.1328C61.1816 72.9516 61.3284 72.8047 61.5098 72.8047" stroke="#5C5C5C" stroke-width="4" stroke-linecap="round" stroke-linejoin="round"/>
</svg>
