<svg width="148" height="148" viewBox="0 0 148 148" fill="none" xmlns="http://www.w3.org/2000/svg">
<path d="M103.837 24.313H37.5463C33.477 24.313 30.1781 27.6119 30.1781 31.6813V121.45C30.1781 125.519 33.477 128.818 37.5463 128.818H103.837C107.906 128.818 111.205 125.519 111.205 121.45V31.6813C111.205 27.6119 107.906 24.313 103.837 24.313Z" fill="#DEE1EC"/>
<path d="M102.929 32.4617H38.451V120.663H102.929V32.4617Z" fill="#F5F5F5"/>
<path style="mix-blend-mode:multiply" d="M54.864 117.319C54.8714 121.325 53.8989 125.273 52.0312 128.818H37.5463C36.5783 128.818 35.6198 128.628 34.7255 128.257C33.8312 127.887 33.0186 127.344 32.3343 126.66C31.65 125.975 31.1074 125.162 30.7374 124.268C30.3674 123.373 30.1773 122.415 30.1781 121.447V92.6329C36.7231 92.6398 42.9981 95.2429 47.6261 99.8709C52.2541 104.499 54.8572 110.774 54.864 117.319Z" fill="url(#paint0_linear_1_1329)"/>
<path d="M104.276 129.685H37.1069C35.037 129.685 33.0518 128.863 31.5882 127.399C30.1245 125.935 29.3022 123.95 29.3022 121.88V31.2418C29.3022 29.1719 30.1245 27.1867 31.5882 25.7231C33.0518 24.2594 35.037 23.4371 37.1069 23.4371H104.276C106.346 23.4371 108.331 24.2594 109.795 25.7231C111.259 27.1867 112.081 29.1719 112.081 31.2418V121.886C112.08 123.955 111.257 125.939 109.793 127.401C108.33 128.863 106.345 129.685 104.276 129.685ZM37.1069 25.1773C35.497 25.1773 33.953 25.8168 32.8146 26.9552C31.6762 28.0936 31.0366 29.6377 31.0366 31.2476V121.886C31.0366 123.496 31.6762 125.04 32.8146 126.178C33.953 127.317 35.497 127.956 37.1069 127.956H104.276C105.886 127.956 107.43 127.317 108.569 126.178C109.707 125.04 110.347 123.496 110.347 121.886V31.2418C110.347 29.6319 109.707 28.0879 108.569 26.9495C107.43 25.8111 105.886 25.1715 104.276 25.1715L37.1069 25.1773Z" fill="#5E6175"/>
<path d="M82.3828 18.3612H75.6766V16.0487C75.6766 13.3633 73.6156 11.0508 70.9302 10.9265C70.2569 10.8945 69.5841 10.9993 68.9525 11.2346C68.3209 11.4699 67.7435 11.8308 67.2553 12.2955C66.7671 12.7602 66.3781 13.3191 66.112 13.9383C65.8458 14.5576 65.708 15.2244 65.7068 15.8984V18.3641H58.989C58.3351 18.3641 57.6876 18.493 57.0835 18.7433C56.4794 18.9936 55.9305 19.3605 55.4683 19.8231C55.006 20.2856 54.6394 20.8347 54.3894 21.4389C54.1394 22.0432 54.011 22.6907 54.0114 23.3447V28.4235H87.3721V23.3418C87.3724 22.6869 87.2436 22.0383 86.9929 21.4333C86.7422 20.8283 86.3745 20.2787 85.9111 19.8161C85.4476 19.3534 84.8974 18.9867 84.2919 18.7371C83.6865 18.4874 83.0377 18.3597 82.3828 18.3612ZM70.6787 17.494C70.3281 17.494 69.9854 17.39 69.694 17.1952C69.4025 17.0004 69.1754 16.7235 69.0414 16.3995C68.9073 16.0756 68.8724 15.7191 68.941 15.3753C69.0096 15.0315 69.1787 14.7158 69.4268 14.4681C69.6749 14.2204 69.9909 14.0519 70.3348 13.9838C70.6787 13.9158 71.0351 13.9513 71.3588 14.0858C71.6825 14.2204 71.9591 14.448 72.1534 14.7397C72.3478 15.0315 72.4512 15.3744 72.4506 15.725C72.4514 16.1932 72.2666 16.6426 71.9366 16.9747C71.6066 17.3068 71.1584 17.4946 70.6903 17.4969L70.6787 17.494Z" fill="#E1830E"/>
<path d="M77.6537 39.0407H63.7267C62.4098 39.0385 61.1476 38.5141 60.2167 37.5827C59.2858 36.6512 58.7621 35.3887 58.7606 34.0718V28.4206H60.495V34.0718C60.4958 34.9289 60.8364 35.7508 61.4422 36.3571C62.048 36.9635 62.8696 37.3048 63.7267 37.3064H77.6537C78.5114 37.3056 79.3337 36.9646 79.9401 36.3581C80.5466 35.7517 80.8876 34.9294 80.8884 34.0718V28.4206H82.6227V34.0718C82.6212 35.3892 82.0972 36.6521 81.1657 37.5837C80.2341 38.5152 78.9711 39.0392 77.6537 39.0407Z" fill="#5E6175"/>
<path d="M65.9872 89.2625H64.2528V87.5281H65.9872V89.2625ZM61.3622 89.2625H59.6278V87.5281H61.3622V89.2625ZM69.0628 88.9734L68.6495 87.2968C69.156 87.173 69.6489 86.9987 70.1208 86.7765L70.8579 88.349C70.2813 88.6173 69.6801 88.8293 69.0628 88.9821V88.9734ZM73.4623 86.5568L72.2656 85.311C72.643 84.9496 72.9847 84.5527 73.286 84.1258L74.7024 85.126C74.3367 85.6449 73.9214 86.127 73.4623 86.5655V86.5568ZM76.0784 82.2729L74.4162 81.7815C74.563 81.2817 74.6599 80.7685 74.7053 80.2495L76.4397 80.4056C76.3825 81.0415 76.2615 81.67 76.0784 82.2816V82.2729ZM76.4773 77.4369H74.7429V75.7026H76.4773V77.4369ZM76.4773 72.8119H74.7429V71.0776H76.4773V72.8119ZM76.4773 68.1869H74.7429V66.4526H76.4773V68.1869ZM76.4773 63.5619H74.7429V61.8276H76.4773V63.5619ZM76.4773 58.9369H74.7429V57.2026H76.4773V58.9369ZM76.4773 54.3466L74.7429 54.2801C74.7683 53.6459 74.8554 53.0157 75.003 52.3983L76.6883 52.8001C76.571 53.307 76.5023 53.8238 76.483 54.3437L76.4773 54.3466ZM77.6971 50.4096L76.2287 49.4846C76.5642 48.9471 76.9515 48.4436 77.3849 47.9815L78.6452 49.1724C78.2907 49.5555 77.9751 49.9729 77.7029 50.4183L77.6971 50.4096ZM80.7178 47.597L79.9027 46.0679C80.4625 45.7673 81.0513 45.5243 81.6602 45.3423L82.1602 47.0015C81.6627 47.1553 81.1815 47.3577 80.7236 47.6057L80.7178 47.597ZM107.89 44.929C107.895 47.2443 107.898 47.253 107.893 44.9376L107.89 44.929ZM104.999 46.6633H103.265V44.929H104.999V46.6633ZM100.374 46.6633H98.6397V44.929H100.374V46.6633ZM95.7491 46.6633H94.0147V44.929H95.7491V46.6633ZM91.1241 46.6633H89.3897V44.929H91.1241V46.6633ZM86.4991 46.6633H84.7647V44.929H86.4991V46.6633Z" fill="#A9AFC4"/>
<path d="M121.791 46.672H120.056V44.9376H121.791V46.672ZM117.166 46.672H115.431V44.9376H117.166V46.672Z" fill="#A9AFC4"/>
<path d="M30.1781 137.094C41.0978 137.094 49.95 128.242 49.95 117.322C49.95 106.402 41.0978 97.5499 30.1781 97.5499C19.2584 97.5499 10.4062 106.402 10.4062 117.322C10.4062 128.242 19.2584 137.094 30.1781 137.094Z" fill="#F5F5F5"/>
<path d="M30.1781 137.958C26.0958 137.959 22.1051 136.748 18.7106 134.481C15.316 132.213 12.6702 128.99 11.1078 125.218C9.54527 121.447 9.1363 117.297 9.93257 113.293C10.7288 109.289 12.6946 105.611 15.5812 102.725C18.4678 99.8383 22.1456 97.8725 26.1494 97.0763C30.1533 96.28 34.3034 96.6889 38.0748 98.2514C41.8462 99.8139 45.0695 102.46 47.3372 105.854C49.6048 109.249 50.8148 113.24 50.8143 117.322C50.8074 122.793 48.631 128.038 44.7625 131.906C40.8939 135.775 35.649 137.951 30.1781 137.958ZM30.1781 98.4171C26.439 98.4165 22.7837 99.5248 19.6744 101.602C16.5652 103.679 14.1417 106.631 12.7104 110.085C11.2791 113.54 10.9043 117.341 11.6334 121.008C12.3625 124.675 14.1628 128.044 16.8066 130.688C19.4503 133.333 22.8188 135.133 26.486 135.863C30.1532 136.593 33.9545 136.218 37.409 134.788C40.8636 133.357 43.8163 130.934 45.8937 127.825C47.9711 124.716 49.0799 121.061 49.0799 117.322C49.0738 112.31 47.0805 107.506 43.5371 103.962C39.9937 100.418 35.1896 98.424 30.1781 98.4171Z" fill="#5E6175"/>
<path d="M38.5089 109.341C38.0249 109.957 37.335 110.378 36.5656 110.527C35.7962 110.676 34.999 110.543 34.3201 110.151C33.6411 109.76 33.1259 109.137 32.869 108.397C32.6121 107.656 32.6307 106.848 32.9213 106.121C31.1175 105.676 29.2329 105.676 27.4291 106.121C27.7191 106.848 27.7374 107.655 27.4807 108.395C27.2241 109.135 26.7096 109.757 26.0314 110.149C25.3532 110.54 24.5568 110.674 23.7879 110.526C23.019 110.378 22.3291 109.959 21.8444 109.344C20.5609 110.685 19.6199 112.316 19.1012 114.099C19.8768 114.21 20.5861 114.598 21.0992 115.19C21.6123 115.782 21.8947 116.54 21.8947 117.323C21.8947 118.107 21.6123 118.864 21.0992 119.456C20.5861 120.049 19.8768 120.436 19.1012 120.548C19.625 122.329 20.5665 123.959 21.8473 125.303C22.3302 124.685 23.0198 124.263 23.7894 124.113C24.559 123.963 25.3568 124.096 26.0361 124.487C26.7155 124.879 27.2307 125.502 27.4872 126.243C27.7436 126.984 27.724 127.792 27.432 128.52C29.2358 128.964 31.1204 128.964 32.9242 128.52C32.6342 127.793 32.6158 126.985 32.8725 126.246C33.1292 125.506 33.6437 124.883 34.3218 124.492C35 124.101 35.7964 123.967 36.5653 124.114C37.3342 124.262 38.0242 124.682 38.5089 125.297C39.7933 123.956 40.7335 122.323 41.2492 120.539C40.4736 120.427 39.7642 120.04 39.2511 119.448C38.7381 118.855 38.4556 118.098 38.4556 117.315C38.4556 116.531 38.7381 115.774 39.2511 115.181C39.7642 114.589 40.4736 114.202 41.2492 114.09C40.7264 112.312 39.787 110.683 38.5089 109.341ZM32.3114 121.016C31.5806 121.438 30.7412 121.633 29.8993 121.578C29.0574 121.523 28.2507 121.219 27.5813 120.706C26.9119 120.192 26.4098 119.492 26.1385 118.693C25.8672 117.894 25.8388 117.032 26.057 116.217C26.2752 115.402 26.7302 114.67 27.3644 114.114C27.9986 113.557 28.7835 113.201 29.62 113.091C30.4565 112.981 31.3069 113.121 32.0638 113.493C32.8207 113.866 33.45 114.455 33.8723 115.186C34.1528 115.671 34.3349 116.207 34.4083 116.762C34.4817 117.318 34.4448 117.883 34.2999 118.424C34.1549 118.966 33.9047 119.473 33.5635 119.918C33.2223 120.363 32.7968 120.736 32.3114 121.016Z" fill="#E1830E"/>
<path d="M51.7219 91.812C53.6089 91.812 55.1386 90.2823 55.1386 88.3953C55.1386 86.5083 53.6089 84.9786 51.7219 84.9786C49.8349 84.9786 48.3052 86.5083 48.3052 88.3953C48.3052 90.2823 49.8349 91.812 51.7219 91.812Z" fill="#E1830E"/>
<path d="M51.7219 89.5631C52.3669 89.5631 52.8897 89.0402 52.8897 88.3953C52.8897 87.7503 52.3669 87.2275 51.7219 87.2275C51.0769 87.2275 50.5541 87.7503 50.5541 88.3953C50.5541 89.0402 51.0769 89.5631 51.7219 89.5631Z" fill="#F5F5F5"/>
<path d="M88.4019 71.9776L82.4028 77.9767L84.4018 79.9757L90.4009 73.9766L88.4019 71.9776Z" fill="#E1830E"/>
<path d="M84.4018 71.9768L82.4028 73.9758L88.4019 79.9748L90.4009 77.9758L84.4018 71.9768Z" fill="#E1830E"/>
<path d="M65.1495 53.0321L59.1504 59.0312L61.1494 61.0302L67.1485 55.0311L65.1495 53.0321Z" fill="#E1830E"/>
<path d="M61.1494 53.0272L59.1504 55.0262L65.1495 61.0253L67.1485 59.0263L61.1494 53.0272Z" fill="#E1830E"/>
<path d="M94.454 98.5211H73.682V102.447H94.454V98.5211Z" fill="#DEE1EC"/>
<path d="M94.454 108.089H65.2992V112.015H94.454V108.089Z" fill="#DEE1EC"/>
<path d="M132.171 38.1852C131.171 38.1178 130.171 38.3099 129.268 38.743C128.365 39.1761 127.589 39.8354 127.016 40.6568C126.442 41.4783 126.091 42.434 125.996 43.4313C125.901 44.4285 126.066 45.4334 126.473 46.3483C126.702 46.8628 131.784 54.7484 131.784 54.7484C134.073 51.193 137.149 46.3396 137.094 46.3396C137.47 45.4848 137.635 44.552 137.576 43.6198C137.516 42.6877 137.233 41.7837 136.75 40.984C136.267 40.1844 135.599 39.5126 134.802 39.0255C134.005 38.5384 133.103 38.2501 132.171 38.1852ZM131.784 46.1691C131.269 46.1691 130.766 46.0165 130.338 45.7306C129.91 45.4448 129.577 45.0385 129.38 44.5631C129.183 44.0877 129.132 43.5646 129.232 43.06C129.332 42.5553 129.58 42.0918 129.944 41.7279C130.308 41.3641 130.771 41.1163 131.276 41.0159C131.781 40.9155 132.304 40.9671 132.779 41.164C133.254 41.3609 133.661 41.6943 133.947 42.1222C134.233 42.55 134.385 43.053 134.385 43.5675C134.385 44.2575 134.111 44.9192 133.623 45.4071C133.135 45.895 132.474 46.1691 131.784 46.1691Z" fill="#E1830E"/>
<path d="M121.626 82.6719C121.075 82.6727 120.536 82.5067 120.081 82.1955C119.626 81.8843 119.276 81.4426 119.077 80.9286C118.878 80.4146 118.839 79.8523 118.966 79.3158C119.093 78.7794 119.379 78.2938 119.787 77.9232C120.195 77.5526 120.706 77.3142 121.252 77.2395C121.798 77.1648 122.354 77.2573 122.846 77.5047C123.339 77.7521 123.745 78.143 124.011 78.6257C124.277 79.1084 124.391 79.6604 124.337 80.209C124.271 80.8825 123.957 81.5072 123.456 81.9623C122.955 82.4173 122.303 82.6701 121.626 82.6719ZM121.626 78.9487C121.367 78.9427 121.115 79.0382 120.925 79.2151C120.735 79.3919 120.622 79.6359 120.609 79.8951C120.597 80.1543 120.686 80.4081 120.858 80.6023C121.031 80.7965 121.272 80.9158 121.531 80.9346C121.663 80.9442 121.796 80.9273 121.921 80.8848C122.047 80.8422 122.163 80.775 122.262 80.687C122.361 80.5991 122.442 80.4921 122.499 80.3725C122.557 80.2529 122.59 80.123 122.596 79.9905C122.602 79.8581 122.582 79.7256 122.536 79.6011C122.491 79.4765 122.421 79.3623 122.33 79.2653C122.24 79.1682 122.131 79.0902 122.01 79.0358C121.889 78.9814 121.759 78.9518 121.626 78.9487Z" fill="#5E6175"/>
<path d="M132.746 101.562C132.179 101.561 131.618 101.442 131.1 101.211C130.582 100.981 130.117 100.645 129.736 100.225C129.355 99.8049 129.066 99.3098 128.888 98.7715C128.709 98.2332 128.645 97.6635 128.699 97.099C129.049 93.5262 133.582 92.104 135.888 94.9137C138.091 97.6049 136.105 101.562 132.746 101.562ZM132.512 99.8277C132.971 99.8725 133.433 99.78 133.84 99.562C134.247 99.3441 134.58 99.0104 134.797 98.6032C135.014 98.196 135.105 97.7335 135.059 97.2744C135.014 96.8152 134.833 96.38 134.539 96.0237C134.246 95.6674 133.854 95.4061 133.412 95.2728C132.97 95.1394 132.499 95.1401 132.058 95.2747C131.616 95.4093 131.225 95.6718 130.933 96.0289C130.64 96.3861 130.461 96.8218 130.416 97.2811C130.386 97.586 130.417 97.8938 130.506 98.1868C130.595 98.4799 130.741 98.7525 130.936 98.9891C131.131 99.2256 131.37 99.4214 131.64 99.5653C131.911 99.7093 132.207 99.7984 132.512 99.8277Z" fill="#5E6175"/>
<path d="M24.5147 18.0558L23.2883 19.2822L27.8668 23.8607L29.0932 22.6343L24.5147 18.0558Z" fill="#5E6175"/>
<path d="M25.0877 27.7211H18.6127V29.4554H25.0877V27.7211Z" fill="#5E6175"/>
<path d="M34.2943 13.2015H32.5599V19.6765H34.2943V13.2015Z" fill="#5E6175"/>
<defs>
<linearGradient id="paint0_linear_1_1329" x1="30.1781" y1="110.725" x2="54.864" y2="110.725" gradientUnits="userSpaceOnUse">
<stop stop-color="#CACFDD"/>
<stop offset="1" stop-color="#EEF0F1"/>
</linearGradient>
</defs>
</svg>
