<svg width="148" height="148" viewBox="0 0 148 148" fill="none" xmlns="http://www.w3.org/2000/svg">
<path d="M103.837 24.313H37.5462C33.4768 24.313 30.178 27.6119 30.178 31.6813V121.45C30.178 125.519 33.4768 128.818 37.5462 128.818H103.837C107.906 128.818 111.205 125.519 111.205 121.45V31.6813C111.205 27.6119 107.906 24.313 103.837 24.313Z" fill="#DEE1EC"/>
<path d="M102.929 32.4617H38.4512V120.663H102.929V32.4617Z" fill="#F5F5F5"/>
<path style="mix-blend-mode:multiply" d="M54.8639 117.319C54.8713 121.326 53.8988 125.273 52.0311 128.818H37.5462C36.5782 128.818 35.6197 128.628 34.7254 128.257C33.8311 127.887 33.0185 127.344 32.3342 126.66C31.6499 125.975 31.1072 125.162 30.7372 124.268C30.3673 123.373 30.1772 122.415 30.178 121.447V92.633C36.723 92.6399 42.9979 95.2429 47.626 99.8709C52.254 104.499 54.857 110.774 54.8639 117.319Z" fill="url(#paint0_linear_1131_1165)"/>
<path d="M104.276 129.685H37.1069C35.037 129.685 33.0518 128.863 31.5882 127.399C30.1245 125.935 29.3022 123.95 29.3022 121.88V31.2419C29.3022 29.172 30.1245 27.1868 31.5882 25.7231C33.0518 24.2595 35.037 23.4372 37.1069 23.4372H104.276C106.346 23.4372 108.331 24.2595 109.795 25.7231C111.259 27.1868 112.081 29.172 112.081 31.2419V121.886C112.08 123.955 111.257 125.939 109.793 127.401C108.33 128.864 106.345 129.685 104.276 129.685ZM37.1069 25.1774C35.497 25.1774 33.953 25.8169 32.8146 26.9553C31.6762 28.0937 31.0366 29.6377 31.0366 31.2477V121.886C31.0366 123.496 31.6762 125.04 32.8146 126.178C33.953 127.317 35.497 127.956 37.1069 127.956H104.276C105.886 127.956 107.43 127.317 108.569 126.178C109.707 125.04 110.347 123.496 110.347 121.886V31.2419C110.347 29.6319 109.707 28.0879 108.569 26.9495C107.43 25.8111 105.886 25.1716 104.276 25.1716L37.1069 25.1774Z" fill="#5E6175"/>
<path d="M82.3827 18.3613H75.6765V16.0488C75.6765 13.3634 73.6154 11.0509 70.9301 10.9266C70.2568 10.8945 69.584 10.9993 68.9524 11.2346C68.3208 11.4699 67.7434 11.8308 67.2552 12.2955C66.7669 12.7602 66.378 13.3191 66.1119 13.9384C65.8457 14.5576 65.7079 15.2244 65.7067 15.8984V18.3641H58.9889C58.335 18.3641 57.6875 18.493 57.0833 18.7433C56.4792 18.9937 55.9304 19.3606 55.4681 19.8231C55.0059 20.2856 54.6393 20.8347 54.3893 21.4389C54.1393 22.0432 54.0109 22.6908 54.0112 23.3447V28.4235H87.3719V23.3418C87.3723 22.6869 87.2435 22.0384 86.9928 21.4334C86.7421 20.8284 86.3744 20.2788 85.9109 19.8161C85.4475 19.3534 84.8972 18.9868 84.2918 18.7371C83.6864 18.4875 83.0376 18.3597 82.3827 18.3613ZM70.6786 17.4941C70.328 17.4941 69.9853 17.3901 69.6938 17.1952C69.4024 17.0004 69.1753 16.7235 69.0412 16.3995C68.9072 16.0756 68.8723 15.7192 68.9409 15.3754C69.0095 15.0316 69.1785 14.7158 69.4266 14.4681C69.6747 14.2204 69.9907 14.0519 70.3347 13.9839C70.6786 13.9158 71.0349 13.9513 71.3587 14.0859C71.6824 14.2204 71.9589 14.448 72.1533 14.7398C72.3477 15.0315 72.4511 15.3744 72.4505 15.725C72.4513 16.1932 72.2664 16.6426 71.9365 16.9747C71.6065 17.3069 71.1583 17.4947 70.6901 17.497L70.6786 17.4941Z" fill="#009FAF"/>
<path d="M77.6536 39.0408H63.7266C62.4097 39.0385 61.1475 38.5141 60.2165 37.5827C59.2856 36.6512 58.762 35.3887 58.7605 34.0718V28.4206H60.4949V34.0718C60.4956 34.9289 60.8363 35.7508 61.4421 36.3571C62.0479 36.9635 62.8695 37.3049 63.7266 37.3064H77.6536C78.5113 37.3056 79.3335 36.9646 79.94 36.3582C80.5464 35.7517 80.8875 34.9294 80.8882 34.0718V28.4206H82.6226V34.0718C82.6211 35.3892 82.0971 36.6522 81.1655 37.5837C80.234 38.5152 78.971 39.0392 77.6536 39.0408Z" fill="#5E6175"/>
<path d="M65.9871 89.2625H64.2527V87.5281H65.9871V89.2625ZM61.3621 89.2625H59.6277V87.5281H61.3621V89.2625ZM69.0627 88.9734L68.6493 87.2969C69.1559 87.173 69.6488 86.9987 70.1207 86.7766L70.8578 88.3491C70.2812 88.6174 69.68 88.8294 69.0627 88.9821V88.9734ZM73.4622 86.5569L72.2655 85.311C72.6429 84.9496 72.9846 84.5527 73.2859 84.1259L74.7023 85.126C74.3366 85.6449 73.9213 86.127 73.4622 86.5656V86.5569ZM76.0782 82.273L74.4161 81.7816C74.5629 81.2817 74.6597 80.7685 74.7052 80.2495L76.4396 80.4056C76.3824 81.0415 76.2613 81.67 76.0782 82.2816V82.273ZM76.4771 77.437H74.7428V75.7026H76.4771V77.437ZM76.4771 72.812H74.7428V71.0776H76.4771V72.812ZM76.4771 68.187H74.7428V66.4526H76.4771V68.187ZM76.4771 63.562H74.7428V61.8276H76.4771V63.562ZM76.4771 58.937H74.7428V57.2026H76.4771V58.937ZM76.4771 54.3466L74.7428 54.2802C74.7682 53.6459 74.8553 53.0157 75.0029 52.3984L76.6882 52.8002C76.5709 53.307 76.5022 53.8239 76.4829 54.3438L76.4771 54.3466ZM77.697 50.4096L76.2285 49.4846C76.5641 48.9471 76.9513 48.4437 77.3848 47.9815L78.6451 49.1724C78.2906 49.5556 77.9749 49.9729 77.7028 50.4183L77.697 50.4096ZM80.7177 47.597L79.9025 46.0679C80.4624 45.7674 81.0512 45.5243 81.66 45.3423L82.1601 47.0016C81.6626 47.1553 81.1814 47.3577 80.7235 47.6057L80.7177 47.597ZM107.89 44.929C107.895 47.2444 107.898 47.2531 107.892 44.9377L107.89 44.929ZM104.999 46.6634H103.265V44.929H104.999V46.6634ZM100.374 46.6634H98.6396V44.929H100.374V46.6634ZM95.7489 46.6634H94.0146V44.929H95.7489V46.6634ZM91.1239 46.6634H89.3896V44.929H91.1239V46.6634ZM86.4989 46.6634H84.7646V44.929H86.4989V46.6634Z" fill="#A9AFC4"/>
<path d="M121.791 46.672H120.056V44.9377H121.791V46.672ZM117.166 46.672H115.431V44.9377H117.166V46.672Z" fill="#A9AFC4"/>
<path d="M30.1781 137.094C41.0978 137.094 49.95 128.242 49.95 117.322C49.95 106.402 41.0978 97.5499 30.1781 97.5499C19.2584 97.5499 10.4062 106.402 10.4062 117.322C10.4062 128.242 19.2584 137.094 30.1781 137.094Z" fill="#F5F5F5"/>
<path d="M30.1781 137.958C26.0958 137.959 22.1051 136.749 18.7106 134.481C15.316 132.213 12.6702 128.99 11.1078 125.218C9.54527 121.447 9.1363 117.297 9.93257 113.293C10.7288 109.289 12.6946 105.611 15.5812 102.725C18.4678 99.8383 22.1456 97.8726 26.1494 97.0763C30.1533 96.28 34.3034 96.689 38.0748 98.2515C41.8462 99.8139 45.0695 102.46 47.3372 105.854C49.6048 109.249 50.8148 113.24 50.8143 117.322C50.8074 122.793 48.631 128.038 44.7625 131.906C40.8939 135.775 35.649 137.951 30.1781 137.958ZM30.1781 98.4171C26.439 98.4165 22.7837 99.5248 19.6744 101.602C16.5652 103.679 14.1417 106.631 12.7104 110.085C11.2791 113.54 10.9043 117.341 11.6334 121.008C12.3625 124.675 14.1628 128.044 16.8066 130.688C19.4503 133.333 22.8188 135.133 26.486 135.863C30.1532 136.593 33.9545 136.218 37.409 134.788C40.8636 133.357 43.8163 130.934 45.8937 127.825C47.9711 124.716 49.0799 121.061 49.0799 117.322C49.0738 112.31 47.0805 107.506 43.5371 103.962C39.9937 100.418 35.1896 98.424 30.1781 98.4171Z" fill="#5E6175"/>
<path d="M38.509 109.341C38.025 109.957 37.3351 110.378 36.5657 110.527C35.7964 110.676 34.9991 110.543 34.3202 110.151C33.6412 109.76 33.1261 109.137 32.8692 108.397C32.6122 107.657 32.6308 106.848 32.9214 106.121C31.1176 105.676 29.233 105.676 27.4292 106.121C27.7192 106.848 27.7375 107.655 27.4809 108.395C27.2242 109.135 26.7097 109.757 26.0315 110.149C25.3534 110.54 24.5569 110.674 23.788 110.526C23.0191 110.378 22.3292 109.959 21.8445 109.344C20.561 110.685 19.62 112.316 19.1013 114.099C19.8769 114.21 20.5863 114.598 21.0993 115.19C21.6124 115.782 21.8948 116.54 21.8948 117.323C21.8948 118.107 21.6124 118.864 21.0993 119.456C20.5863 120.049 19.8769 120.436 19.1013 120.548C19.6251 122.329 20.5666 123.959 21.8474 125.303C22.3303 124.685 23.02 124.263 23.7895 124.113C24.5591 123.963 25.3569 124.096 26.0362 124.487C26.7156 124.879 27.2308 125.502 27.4873 126.243C27.7437 126.984 27.7241 127.792 27.4321 128.52C29.2359 128.964 31.1205 128.964 32.9243 128.52C32.6343 127.793 32.616 126.985 32.8726 126.246C33.1293 125.506 33.6438 124.883 34.322 124.492C35.0001 124.101 35.7966 123.967 36.5655 124.114C37.3344 124.262 38.0243 124.682 38.509 125.297C39.7934 123.956 40.7337 122.323 41.2493 120.539C40.4737 120.427 39.7643 120.04 39.2513 119.448C38.7382 118.855 38.4558 118.098 38.4558 117.315C38.4558 116.531 38.7382 115.774 39.2513 115.181C39.7643 114.589 40.4737 114.202 41.2493 114.09C40.7265 112.312 39.7871 110.683 38.509 109.341ZM32.3115 121.016C31.5807 121.438 30.7413 121.633 29.8994 121.578C29.0575 121.523 28.2508 121.219 27.5814 120.706C26.912 120.192 26.4099 119.492 26.1386 118.693C25.8673 117.894 25.839 117.032 26.0572 116.217C26.2754 115.402 26.7303 114.67 27.3645 114.114C27.9987 113.557 28.7837 113.201 29.6201 113.091C30.4566 112.981 31.307 113.121 32.0639 113.493C32.8208 113.866 33.4502 114.455 33.8724 115.186C34.1529 115.671 34.3351 116.207 34.4084 116.762C34.4818 117.318 34.445 117.883 34.3 118.424C34.155 118.966 33.9048 119.473 33.5636 119.918C33.2224 120.363 32.7969 120.736 32.3115 121.016Z" fill="#009FAF"/>
<path d="M51.7219 91.812C53.6089 91.812 55.1386 90.2823 55.1386 88.3953C55.1386 86.5083 53.6089 84.9786 51.7219 84.9786C49.8349 84.9786 48.3052 86.5083 48.3052 88.3953C48.3052 90.2823 49.8349 91.812 51.7219 91.812Z" fill="#009FAF"/>
<path d="M51.722 89.5631C52.367 89.5631 52.8898 89.0403 52.8898 88.3953C52.8898 87.7503 52.367 87.2275 51.722 87.2275C51.077 87.2275 50.5542 87.7503 50.5542 88.3953C50.5542 89.0403 51.077 89.5631 51.722 89.5631Z" fill="#F5F5F5"/>
<path d="M88.4019 71.9776L82.4028 77.9767L84.4018 79.9757L90.4009 73.9766L88.4019 71.9776Z" fill="#009FAF"/>
<path d="M84.4018 71.9768L82.4028 73.9758L88.4019 79.9748L90.4009 77.9758L84.4018 71.9768Z" fill="#009FAF"/>
<path d="M65.1495 53.0321L59.1504 59.0312L61.1494 61.0302L67.1485 55.0311L65.1495 53.0321Z" fill="#009FAF"/>
<path d="M61.1494 53.0272L59.1504 55.0262L65.1495 61.0253L67.1485 59.0263L61.1494 53.0272Z" fill="#009FAF"/>
<path d="M94.4539 98.5212H73.6819V102.447H94.4539V98.5212Z" fill="#DEE1EC"/>
<path d="M94.4539 108.089H65.2991V112.015H94.4539V108.089Z" fill="#DEE1EC"/>
<path d="M132.171 38.1852C131.172 38.1178 130.172 38.3099 129.268 38.743C128.365 39.1761 127.589 39.8354 127.016 40.6568C126.442 41.4783 126.091 42.434 125.996 43.4313C125.901 44.4285 126.066 45.4334 126.474 46.3483C126.702 46.8628 131.784 54.7484 131.784 54.7484C134.073 51.193 137.149 46.3396 137.094 46.3396C137.47 45.4848 137.636 44.552 137.576 43.6198C137.516 42.6877 137.233 41.7837 136.75 40.984C136.267 40.1844 135.599 39.5126 134.802 39.0255C134.005 38.5384 133.103 38.2501 132.171 38.1852ZM131.784 46.1691C131.269 46.1691 130.766 46.0165 130.338 45.7306C129.91 45.4448 129.577 45.0385 129.38 44.5631C129.183 44.0877 129.132 43.5646 129.232 43.06C129.332 42.5553 129.58 42.0918 129.944 41.7279C130.308 41.3641 130.771 41.1163 131.276 41.0159C131.781 40.9155 132.304 40.9671 132.779 41.164C133.255 41.3609 133.661 41.6943 133.947 42.1222C134.233 42.55 134.385 43.053 134.385 43.5675C134.385 44.2575 134.111 44.9192 133.623 45.4071C133.135 45.895 132.474 46.1691 131.784 46.1691Z" fill="#009FAF"/>
<path d="M121.626 82.6719C121.075 82.6728 120.536 82.5067 120.081 82.1955C119.626 81.8843 119.276 81.4426 119.077 80.9286C118.878 80.4146 118.839 79.8523 118.966 79.3159C119.093 78.7794 119.379 78.2939 119.787 77.9233C120.195 77.5526 120.706 77.3143 121.252 77.2396C121.798 77.1649 122.354 77.2573 122.846 77.5047C123.339 77.7522 123.745 78.143 124.011 78.6257C124.277 79.1085 124.391 79.6605 124.337 80.2091C124.271 80.8825 123.957 81.5073 123.456 81.9623C122.955 82.4173 122.303 82.6702 121.626 82.6719ZM121.626 78.9488C121.367 78.9427 121.115 79.0383 120.925 79.2151C120.735 79.3919 120.622 79.636 120.609 79.8952C120.597 80.1544 120.686 80.4081 120.858 80.6023C121.031 80.7966 121.272 80.9158 121.531 80.9346C121.663 80.9442 121.796 80.9273 121.921 80.8848C122.047 80.8423 122.163 80.775 122.262 80.6871C122.361 80.5991 122.442 80.4922 122.499 80.3726C122.557 80.2529 122.59 80.1231 122.596 79.9906C122.602 79.8581 122.582 79.7257 122.536 79.6011C122.491 79.4765 122.421 79.3624 122.33 79.2653C122.24 79.1682 122.131 79.0902 122.01 79.0358C121.889 78.9815 121.759 78.9519 121.626 78.9488Z" fill="#5E6175"/>
<path d="M132.746 101.562C132.179 101.561 131.618 101.442 131.1 101.211C130.582 100.981 130.117 100.645 129.736 100.225C129.355 99.8049 129.066 99.3098 128.888 98.7715C128.709 98.2332 128.645 97.6635 128.699 97.099C129.049 93.5262 133.581 92.104 135.888 94.9137C138.091 97.6049 136.105 101.562 132.746 101.562ZM132.512 99.8277C132.971 99.8725 133.433 99.78 133.84 99.562C134.247 99.3441 134.58 99.0104 134.797 98.6032C135.014 98.196 135.105 97.7335 135.059 97.2744C135.013 96.8152 134.832 96.38 134.539 96.0237C134.246 95.6674 133.854 95.4061 133.412 95.2728C132.97 95.1394 132.499 95.1401 132.058 95.2747C131.616 95.4093 131.225 95.6718 130.933 96.0289C130.64 96.3861 130.461 96.8218 130.416 97.2811C130.386 97.586 130.417 97.8938 130.506 98.1868C130.595 98.4799 130.741 98.7525 130.936 98.9891C131.131 99.2256 131.37 99.4214 131.64 99.5653C131.911 99.7093 132.207 99.7984 132.512 99.8277Z" fill="#5E6175"/>
<path d="M24.5147 18.0558L23.2883 19.2822L27.8668 23.8607L29.0932 22.6344L24.5147 18.0558Z" fill="#5E6175"/>
<path d="M25.0878 27.7211H18.6128V29.4555H25.0878V27.7211Z" fill="#5E6175"/>
<path d="M34.2944 13.2015H32.5601V19.6765H34.2944V13.2015Z" fill="#5E6175"/>
<defs>
<linearGradient id="paint0_linear_1131_1165" x1="30.178" y1="110.725" x2="54.8639" y2="110.725" gradientUnits="userSpaceOnUse">
<stop stop-color="#CACFDD"/>
<stop offset="1" stop-color="#EEF0F1"/>
</linearGradient>
</defs>
</svg>
