<svg width="148" height="148" viewBox="0 0 148 148" fill="none" xmlns="http://www.w3.org/2000/svg">
<path d="M103.736 26.1139H28.1836V132.107H103.736V26.1139Z" fill="#F5F5F5"/>
<path style="mix-blend-mode:multiply" d="M103.736 26.1139H80.5098V29.0045C80.5167 35.1621 82.966 41.0655 87.3203 45.4193C91.6747 49.7731 97.5784 52.2217 103.736 52.2278C103.736 28.4813 103.765 29.0045 103.736 29.0045V26.1139Z" fill="url(#paint0_linear_1131_1194)"/>
<path d="M91.9103 79.1222H40.3213V82.3944H91.9103V79.1222Z" fill="#DEE1EC"/>
<path d="M104.603 132.969H27.3164V25.2467H104.603V132.969ZM29.0508 131.234H102.869V26.9811H29.0508V131.234Z" fill="#5E6175"/>
<path d="M84.9786 72.4535H92.4277V60.9373H84.9786V72.4535Z" fill="#A9AFC4"/>
<path d="M70.6988 72.4564H78.1479V53.5517H70.6988V72.4564Z" fill="#5E6175"/>
<path d="M40.8387 72.4564H48.2878V53.5517H40.8387V72.4564Z" fill="#5E6175"/>
<path d="M56.4163 72.4564H63.8655V45.0793H56.4163V72.4564Z" fill="#A9AFC4"/>
<path d="M91.9103 86.898H40.3213V90.1702H91.9103V86.898Z" fill="#DEE1EC"/>
<path d="M47.8976 94.6738H40.3213V97.9459H47.8976V94.6738Z" fill="#DEE1EC"/>
<path d="M70.9677 94.6738H53.3147V97.9459H70.9677V94.6738Z" fill="#DEE1EC"/>
<path d="M103.736 47.6086C114.009 47.6086 122.337 39.2806 122.337 29.0074C122.337 18.7343 114.009 10.4062 103.736 10.4062C93.4628 10.4062 85.1348 18.7343 85.1348 29.0074C85.1348 39.2806 93.4628 47.6086 103.736 47.6086Z" fill="#F5F5F5"/>
<path d="M103.736 48.4729C99.8853 48.4729 96.1212 47.331 92.9196 45.1917C89.718 43.0523 87.2227 40.0116 85.7492 36.4541C84.2758 32.8965 83.8905 28.982 84.6419 25.2054C85.3933 21.4288 87.2478 17.9599 89.9708 15.2373C92.6938 12.5147 96.1629 10.6608 99.9396 9.9099C103.716 9.15903 107.631 9.54498 111.188 11.0189C114.745 12.4929 117.786 14.9887 119.925 18.1906C122.064 21.3925 123.205 25.1568 123.204 29.0074C123.198 34.1686 121.145 39.1166 117.495 42.7658C113.845 46.4151 108.897 48.4675 103.736 48.4729ZM103.736 11.2734C100.228 11.2734 96.7998 12.3135 93.8835 14.2622C90.9671 16.2108 88.6941 18.9805 87.3519 22.2209C86.0096 25.4614 85.6584 29.0271 86.3427 32.4672C87.027 35.9072 88.716 39.0671 91.1961 41.5472C93.6763 44.0274 96.8362 45.7164 100.276 46.4007C103.716 47.0849 107.282 46.7337 110.522 45.3915C113.763 44.0492 116.533 41.7762 118.481 38.8599C120.43 35.9436 121.47 32.5149 121.47 29.0074C121.465 24.3057 119.594 19.7981 116.27 16.4735C112.945 13.1489 108.438 11.2788 103.736 11.2734Z" fill="#5E6175"/>
<path d="M95.5409 54.4189H88.2652L74.0491 39.4166H56.318L47.8427 47.8919H36.6907V46.1575H47.1258L55.5983 37.6822H74.7949L89.011 52.6845H95.5409V54.4189Z" fill="#5E6175"/>
<path d="M88.6382 58.5005C89.7749 58.5005 90.6963 57.579 90.6963 56.4423C90.6963 55.3057 89.7749 54.3842 88.6382 54.3842C87.5015 54.3842 86.5801 55.3057 86.5801 56.4423C86.5801 57.579 87.5015 58.5005 88.6382 58.5005Z" fill="#009FAF"/>
<path d="M74.4219 40.6075C75.5586 40.6075 76.48 39.686 76.48 38.5494C76.48 37.4127 75.5586 36.4912 74.4219 36.4912C73.2852 36.4912 72.3638 37.4127 72.3638 38.5494C72.3638 39.686 73.2852 40.6075 74.4219 40.6075Z" fill="#009FAF"/>
<path d="M60.1394 40.6075C61.2761 40.6075 62.1976 39.686 62.1976 38.5494C62.1976 37.4127 61.2761 36.4912 60.1394 36.4912C59.0028 36.4912 58.0813 37.4127 58.0813 38.5494C58.0813 39.686 59.0028 40.6075 60.1394 40.6075Z" fill="#009FAF"/>
<path d="M44.5647 49.1927C45.7014 49.1927 46.6228 48.2712 46.6228 47.1345C46.6228 45.9979 45.7014 45.0764 44.5647 45.0764C43.428 45.0764 42.5066 45.9979 42.5066 47.1345C42.5066 48.2712 43.428 49.1927 44.5647 49.1927Z" fill="#009FAF"/>
<path d="M82.7355 110.665H43.0126C42.3137 110.642 41.6511 110.348 41.1649 109.846C40.6786 109.343 40.4067 108.671 40.4067 107.972C40.4067 107.273 40.6786 106.601 41.1649 106.099C41.6511 105.596 42.3137 105.302 43.0126 105.279H82.7355V110.665Z" fill="#009FAF"/>
<path d="M89.219 113.555H82.7354V108.17H89.219C89.9179 108.193 90.5805 108.487 91.0667 108.989C91.553 109.492 91.8249 110.163 91.8249 110.863C91.8249 111.562 91.553 112.234 91.0667 112.736C90.5805 113.239 89.9179 113.532 89.219 113.555Z" fill="#DEE1EC"/>
<path d="M89.219 111.532H43.0152C42.5392 111.545 42.0653 111.463 41.6216 111.291C41.1778 111.118 40.7732 110.858 40.4317 110.526C40.0902 110.194 39.8188 109.797 39.6334 109.358C39.448 108.92 39.3525 108.448 39.3525 107.972C39.3525 107.496 39.448 107.025 39.6334 106.586C39.8188 106.147 40.0902 105.75 40.4317 105.418C40.7732 105.086 41.1778 104.826 41.6216 104.654C42.0653 104.481 42.5392 104.399 43.0152 104.412H89.219C90.1455 104.439 91.0253 104.825 91.6713 105.49C92.3174 106.155 92.6788 107.045 92.6788 107.972C92.6788 108.899 92.3174 109.789 91.6713 110.454C91.0253 111.119 90.1455 111.505 89.219 111.532ZM43.0152 106.147C42.7694 106.137 42.5241 106.177 42.2941 106.264C42.0641 106.351 41.8541 106.484 41.6767 106.655C41.4993 106.825 41.3582 107.03 41.2618 107.256C41.1654 107.483 41.1157 107.726 41.1157 107.972C41.1157 108.218 41.1654 108.462 41.2618 108.688C41.3582 108.914 41.4993 109.119 41.6767 109.289C41.8541 109.46 42.0641 109.593 42.2941 109.68C42.5241 109.767 42.7694 109.807 43.0152 109.798H89.219C89.6906 109.779 90.1366 109.578 90.4636 109.238C90.7906 108.898 90.9732 108.444 90.9732 107.972C90.9732 107.5 90.7906 107.047 90.4636 106.706C90.1366 106.366 89.6906 106.165 89.219 106.147H43.0152Z" fill="#5E6175"/>
<path d="M66.1173 121.233H43.0126C42.3137 121.21 41.6511 120.916 41.1649 120.414C40.6786 119.911 40.4067 119.239 40.4067 118.54C40.4067 117.841 40.6786 117.169 41.1649 116.667C41.6511 116.164 42.3137 115.87 43.0126 115.848H66.1173V121.233Z" fill="#009FAF"/>
<path d="M89.2191 121.233H66.1172V115.848H89.2191C89.9179 115.87 90.5805 116.164 91.0668 116.667C91.553 117.169 91.8249 117.841 91.8249 118.54C91.8249 119.239 91.553 119.911 91.0668 120.414C90.5805 120.916 89.9179 121.21 89.2191 121.233Z" fill="#DEE1EC"/>
<path d="M89.219 122.1H43.0152C42.5392 122.114 42.0653 122.032 41.6216 121.859C41.1778 121.686 40.7732 121.426 40.4317 121.094C40.0902 120.762 39.8188 120.365 39.6334 119.926C39.448 119.488 39.3525 119.016 39.3525 118.54C39.3525 118.064 39.448 117.593 39.6334 117.154C39.8188 116.715 40.0902 116.318 40.4317 115.986C40.7732 115.654 41.1778 115.394 41.6216 115.222C42.0653 115.049 42.5392 114.967 43.0152 114.98H89.219C90.1455 115.007 91.0253 115.393 91.6713 116.058C92.3174 116.723 92.6788 117.613 92.6788 118.54C92.6788 119.467 92.3174 120.358 91.6713 121.022C91.0253 121.687 90.1455 122.074 89.219 122.1ZM43.0152 116.715C42.7694 116.705 42.5241 116.745 42.2941 116.832C42.0641 116.92 41.8541 117.052 41.6767 117.223C41.4993 117.393 41.3582 117.598 41.2618 117.824C41.1654 118.051 41.1157 118.294 41.1157 118.54C41.1157 118.786 41.1654 119.03 41.2618 119.256C41.3582 119.482 41.4993 119.687 41.6767 119.857C41.8541 120.028 42.0641 120.161 42.2941 120.248C42.5241 120.335 42.7694 120.375 43.0152 120.366H89.219C89.6906 120.347 90.1366 120.146 90.4636 119.806C90.7906 119.466 90.9732 119.012 90.9732 118.54C90.9732 118.068 90.7906 117.615 90.4636 117.274C90.1366 116.934 89.6906 116.734 89.219 116.715H43.0152Z" fill="#5E6175"/>
<path d="M20.8992 35.916C20.3348 35.916 19.7831 35.7486 19.3138 35.435C18.8446 35.1214 18.4789 34.6756 18.263 34.1541C18.0472 33.6326 17.9909 33.0588 18.1012 32.5053C18.2115 31.9518 18.4835 31.4434 18.8828 31.0445C19.2821 30.6457 19.7907 30.3742 20.3444 30.2644C20.898 30.1546 21.4717 30.2116 21.993 30.4279C22.5143 30.6443 22.9597 31.0105 23.2728 31.48C23.586 31.9496 23.7528 32.5015 23.7522 33.0659C23.7507 33.8218 23.4495 34.5463 22.9147 35.0806C22.3799 35.6148 21.6551 35.9153 20.8992 35.916ZM20.8992 31.9472C20.6779 31.9472 20.4617 32.0128 20.2777 32.1357C20.0937 32.2586 19.9503 32.4334 19.8657 32.6378C19.781 32.8422 19.7588 33.0671 19.802 33.2841C19.8452 33.5011 19.9517 33.7004 20.1082 33.8569C20.2646 34.0133 20.4639 34.1199 20.6809 34.163C20.8979 34.2062 21.1229 34.1841 21.3273 34.0994C21.5317 34.0147 21.7064 33.8713 21.8293 33.6874C21.9523 33.5034 22.0179 33.2871 22.0179 33.0659C22.0171 32.7694 21.899 32.4853 21.6894 32.2757C21.4797 32.0661 21.1956 31.948 20.8992 31.9472Z" fill="#5E6175"/>
<path d="M110.482 138.461C109.918 138.461 109.367 138.294 108.897 137.98C108.428 137.667 108.063 137.221 107.847 136.7C107.631 136.178 107.574 135.605 107.684 135.051C107.794 134.498 108.066 133.989 108.465 133.59C108.864 133.191 109.372 132.92 109.926 132.81C110.479 132.7 111.053 132.756 111.574 132.972C112.096 133.188 112.541 133.554 112.855 134.023C113.168 134.492 113.335 135.044 113.335 135.608C113.335 136.364 113.034 137.09 112.499 137.624C111.964 138.159 111.239 138.46 110.482 138.461ZM110.482 134.492C110.261 134.492 110.045 134.558 109.861 134.681C109.677 134.804 109.533 134.979 109.449 135.183C109.364 135.388 109.342 135.613 109.385 135.83C109.429 136.047 109.536 136.246 109.692 136.403C109.849 136.559 110.049 136.665 110.266 136.708C110.483 136.751 110.708 136.729 110.913 136.643C111.117 136.558 111.291 136.415 111.414 136.23C111.537 136.046 111.602 135.829 111.601 135.608C111.6 135.312 111.482 135.028 111.272 134.819C111.063 134.61 110.779 134.492 110.482 134.492Z" fill="#5E6175"/>
<path d="M32.9907 19.3672C32.2112 19.3678 31.449 19.1371 30.8007 18.7044C30.1523 18.2717 29.6469 17.6564 29.3483 16.9363C29.0498 16.2163 28.9715 15.4239 29.1234 14.6593C29.2753 13.8948 29.6506 13.1925 30.2018 12.6413C30.753 12.0901 31.4553 11.7148 32.2198 11.5629C32.9844 11.411 33.7768 11.4892 34.4969 11.7878C35.2169 12.0864 35.8322 12.5918 36.2649 13.2402C36.6976 13.8885 36.9283 14.6507 36.9277 15.4301C36.9262 16.4738 36.5109 17.4744 35.7729 18.2124C35.0349 18.9504 34.0344 19.3657 32.9907 19.3672ZM32.9907 13.2246C32.5543 13.224 32.1276 13.3529 31.7645 13.5949C31.4015 13.8369 31.1183 14.1812 30.9509 14.5841C30.7836 14.9871 30.7395 15.4306 30.8243 15.8587C30.909 16.2867 31.1189 16.6799 31.4272 16.9887C31.7355 17.2974 32.1285 17.5078 32.5564 17.5931C32.9843 17.6784 33.428 17.6349 33.8311 17.4681C34.2343 17.3012 34.5789 17.0185 34.8214 16.6558C35.0639 16.293 35.1933 15.8665 35.1933 15.4301C35.1948 15.1398 35.139 14.852 35.029 14.5832C34.9191 14.3145 34.7571 14.0701 34.5525 13.8641C34.3478 13.6581 34.1045 13.4946 33.8365 13.3829C33.5685 13.2711 33.281 13.2134 32.9907 13.213V13.2246Z" fill="#5E6175"/>
<path d="M120.709 45.3757L119.482 46.6021L123.654 50.7738L124.881 49.5474L120.709 45.3757Z" fill="#5E6175"/>
<path d="M129.087 40.2577H123.187V41.9921H129.087V40.2577Z" fill="#5E6175"/>
<path d="M116.455 49.2418H114.72V55.1416H116.455V49.2418Z" fill="#5E6175"/>
<path d="M106.791 119.409V117.674C107.302 117.674 107.811 117.615 108.309 117.498L108.708 119.186C108.08 119.334 107.437 119.409 106.791 119.409ZM111.627 117.851L110.613 116.443C111.027 116.144 111.406 115.798 111.74 115.411L113.052 116.547C112.629 117.035 112.15 117.472 111.627 117.851ZM114.642 113.761L112.997 113.208C113.159 112.724 113.264 112.223 113.31 111.714L115.044 111.867C114.984 112.512 114.85 113.147 114.642 113.761ZM115.07 108.901H113.336V107.167H115.07V108.901ZM115.07 104.276H113.336V102.542H115.07V104.276ZM115.07 99.6514H113.336V97.917H115.07V99.6514ZM115.07 95.0264H113.336V93.292H115.07V95.0264ZM115.07 90.4014H113.336V88.667H115.07V90.4014ZM115.07 85.7764H113.336V84.042H115.07V85.7764ZM115.07 81.1514H113.336V79.417H115.07V81.1514ZM115.07 76.5264H113.336V74.792H115.07V76.5264ZM115.07 71.9014H113.336V70.167H115.07V71.9014ZM115.07 67.2764H113.336V65.542H115.07V67.2764ZM115.07 62.6514H113.336V60.9402H115.07V62.6514Z" fill="#A9AFC4"/>
<path d="M100.094 117.674H98.3594V119.409H100.094V117.674Z" fill="#A9AFC4"/>
<rect x="96.0754" y="24.6967" width="5" height="18" transform="rotate(-45 96.0754 24.6967)" fill="#009FAF"/>
<rect width="5" height="18" transform="matrix(-0.707107 -0.707107 -0.707107 0.707107 112.339 24.6967)" fill="#009FAF"/>
<defs>
<linearGradient id="paint0_linear_1131_1194" x1="80.5098" y1="39.1737" x2="103.747" y2="39.1737" gradientUnits="userSpaceOnUse">
<stop stop-color="#CACFDD"/>
<stop offset="1" stop-color="#EEF0F1"/>
</linearGradient>
</defs>
</svg>
