<svg width="148" height="148" viewBox="0 0 148 148" fill="none" xmlns="http://www.w3.org/2000/svg">
<path style="mix-blend-mode:multiply" d="M105.219 102.016H98.9172L80.9028 84.0044L79.4575 85.4642C77.0913 87.8311 73.8989 89.1872 70.5527 89.2471C67.2065 89.3069 63.9676 88.0658 61.5183 85.7851L56.8933 81.478L70.8637 67.5048C72.2559 68.059 73.52 68.8922 74.5782 69.9531L63.1689 81.3595L64.4783 82.5794C66.0982 84.0831 68.2379 84.9006 70.4478 84.8602C72.6577 84.8198 74.766 83.9245 76.3299 82.3626L80.8797 77.8098L101.53 98.4605C102.039 98.7958 101.906 98.7062 105.219 102.016Z" fill="url(#paint0_linear_1_777)"/>
<path d="M63.1832 81.3682L74.5145 70.037C75.5361 69.0146 76.7492 68.2035 78.0844 67.6499C79.4195 67.0964 80.8507 66.8114 82.296 66.811H117.359V97.6424H100.73L80.9057 77.8185L76.3529 82.3828C74.789 83.945 72.6804 84.8402 70.4703 84.8801C68.2601 84.92 66.1206 84.1015 64.5014 82.5967L63.1832 81.3682Z" fill="#DEE1EC"/>
<path d="M84.6288 82.7702L80.2928 78.4342L81.5214 77.2086L85.8573 81.5445C87.9366 83.619 90.7538 84.784 93.6909 84.784C96.628 84.784 99.4452 83.619 101.524 81.5445L102.707 80.3594L103.935 81.5879L102.75 82.7702C100.345 85.1688 97.0864 86.5159 93.6894 86.5159C90.2925 86.5159 87.0341 85.1688 84.6288 82.7702Z" fill="#5E6175"/>
<path d="M41.2348 109.971C42.1018 110.836 43.2765 111.322 44.5012 111.322C45.7259 111.322 46.9006 110.836 47.7676 109.971L52.2105 105.525C52.6711 105.103 53.0416 104.592 53.2994 104.023C53.5572 103.454 53.697 102.839 53.7105 102.214C53.724 101.59 53.6108 100.969 53.3778 100.389C53.1448 99.8099 52.7968 99.2835 52.3548 98.842C51.9128 98.4006 51.3859 98.0533 50.806 97.8211C50.2261 97.5888 49.6051 97.4765 48.9806 97.4908C48.3561 97.5051 47.7409 97.6458 47.1723 97.9044C46.6036 98.1629 46.0932 98.534 45.6719 98.9952L41.2261 103.438C40.3623 104.306 39.8781 105.482 39.8798 106.706C39.8814 107.931 40.3687 109.105 41.2348 109.971Z" fill="#DEE1EC"/>
<path d="M49.4789 114.79C50.3458 115.654 51.5199 116.139 52.7438 116.139C53.9678 116.139 55.1419 115.654 56.0088 114.79L60.4604 110.338C60.9305 109.919 61.3102 109.408 61.576 108.838C61.8419 108.267 61.9884 107.648 62.0065 107.018C62.0246 106.389 61.9139 105.762 61.6813 105.177C61.4487 104.592 61.0991 104.06 60.6538 103.615C60.2085 103.169 59.6769 102.82 59.0917 102.587C58.5065 102.355 57.8799 102.244 57.2504 102.262C56.6209 102.28 56.0017 102.427 55.4309 102.692C54.86 102.958 54.3494 103.338 53.9304 103.808L49.4789 108.26C48.6148 109.127 48.1296 110.301 48.1296 111.525C48.1296 112.749 48.6148 113.923 49.4789 114.79Z" fill="#DEE1EC"/>
<path d="M57.5552 119.773C58.4221 120.637 59.5961 121.122 60.8201 121.122C62.0441 121.122 63.2182 120.637 64.0851 119.773L69.0338 114.824C69.8193 113.943 70.2379 112.794 70.204 111.614C70.17 110.434 69.6861 109.312 68.8512 108.477C68.0164 107.642 66.894 107.158 65.7139 107.124C64.5338 107.09 63.3853 107.509 62.5039 108.294L57.5552 113.243C56.6911 114.11 56.2059 115.284 56.2059 116.508C56.2059 117.732 56.6911 118.906 57.5552 119.773Z" fill="#DEE1EC"/>
<path d="M66.3168 124.074C67.1837 124.938 68.3577 125.424 69.5817 125.424C70.8057 125.424 71.9798 124.938 72.8467 124.074L77.1248 119.796C77.9157 118.915 78.3387 117.765 78.3068 116.581C78.2748 115.398 77.7903 114.272 76.9531 113.435C76.1158 112.598 74.9896 112.114 73.8062 112.083C72.6228 112.051 71.4725 112.475 70.592 113.266L66.3168 117.544C65.4527 118.411 64.9675 119.585 64.9675 120.809C64.9675 122.033 65.4527 123.207 66.3168 124.074Z" fill="#DEE1EC"/>
<path d="M106.635 109.971C105.768 110.836 104.593 111.322 103.369 111.322C102.144 111.322 100.969 110.836 100.102 109.971L98.3911 108.26C98.864 108.678 99.2463 109.188 99.5145 109.76C99.7827 110.331 99.9311 110.951 99.9506 111.582C99.9701 112.213 99.8602 112.841 99.6277 113.428C99.3953 114.015 99.0451 114.548 98.5989 114.994C98.1527 115.441 97.6198 115.791 97.033 116.024C96.4463 116.257 95.8181 116.367 95.1872 116.348C94.5563 116.328 93.936 116.18 93.3645 115.912C92.793 115.644 92.2824 115.262 91.8641 114.79L90.3176 113.243C91.1148 114.123 91.5431 115.276 91.5139 116.462C91.4846 117.649 91.0001 118.779 90.1606 119.619C89.3211 120.458 88.191 120.943 87.0041 120.972C85.8172 121.001 84.6646 120.573 83.7848 119.776L81.5561 117.541C82.0236 117.961 82.4006 118.472 82.6642 119.042C82.9279 119.612 83.0726 120.23 83.0895 120.858C83.1065 121.486 82.9953 122.111 82.7628 122.694C82.5303 123.278 82.1814 123.808 81.7373 124.252C81.2932 124.697 80.7632 125.046 80.1797 125.279C79.5962 125.511 78.9714 125.623 78.3434 125.606C77.7155 125.59 77.0975 125.445 76.5271 125.182C75.9568 124.918 75.4461 124.542 75.0262 124.074L73.9364 122.985L77.1161 119.805C77.9016 118.923 78.3202 117.775 78.2863 116.595C78.2523 115.415 77.7683 114.292 76.9335 113.458C76.0987 112.623 74.9763 112.139 73.7962 112.105C72.616 112.071 71.4676 112.489 70.5862 113.275C69.2536 114.607 69.3982 114.48 69.3606 114.46C71.806 111.425 69.5976 106.944 65.7618 106.944C64.5368 106.945 63.362 107.432 62.4953 108.297C60.7147 110.081 60.8593 109.962 60.813 109.936C61.5165 109.009 61.8443 107.85 61.731 106.691C61.6176 105.532 61.0714 104.459 60.2014 103.685C59.3313 102.912 58.2015 102.495 57.0375 102.517C55.8735 102.54 54.7608 103.001 53.9218 103.808L52.2943 105.436C52.9099 104.779 53.3204 103.956 53.4754 103.069C53.6304 102.182 53.5231 101.27 53.1668 100.443C52.8105 99.6159 52.2206 98.9111 51.4694 98.4147C50.7183 97.9183 49.8386 97.6519 48.9383 97.6482H30.5077V66.7359H66.8053C69.7201 66.7366 72.5155 67.8936 74.5782 69.9531L63.1717 81.3595L64.4783 82.5765C66.0976 84.0813 68.2371 84.8997 70.4472 84.8598C72.6574 84.82 74.766 83.9248 76.3299 82.3626L80.8826 77.8098L101.53 98.4605C102.025 98.8045 101.663 98.4836 106.612 103.432C107.482 104.297 107.973 105.471 107.977 106.697C107.982 107.923 107.499 109.101 106.635 109.971Z" fill="#DEE1EC"/>
<path style="mix-blend-mode:multiply" d="M105.219 102.016C101.187 102.015 97.3203 100.414 94.4685 97.5644L80.9086 84.0044L79.4633 85.4642C77.0971 87.8311 73.9047 89.1872 70.5585 89.2471C67.2122 89.3069 63.9734 88.0658 61.524 85.7851L56.899 81.478L70.8694 67.5048C72.2596 68.0597 73.5216 68.8928 74.5781 69.9531L63.1688 81.3595L64.4783 82.5794C66.0982 84.0831 68.2378 84.9006 70.4478 84.8602C72.6577 84.8198 74.766 83.9245 76.3298 82.3626L80.8797 77.8098L101.53 98.4605C102.039 98.7958 101.906 98.7062 105.219 102.016Z" fill="url(#paint1_linear_1_777)"/>
<path d="M118.227 98.5096H100.362L80.8999 79.0441L76.96 82.9812C75.2405 84.7129 72.9138 85.7064 70.4738 85.7506C68.0338 85.7949 65.6726 84.8865 63.8914 83.2182L61.9287 81.3884L73.893 69.4241C74.9924 68.3216 76.2991 67.4475 77.7378 66.8522C79.1765 66.2568 80.7188 65.9521 82.2758 65.9554H118.227V98.5096ZM101.082 96.7752H116.492V67.6782H82.2961C80.964 67.6745 79.6444 67.9352 78.4138 68.4453C77.1832 68.9554 76.0661 69.7047 75.1273 70.6498L64.432 81.3451L65.0795 81.9463C66.5321 83.3076 68.4581 84.0492 70.4485 84.0136C72.439 83.9779 74.3372 83.1679 75.7401 81.7555L80.9057 76.6016L101.082 96.7752Z" fill="#5E6175"/>
<path d="M44.5156 112.191C43.7947 112.194 43.0803 112.054 42.4142 111.778C41.7482 111.502 41.1438 111.096 40.6364 110.584C39.6091 109.554 39.0321 108.159 39.0321 106.705C39.0321 105.25 39.6091 103.855 40.6364 102.825L45.0822 98.3824C45.5804 97.8266 46.1868 97.3781 46.8641 97.0644C47.5415 96.7508 48.2758 96.5785 49.022 96.5581C49.7682 96.5377 50.5107 96.6697 51.2042 96.9459C51.8977 97.2221 52.5276 97.6368 53.0555 98.1647C53.5833 98.6925 53.998 99.3224 54.2743 100.016C54.5505 100.709 54.6824 101.452 54.6621 102.198C54.6417 102.944 54.4694 103.679 54.1557 104.356C53.8421 105.033 53.3936 105.64 52.8377 106.138L48.3948 110.584C47.8865 111.095 47.2819 111.5 46.6161 111.776C45.9502 112.051 45.2363 112.193 44.5156 112.191ZM46.3078 99.6081L41.8505 104.063C39.4946 106.415 41.1769 110.465 44.5012 110.465C44.9941 110.467 45.4825 110.37 45.9379 110.182C46.3934 109.993 46.807 109.716 47.1547 109.367L51.5976 104.921C52.2312 104.204 52.5676 103.273 52.5382 102.317C52.5087 101.36 52.1158 100.452 51.4393 99.7751C50.7629 99.0986 49.8539 98.7056 48.8977 98.6762C47.9415 98.6468 47.0101 98.9831 46.2933 99.6167L46.3078 99.6081Z" fill="#5E6175"/>
<path d="M52.7423 117.01C52.0218 117.013 51.3078 116.873 50.6421 116.597C49.9765 116.321 49.3727 115.915 48.866 115.402C47.8387 114.373 47.2617 112.978 47.2617 111.523C47.2617 110.069 47.8387 108.674 48.866 107.644L53.3176 103.192C53.8168 102.64 54.4232 102.194 55.1 101.883C55.7768 101.572 56.5098 101.402 57.2544 101.383C57.9991 101.364 58.7397 101.497 59.4314 101.773C60.1231 102.05 60.7514 102.464 61.278 102.991C61.8046 103.517 62.2185 104.146 62.4946 104.838C62.7707 105.529 62.9032 106.27 62.8841 107.015C62.8649 107.759 62.6945 108.492 62.3831 109.169C62.0718 109.846 61.6261 110.452 61.0731 110.951L56.6216 115.402C56.1132 115.913 55.5086 116.318 54.8428 116.594C54.177 116.87 53.463 117.011 52.7423 117.01ZM57.1968 103.323C56.7039 103.322 56.2158 103.418 55.7604 103.607C55.305 103.795 54.8913 104.072 54.5432 104.421L50.0916 108.873C49.4526 109.588 49.1116 110.522 49.1387 111.481C49.1657 112.44 49.5587 113.353 50.2371 114.031C50.9155 114.71 51.8278 115.104 52.787 115.131C53.7463 115.159 54.6797 114.818 55.3959 114.18L59.8475 109.728C60.3694 109.203 60.7244 108.534 60.8678 107.808C61.0111 107.081 60.9365 106.328 60.6533 105.643C60.37 104.959 59.8908 104.373 59.2758 103.961C58.6609 103.548 57.9375 103.326 57.1968 103.323Z" fill="#5E6175"/>
<path d="M60.8216 121.984C60.1017 121.989 59.388 121.85 58.7225 121.575C58.0569 121.301 57.4527 120.897 56.9452 120.386C55.9188 119.356 55.3424 117.962 55.3424 116.508C55.3424 115.054 55.9188 113.66 56.9452 112.63L61.894 107.682C62.94 106.744 64.3055 106.243 65.7097 106.281C67.1139 106.32 68.4501 106.894 69.4434 107.888C70.4366 108.881 71.0116 110.217 71.0499 111.621C71.0883 113.026 70.5871 114.391 69.6495 115.437L64.7008 120.386C64.1922 120.896 63.5874 121.3 62.9215 121.574C62.2556 121.849 61.5418 121.988 60.8216 121.984ZM65.7703 107.82C65.2774 107.819 64.789 107.915 64.3335 108.104C63.8781 108.292 63.4645 108.569 63.1167 108.919L58.168 113.868C57.5344 114.584 57.198 115.516 57.2275 116.472C57.2569 117.428 57.6499 118.337 58.3263 119.013C59.0028 119.69 59.9117 120.083 60.8679 120.112C61.8241 120.142 62.7555 119.805 63.4723 119.172L68.421 114.223C70.8029 111.83 69.0685 107.82 65.7703 107.82Z" fill="#5E6175"/>
<path d="M69.5802 126.294C68.8597 126.298 68.1457 126.158 67.48 125.882C66.8144 125.606 66.2106 125.199 65.7039 124.687C64.6775 123.658 64.1011 122.263 64.1011 120.809C64.1011 119.356 64.6775 117.961 65.7039 116.932L69.9791 112.653C70.4792 112.104 71.0856 111.661 71.7616 111.353C72.4376 111.044 73.1692 110.876 73.9121 110.858C74.655 110.841 75.3938 110.974 76.0836 111.25C76.7735 111.527 77.4001 111.94 77.9256 112.465C78.451 112.991 78.8644 113.618 79.1406 114.307C79.4169 114.997 79.5502 115.736 79.5327 116.479C79.5151 117.222 79.3469 117.953 79.0384 118.629C78.7298 119.305 78.2873 119.912 77.7376 120.412L73.4595 124.687C72.9516 125.199 72.3471 125.604 71.6812 125.88C71.0152 126.156 70.3011 126.297 69.5802 126.294ZM73.8584 112.781C73.3654 112.779 72.8771 112.876 72.4217 113.064C71.9662 113.253 71.5526 113.53 71.2048 113.879L66.9295 118.157C66.296 118.874 65.9596 119.805 65.989 120.762C66.0184 121.718 66.4114 122.627 67.0879 123.303C67.7643 123.98 68.6733 124.373 69.6295 124.402C70.5857 124.431 71.5171 124.095 72.2338 123.461L76.512 119.183C78.8909 116.804 77.1595 112.781 73.8584 112.781Z" fill="#5E6175"/>
<path d="M78.2897 126.294C77.5693 126.297 76.8556 126.156 76.1902 125.88C75.5247 125.604 74.9207 125.199 74.4134 124.687L72.7108 122.985L76.5091 119.183C76.8592 118.837 77.1369 118.424 77.3259 117.969C77.515 117.514 77.6117 117.025 77.6104 116.533C77.6104 113.18 73.5491 111.541 71.2077 113.879L69.5485 115.541L68.0453 114.712L68.6928 113.908C69.2586 113.156 69.5217 112.219 69.4301 111.283C69.3386 110.346 68.899 109.478 68.1983 108.85C67.4976 108.222 66.5868 107.88 65.6459 107.891C64.705 107.902 63.8025 108.266 63.1168 108.91L61.0182 111L59.4833 110.22L60.1395 109.387C60.7053 108.633 60.967 107.693 60.8725 106.755C60.778 105.817 60.3344 104.949 59.6295 104.323C58.9247 103.696 58.0102 103.358 57.0675 103.375C56.1247 103.391 55.2227 103.762 54.5403 104.412L52.9158 106.037L51.6728 104.829C52.1721 104.295 52.5049 103.627 52.6304 102.907C52.7559 102.187 52.6686 101.446 52.3793 100.774C52.09 100.103 51.6112 99.5307 51.0016 99.1274C50.3919 98.7242 49.6779 98.5074 48.947 98.5038H29.6405V65.8687H66.8053C68.3648 65.8629 69.9099 66.1666 71.3513 66.762C72.7927 67.3574 74.1017 68.2328 75.2025 69.3374L75.8153 69.9502L64.4321 81.3422L65.0796 81.9492C66.5322 83.3108 68.4585 84.0523 70.4492 84.0162C72.4399 83.98 74.338 83.169 75.7402 81.7555L80.9057 76.6016L102.111 97.813C102.689 98.2292 102.591 98.1801 107.248 102.837C108.186 103.782 108.748 105.035 108.831 106.363C108.914 107.692 108.512 109.005 107.699 110.059C106.886 111.113 105.718 111.836 104.413 112.094C103.107 112.351 101.752 112.126 100.6 111.46C100.611 112.414 100.374 113.354 99.912 114.189C99.4496 115.024 98.7777 115.724 97.9626 116.22C97.1474 116.716 96.2171 116.991 95.2633 117.018C94.3095 117.045 93.3651 116.823 92.5232 116.374C92.6417 120.984 87.3923 123.626 83.7646 120.924C83.7329 122.356 83.1427 123.719 82.1198 124.723C81.097 125.726 79.7225 126.29 78.2897 126.294ZM75.1563 122.985L75.6332 123.461C75.9805 123.811 76.3936 124.088 76.8486 124.276C77.3036 124.465 77.7914 124.561 78.2839 124.56C81.64 124.56 83.276 120.513 80.9346 118.154L82.1632 116.929C82.1834 116.958 81.9232 116.692 84.3918 119.163C85.1071 119.808 86.0425 120.153 87.0051 120.128C87.9676 120.103 88.8838 119.71 89.5647 119.029C90.2455 118.348 90.6391 117.432 90.6641 116.469C90.6891 115.507 90.3436 114.571 89.699 113.856L90.9246 112.63L92.4711 114.177C92.8102 114.563 93.225 114.876 93.69 115.096C94.1549 115.316 94.66 115.438 95.174 115.455C95.688 115.472 96.2 115.383 96.6783 115.194C97.1565 115.005 97.5909 114.72 97.9545 114.356C98.318 113.992 98.6031 113.557 98.7919 113.079C98.9807 112.601 99.0694 112.089 99.0523 111.575C99.0353 111.061 98.9129 110.556 98.6927 110.091C98.4726 109.626 98.1594 109.211 97.7725 108.873L98.9982 107.647C99.1485 107.786 98.42 107.069 100.709 109.358C101.425 109.993 102.356 110.331 103.312 110.303C104.268 110.275 105.178 109.884 105.856 109.208C106.533 108.533 106.928 107.625 106.959 106.668C106.99 105.712 106.655 104.78 106.022 104.062C100.192 98.235 101.805 99.8162 100.941 99.0906L80.9057 79.0557L76.9658 82.9927C75.2476 84.7256 72.9211 85.7199 70.4811 85.7642C68.0412 85.8085 65.6802 84.8992 63.9002 83.2298L61.9346 81.4L73.3381 69.9965C71.5128 68.4512 69.1968 67.6068 66.8053 67.6146H31.3749V96.7781H48.947C49.6729 96.7781 50.3916 96.9219 51.0615 97.2014C51.7315 97.4808 52.3394 97.8903 52.8501 98.4061C53.3608 98.9219 53.7642 99.5339 54.037 100.207C54.3097 100.879 54.4464 101.599 54.4392 102.325C55.27 101.846 56.2119 101.592 57.1713 101.589C58.1306 101.587 59.0739 101.836 59.9072 102.311C60.7405 102.786 61.4347 103.472 61.9207 104.299C62.4068 105.126 62.6677 106.066 62.6775 107.025C66.3457 104.516 71.3696 107.242 71.2539 111.702C72.4128 111.091 73.7521 110.914 75.03 111.203C76.3079 111.493 77.4403 112.229 78.2227 113.28C79.005 114.332 79.3859 115.628 79.2964 116.935C79.2069 118.242 78.653 119.474 77.7347 120.409L75.1563 122.985Z" fill="#5E6175"/>
<path d="M38.8586 62.397H22.1566V101.076H38.8586V62.397Z" fill="#E1830E"/>
<path d="M128.529 62.397H111.827V101.076H128.529V62.397Z" fill="#E1830E"/>
<path d="M30.7504 75.5176C32.3149 75.5176 33.5832 74.2493 33.5832 72.6848C33.5832 71.1202 32.3149 69.852 30.7504 69.852C29.1859 69.852 27.9176 71.1202 27.9176 72.6848C27.9176 74.2493 29.1859 75.5176 30.7504 75.5176Z" fill="#F5F5F5"/>
<path d="M120.178 95.5323C121.742 95.5323 123.011 94.264 123.011 92.6995C123.011 91.1349 121.742 89.8666 120.178 89.8666C118.613 89.8666 117.345 91.1349 117.345 92.6995C117.345 94.264 118.613 95.5323 120.178 95.5323Z" fill="#F5F5F5"/>
<path d="M74.0665 58.4773C83.982 58.4773 92.0201 50.4392 92.0201 40.5237C92.0201 30.6081 83.982 22.57 74.0665 22.57C64.1509 22.57 56.1128 30.6081 56.1128 40.5237C56.1128 50.4392 64.1509 58.4773 74.0665 58.4773Z" fill="#F5F5F5"/>
<path d="M74.0664 59.3445C70.3439 59.3451 66.7048 58.2418 63.6093 56.174C60.5139 54.1063 58.1011 51.1671 56.6762 47.7281C55.2512 44.2891 54.8781 40.5048 55.604 36.8537C56.3298 33.2026 58.1221 29.8488 60.7542 27.2163C63.3862 24.5839 66.7397 22.7911 70.3907 22.0647C74.0417 21.3382 77.8261 21.7108 81.2653 23.1352C84.7045 24.5596 87.6441 26.9719 89.7123 30.0671C91.7805 33.1622 92.8844 36.8011 92.8844 40.5237C92.8783 45.5129 90.8938 50.2961 87.3662 53.8243C83.8385 57.3524 79.0557 59.3376 74.0664 59.3445ZM74.0664 23.4401C70.6868 23.4395 67.3829 24.4412 64.5726 26.3185C61.7623 28.1957 59.5718 30.8642 58.2782 33.9865C56.9846 37.1088 56.646 40.5445 57.3052 43.8593C57.9644 47.174 59.5918 50.2188 61.9816 52.6085C64.3713 54.9983 67.4161 56.6257 70.7308 57.2849C74.0456 57.9441 77.4813 57.6055 80.6036 56.3119C83.7259 55.0183 86.3944 52.8278 88.2716 50.0175C90.1489 47.2072 91.1506 43.9033 91.15 40.5237C91.1447 35.9945 89.3431 31.6523 86.1404 28.4497C82.9378 25.247 78.5956 23.4454 74.0664 23.4401Z" fill="#5E6175"/>
<path d="M71.2886 50.4414L63.5504 42.7032L66.2127 40.038L71.2886 45.114L82.7124 33.6902L85.3775 36.3525L71.2886 50.4414Z" fill="#E1830E"/>
<path d="M103.866 38.6332H98.4142V40.3676H103.866V38.6332Z" fill="#5E6175"/>
<path d="M100.497 29.8353L96.642 33.6903L97.8684 34.9167L101.723 31.0617L100.497 29.8353Z" fill="#5E6175"/>
<path d="M98.2056 43.9566L96.9792 45.183L100.834 49.0379L102.061 47.8115L98.2056 43.9566Z" fill="#5E6175"/>
<path d="M48.9296 38.506H43.4779V40.2404H48.9296V38.506Z" fill="#5E6175"/>
<path d="M49.4733 43.953L45.619 47.8086L46.8456 49.0348L50.6999 45.1792L49.4733 43.953Z" fill="#5E6175"/>
<path d="M46.5081 29.835L45.2817 31.0614L49.1367 34.9163L50.3631 33.6899L46.5081 29.835Z" fill="#5E6175"/>
<path d="M125.67 108.633V106.898C126.806 106.898 127.069 106.898 127.37 106.898L127.436 108.633C127.107 108.638 126.991 108.633 125.67 108.633ZM122.779 108.633H121.045V106.898H122.779V108.633ZM118.154 108.633H116.42V106.898H118.154V108.633ZM113.529 108.633H111.827V106.898H113.529V108.633ZM130.506 108.078L129.974 106.43C130.478 106.265 130.968 106.06 131.44 105.817L132.237 107.358C131.681 107.645 131.102 107.886 130.506 108.078ZM134.784 105.566L133.605 104.297C133.994 103.934 134.353 103.542 134.68 103.123L136.05 104.184C135.667 104.679 135.244 105.141 134.784 105.566ZM137.611 101.487L136.004 100.831C136.207 100.339 136.367 99.8318 136.484 99.3132L138.172 99.6977C138.034 100.308 137.847 100.907 137.611 101.487ZM138.461 96.6365H136.727V94.9021H138.461V96.6365ZM138.461 92.0115H136.727V90.2771H138.461V92.0115ZM138.461 87.3865H136.727V85.6521H138.461V87.3865ZM138.461 82.7615H136.727V81.0271H138.461V82.7615ZM138.461 78.1365H136.727V76.4021H138.461V78.1365ZM138.461 73.5115H136.727V71.7771H138.461V73.5115ZM138.461 68.8865H136.727V67.1521H138.461V68.8865ZM136.605 64.406C136.522 63.8812 136.396 63.364 136.229 62.8595L137.874 62.3132C138.072 62.9071 138.221 63.5161 138.319 64.1343L136.605 64.406ZM135.059 60.4892C134.762 60.0485 134.429 59.6328 134.064 59.2463L135.325 58.0553C135.754 58.5099 136.146 58.9991 136.495 59.518L135.059 60.4892ZM132.003 57.5986C131.549 57.323 131.072 57.0861 130.578 56.8904L131.223 55.2774C131.803 55.5097 132.364 55.7891 132.899 56.1128L132.003 57.5986ZM128.011 56.2545C127.467 56.204 126.919 56.1856 126.372 56.1995V54.4652C126.98 54.4509 127.588 54.4721 128.193 54.5287L128.011 56.2545ZM123.482 56.1995H121.747V54.4652H123.482V56.1995ZM118.857 56.1995H117.122V54.4652H118.857V56.1995ZM114.232 56.1995H112.497V54.4652H114.232V56.1995ZM109.607 56.1995H107.872V54.4652H109.607V56.1995ZM104.982 56.1995H103.247V54.4652H104.982V56.1995ZM100.357 56.1995H98.6223V54.4652H100.357V56.1995ZM95.7317 56.1995H93.9973V54.4652H95.7317V56.1995Z" fill="#A9AFC4"/>
<path d="M22.8532 113.645C22.5014 113.221 22.2597 112.716 22.1495 112.176C22.0393 111.636 22.0639 111.078 22.2213 110.549C22.3787 110.021 22.664 109.54 23.0518 109.149C23.4396 108.757 23.9181 108.467 24.4447 108.305C24.9713 108.142 25.5299 108.112 26.0708 108.217C26.6118 108.323 27.1185 108.559 27.5461 108.907C27.9736 109.255 28.3087 109.703 28.5218 110.211C28.7348 110.719 28.8192 111.272 28.7674 111.821C28.7039 112.48 28.447 113.105 28.0289 113.618C27.6108 114.131 27.0503 114.508 26.418 114.703C25.7857 114.898 25.1098 114.902 24.4755 114.714C23.8411 114.525 23.2767 114.153 22.8532 113.645ZM25.4288 109.887C25.1159 109.888 24.81 109.98 24.5482 110.151C24.2865 110.322 24.08 110.566 23.9541 110.852C23.8281 111.139 23.788 111.456 23.8386 111.764C23.8892 112.073 24.0283 112.36 24.2391 112.592C24.4499 112.823 24.7233 112.988 25.0261 113.067C25.3288 113.146 25.648 113.135 25.9448 113.036C26.2415 112.937 26.5032 112.754 26.6979 112.509C26.8926 112.264 27.0121 111.968 27.0417 111.656C27.0622 111.433 27.0359 111.208 26.9647 110.995C26.8935 110.782 26.7788 110.586 26.6279 110.42C26.4771 110.254 26.2934 110.121 26.0884 110.03C25.8835 109.939 25.6618 109.891 25.4374 109.89L25.4288 109.887Z" fill="#5E6175"/>
<path d="M10.1403 103.317C9.86573 102.985 9.67721 102.591 9.59143 102.169C9.50565 101.747 9.52525 101.31 9.6485 100.897C9.77175 100.485 9.99485 100.109 10.298 99.8031C10.6012 99.4973 10.9751 99.271 11.3867 99.1441C11.7982 99.0173 12.2347 98.994 12.6574 99.0761C13.0801 99.1583 13.4761 99.3434 13.8102 99.6151C14.1443 99.8868 14.4062 100.237 14.5728 100.634C14.7394 101.031 14.8055 101.463 14.7653 101.892C14.7156 102.407 14.5146 102.896 14.1875 103.297C13.8605 103.698 13.4222 103.993 12.9277 104.145C12.4331 104.298 11.9046 104.3 11.4086 104.153C10.9126 104.005 10.4713 103.714 10.1403 103.317ZM12.1637 100.761C11.9917 100.759 11.8226 100.806 11.6772 100.898C11.5318 100.99 11.4164 101.123 11.3451 101.279C11.2738 101.436 11.2497 101.61 11.2758 101.78C11.3019 101.95 11.3771 102.109 11.4921 102.237C11.607 102.365 11.7569 102.457 11.9232 102.501C12.0895 102.545 12.2651 102.54 12.4284 102.485C12.5917 102.431 12.7357 102.331 12.8427 102.196C12.9498 102.061 13.0152 101.898 13.0309 101.727C13.0421 101.605 13.0279 101.482 12.9893 101.366C12.9506 101.25 12.8882 101.143 12.8062 101.053C12.7242 100.962 12.6242 100.889 12.5126 100.839C12.401 100.789 12.2803 100.762 12.158 100.761H12.1637Z" fill="#5E6175"/>
<path d="M16.7916 59.3445C16.2103 59.344 15.6422 59.1711 15.1592 58.8477C14.6761 58.5243 14.2997 58.065 14.0777 57.5278C13.8556 56.9905 13.7978 56.3995 13.9116 55.8295C14.0253 55.2594 14.3055 54.7359 14.7168 54.325C15.128 53.9142 15.6519 53.6345 16.222 53.5213C16.7922 53.4081 17.3832 53.4665 17.9202 53.6891C18.4572 53.9116 18.9161 54.2884 19.239 54.7718C19.5619 55.2552 19.7343 55.8235 19.7343 56.4048C19.7335 57.1847 19.4231 57.9324 18.8714 58.4837C18.3196 59.0349 17.5716 59.3445 16.7916 59.3445ZM16.7916 55.1994C16.5533 55.2 16.3206 55.2711 16.1227 55.4039C15.9249 55.5367 15.7708 55.7252 15.68 55.9455C15.5893 56.1658 15.5658 56.4081 15.6126 56.6417C15.6595 56.8753 15.7745 57.0898 15.9432 57.2581C16.1119 57.4264 16.3267 57.5409 16.5604 57.5872C16.7941 57.6335 17.0364 57.6094 17.2565 57.5181C17.4765 57.4268 17.6646 57.2723 17.7969 57.0741C17.9293 56.876 17.9999 56.6431 17.9999 56.4048C17.9968 56.0866 17.8681 55.7825 17.6418 55.5589C17.4154 55.3352 17.1098 55.2102 16.7916 55.2109V55.1994Z" fill="#5E6175"/>
<defs>
<linearGradient id="paint0_linear_1_777" x1="56.8846" y1="84.7618" x2="105.213" y2="84.7618" gradientUnits="userSpaceOnUse">
<stop stop-color="#CACFDD"/>
<stop offset="1" stop-color="#EEF0F1"/>
</linearGradient>
<linearGradient id="paint1_linear_1_777" x1="56.8846" y1="84.7618" x2="105.213" y2="84.7618" gradientUnits="userSpaceOnUse">
<stop stop-color="#CACFDD"/>
<stop offset="1" stop-color="#EEF0F1"/>
</linearGradient>
</defs>
</svg>
