<svg width="148" height="148" viewBox="0 0 148 148" fill="none" xmlns="http://www.w3.org/2000/svg">
<path d="M108.046 22.5555H32.5081V125.791H108.046V22.5555Z" fill="#F5F5F5"/>
<path d="M94.4281 109.263H46.2327V114.252H94.4281V109.263Z" fill="#A9AFC4"/>
<path style="mix-blend-mode:multiply" d="M108.046 94.5379V125.791H85.2967C80.3075 110.451 91.8151 94.5379 108.046 94.5379Z" fill="url(#paint0_linear_1131_1130)"/>
<path d="M108.913 126.659H31.6409V21.6797H108.913V126.659ZM33.3752 124.924H107.179V23.4141H33.3752V124.924Z" fill="#5E6175"/>
<path d="M57.3675 36.5057H44.5417V49.3314H57.3675V36.5057Z" fill="#DEE1EC"/>
<path d="M57.3675 61.3477H44.5417V74.1734H57.3675V61.3477Z" fill="#DEE1EC"/>
<path d="M57.3675 86.1898H44.5417V99.0155H57.3675V86.1898Z" fill="#DEE1EC"/>
<path d="M57.3675 36.5057H44.5417V49.3314H57.3675V36.5057Z" fill="#DEE1EC"/>
<path d="M57.3675 61.3477H44.5417V74.1734H57.3675V61.3477Z" fill="#DEE1EC"/>
<path d="M57.3675 86.1898H44.5417V99.0155H57.3675V86.1898Z" fill="#DEE1EC"/>
<path d="M78.0671 36.5057H65.9062V39.3385H78.0671V36.5057Z" fill="#DEE1EC"/>
<path d="M94.4282 36.5057H82.2673V39.3385H94.4282V36.5057Z" fill="#DEE1EC"/>
<path d="M86.2476 42.8419H65.9062V45.6748H86.2476V42.8419Z" fill="#DEE1EC"/>
<path d="M73.8641 61.3477H65.9062V64.1805H73.8641V61.3477Z" fill="#DEE1EC"/>
<path d="M94.4281 61.3477H78.0671V64.1805H94.4281V61.3477Z" fill="#DEE1EC"/>
<path d="M86.2476 67.684H65.9062V70.5168H86.2476V67.684Z" fill="#DEE1EC"/>
<path d="M83.5766 86.1898H65.9062V89.0226H83.5766V86.1898Z" fill="#DEE1EC"/>
<path d="M94.4282 86.1898H87.7769V89.0226H94.4282V86.1898Z" fill="#DEE1EC"/>
<path d="M86.2476 92.526H65.9062V95.3588H86.2476V92.526Z" fill="#DEE1EC"/>
<path d="M108.046 137.594C118.621 137.594 127.193 129.021 127.193 118.446C127.193 107.871 118.621 99.2987 108.046 99.2987C97.4711 99.2987 88.8984 107.871 88.8984 118.446C88.8984 129.021 97.4711 137.594 108.046 137.594Z" fill="#F5F5F5"/>
<path d="M108.046 138.461C104.087 138.462 100.217 137.289 96.9247 135.091C93.6326 132.892 91.0663 129.767 89.5506 126.11C88.0348 122.452 87.6377 118.428 88.4093 114.545C89.1809 110.662 91.0866 107.095 93.8855 104.296C96.6844 101.496 100.251 99.5893 104.133 98.8166C108.016 98.0438 112.04 98.4398 115.698 99.9545C119.356 101.469 122.482 104.035 124.681 107.326C126.881 110.618 128.055 114.487 128.055 118.446C128.049 123.752 125.939 128.838 122.188 132.59C118.437 136.342 113.351 138.453 108.046 138.461ZM108.046 100.166C104.43 100.165 100.895 101.236 97.8883 103.244C94.8814 105.252 92.5374 108.106 91.1529 111.447C89.7685 114.787 89.4056 118.463 90.1103 122.009C90.815 125.555 92.5556 128.813 95.1119 131.37C97.6682 133.927 100.925 135.669 104.472 136.375C108.018 137.081 111.694 136.719 115.034 135.336C118.375 133.952 121.23 131.609 123.239 128.603C125.248 125.597 126.32 122.062 126.32 118.446C126.315 113.601 124.388 108.955 120.962 105.528C117.537 102.101 112.891 100.173 108.046 100.166Z" fill="#5E6175"/>
<path d="M115.651 110.864C115.21 111.43 114.58 111.817 113.877 111.954C113.173 112.091 112.444 111.97 111.823 111.612C111.202 111.254 110.731 110.684 110.498 110.006C110.264 109.328 110.283 108.589 110.552 107.924C108.906 107.52 107.186 107.52 105.54 107.924C105.807 108.589 105.827 109.327 105.593 110.004C105.36 110.681 104.89 111.251 104.27 111.609C103.65 111.967 102.921 112.089 102.218 111.953C101.515 111.817 100.885 111.431 100.443 110.867C99.2715 112.089 98.4126 113.577 97.9402 115.203C98.6497 115.303 99.2993 115.655 99.7693 116.196C100.239 116.737 100.498 117.429 100.498 118.146C100.498 118.862 100.239 119.554 99.7693 120.095C99.2993 120.636 98.6497 120.989 97.9402 121.088C98.4169 122.713 99.2752 124.199 100.443 125.424C100.885 124.86 101.516 124.474 102.219 124.338C102.922 124.202 103.651 124.323 104.271 124.681C104.892 125.039 105.363 125.609 105.597 126.286C105.831 126.963 105.812 127.702 105.545 128.367C107.191 128.772 108.91 128.772 110.555 128.367C110.285 127.702 110.264 126.962 110.497 126.283C110.73 125.604 111.201 125.033 111.822 124.674C112.444 124.315 113.174 124.194 113.879 124.331C114.583 124.469 115.214 124.858 115.654 125.424C116.825 124.201 117.684 122.714 118.157 121.088C117.449 120.986 116.801 120.633 116.333 120.092C115.864 119.551 115.607 118.86 115.607 118.144C115.607 117.429 115.864 116.737 116.333 116.197C116.801 115.656 117.449 115.302 118.157 115.2C117.679 113.576 116.82 112.089 115.651 110.864ZM109.994 121.522C109.327 121.907 108.56 122.086 107.79 122.036C107.021 121.985 106.284 121.708 105.673 121.239C105.061 120.769 104.603 120.129 104.355 119.399C104.108 118.669 104.082 117.882 104.282 117.137C104.482 116.393 104.898 115.724 105.478 115.216C106.058 114.708 106.776 114.384 107.54 114.284C108.304 114.184 109.081 114.313 109.772 114.655C110.463 114.996 111.037 115.535 111.422 116.203C111.937 117.098 112.076 118.161 111.809 119.158C111.541 120.155 110.888 121.005 109.994 121.522Z" fill="#009FAF"/>
<path d="M51.0224 46.2124L46.2327 41.4255L48.1289 39.5322L51.0224 42.4257L57.8877 35.5605L59.781 37.4538L51.0224 46.2124Z" fill="#009FAF"/>
<path d="M51.0224 71.014L46.2327 66.2271L48.1289 64.3309L51.0224 67.2244L57.8877 60.3591L59.781 62.2554L51.0224 71.014Z" fill="#009FAF"/>
<path d="M51.0224 96.333L46.2327 91.5461L48.1289 89.6527L51.0224 92.5462L57.8877 85.681L59.781 87.5744L51.0224 96.333Z" fill="#009FAF"/>
<path d="M116.634 91.3438C116.081 91.3438 115.54 91.1796 115.08 90.8722C114.619 90.5647 114.261 90.1277 114.049 89.6164C113.837 89.1051 113.782 88.5425 113.89 87.9997C113.998 87.457 114.264 86.9584 114.655 86.5671C115.047 86.1757 115.545 85.9092 116.088 85.8013C116.631 85.6933 117.194 85.7487 117.705 85.9605C118.216 86.1723 118.653 86.5309 118.961 86.9911C119.268 87.4512 119.432 87.9922 119.432 88.5456C119.431 89.2875 119.136 89.9988 118.612 90.5234C118.087 91.0479 117.376 91.343 116.634 91.3438ZM116.634 87.4848C116.424 87.4848 116.218 87.5472 116.043 87.6642C115.868 87.7813 115.731 87.9476 115.651 88.1421C115.571 88.3367 115.55 88.5507 115.591 88.7571C115.632 88.9635 115.734 89.1531 115.883 89.3017C116.032 89.4504 116.222 89.5515 116.428 89.5922C116.635 89.6329 116.849 89.6114 117.043 89.5305C117.237 89.4495 117.403 89.3127 117.52 89.1374C117.636 88.9621 117.698 88.7561 117.698 88.5456C117.699 88.4051 117.673 88.2657 117.62 88.1354C117.567 88.0052 117.489 87.8867 117.39 87.787C117.291 87.6872 117.173 87.6081 117.044 87.5542C116.914 87.5004 116.775 87.4728 116.634 87.4732V87.4848Z" fill="#5E6175"/>
<path d="M128.194 80.3392C127.431 80.3392 126.686 80.1132 126.053 79.6898C125.419 79.2664 124.925 78.6646 124.634 77.9605C124.342 77.2564 124.266 76.4817 124.414 75.7342C124.563 74.9868 124.93 74.3002 125.469 73.7613C126.008 73.2225 126.694 72.8555 127.442 72.7068C128.189 72.5581 128.964 72.6344 129.668 72.9261C130.372 73.2177 130.974 73.7116 131.397 74.3452C131.821 74.9789 132.047 75.7239 132.047 76.486C132.046 77.5077 131.64 78.4873 130.917 79.2097C130.195 79.9322 129.215 80.3384 128.194 80.3392ZM128.194 74.3671C127.774 74.3671 127.365 74.4914 127.016 74.7242C126.668 74.957 126.396 75.2879 126.236 75.6751C126.076 76.0623 126.034 76.4883 126.115 76.8993C126.197 77.3103 126.399 77.6879 126.695 77.9842C126.992 78.2805 127.369 78.4823 127.78 78.5641C128.191 78.6458 128.617 78.6039 129.004 78.4435C129.392 78.2831 129.722 78.0116 129.955 77.6631C130.188 77.3147 130.312 76.905 130.312 76.486C130.312 75.924 130.089 75.3851 129.692 74.9877C129.294 74.5904 128.755 74.3671 128.194 74.3671Z" fill="#5E6175"/>
<path d="M24.6856 14.6341L23.4592 15.8605L27.5145 19.9158L28.7409 18.6894L24.6856 14.6341Z" fill="#5E6175"/>
<path d="M25.1225 23.1626H19.3875V24.8969H25.1225V23.1626Z" fill="#5E6175"/>
<path d="M33.3752 10.4062H31.6409V16.1413H33.3752V10.4062Z" fill="#5E6175"/>
<path d="M89.4736 134.189H87.7393V132.454H89.4736V134.189ZM84.8486 134.189H83.1143V132.454H84.8486V134.189ZM80.2236 134.189H78.4893V132.454H80.2236V134.189ZM75.5986 134.189H73.8643V132.454H75.5986V134.189ZM70.9736 134.189H69.2393V132.454H70.9736V134.189ZM66.3486 134.189H64.6143V132.454H66.3486V134.189ZM61.7236 134.189H59.9893V132.454H61.7236V134.189ZM57.0986 134.189H55.3643V132.454H57.0986V134.189ZM52.4736 134.189H50.7393V132.454H52.4736V134.189ZM47.8486 134.189H46.1143V132.454H47.8486V134.189ZM43.2236 134.189H41.4893V132.454H43.2236V134.189ZM38.5986 134.189H36.8643V132.454H38.5986V134.189ZM33.8725 134.021C33.2741 133.943 32.6757 133.839 32.0889 133.712L32.4618 132.018C32.9966 132.136 33.5458 132.229 34.0921 132.307L33.8725 134.021ZM29.1954 132.85C28.6346 132.636 28.0768 132.394 27.5362 132.133L28.2936 130.572C28.7878 130.812 29.2995 131.035 29.814 131.229L29.1954 132.85ZM24.9289 130.622C24.4317 130.28 23.9461 129.916 23.4836 129.535L24.5849 128.193C25.0098 128.543 25.4521 128.879 25.9117 129.188L24.9289 130.622ZM21.2982 127.459C20.8936 127.014 20.5033 126.546 20.142 126.069L21.5208 125.02C21.8532 125.456 22.2117 125.887 22.5817 126.291L21.2982 127.459ZM18.5001 123.542C18.2111 123.016 17.922 122.47 17.6965 121.921L19.2835 121.221C19.5032 121.721 19.7518 122.221 20.0177 122.704L18.5001 123.542ZM16.6848 119.076C16.5258 118.498 16.3957 117.903 16.2859 117.31L17.9914 117.004C18.0896 117.544 18.2139 118.088 18.3585 118.617L16.6848 119.076ZM15.9679 114.316C15.9477 113.737 15.9679 113.13 15.9853 112.506L17.7196 112.599C17.6907 113.142 17.685 113.703 17.7023 114.258L15.9679 114.316ZM18.0665 109.861L16.3668 109.517C16.4882 108.939 16.6357 108.335 16.8062 107.76L18.4683 108.254C18.3093 108.78 18.1735 109.323 18.0636 109.861H18.0665ZM19.4482 105.675L17.8757 104.93C18.1301 104.386 18.4105 103.846 18.7111 103.325L20.2143 104.193C19.9454 104.684 19.6795 105.178 19.4453 105.675H19.4482ZM21.7607 101.918L20.4021 100.839C20.775 100.368 21.1739 99.9087 21.5902 99.4722L22.8476 100.666C22.4776 101.074 22.1105 101.496 21.7694 101.926L21.7607 101.918ZM24.8884 98.8074L23.8189 97.443C24.2929 97.073 24.7872 96.7174 25.2902 96.3908L26.2354 97.8361C25.7845 98.1512 25.3307 98.4749 24.8971 98.816L24.8884 98.8074ZM28.6462 96.4949L27.9207 94.9195C28.467 94.668 29.0336 94.4367 29.5972 94.2373L30.1753 95.8705C29.6782 96.0786 29.1636 96.2867 28.6636 96.518L28.6462 96.4949Z" fill="#A9AFC4"/>
<path d="M35.8236 94.8125L35.76 93.0781C36.2109 93.0781 36.3873 93.0781 37.5262 93.0781V94.8125C36.6619 94.8125 36.2948 94.8125 35.8236 94.8125ZM42.1512 94.8125H40.4168V93.0781H42.1512V94.8125Z" fill="#A9AFC4"/>
<defs>
<linearGradient id="paint0_linear_1131_1130" x1="84.1202" y1="110.165" x2="108.046" y2="110.165" gradientUnits="userSpaceOnUse">
<stop stop-color="#CACFDD"/>
<stop offset="1" stop-color="#EEF0F1"/>
</linearGradient>
</defs>
</svg>
