<svg width="40" height="40" viewBox="0 0 40 40" fill="none" xmlns="http://www.w3.org/2000/svg">
<path d="M0 20C0 8.95431 8.95431 0 20 0C31.0457 0 40 8.95431 40 20C40 31.0457 31.0457 40 20 40C8.95431 40 0 31.0457 0 20Z" fill="#F2F9FF"/>
<path d="M11.5176 16.2478C13.9169 14.304 16.9122 13.2454 20.0001 13.25C23.2138 13.25 26.1651 14.3728 28.4826 16.2478L27.0688 17.9975C25.0693 16.3779 22.5732 15.496 20.0001 15.5C17.3226 15.5 14.8626 16.436 12.9313 17.9975L11.5176 16.2478ZM13.8733 19.1653C15.6063 17.7613 17.7698 16.9967 20.0001 17C22.3206 17 24.4521 17.8108 26.1268 19.1645L24.7131 20.915C23.3799 19.8352 21.7157 19.2472 20.0001 19.25C18.2151 19.25 16.5756 19.874 15.2871 20.915L13.8733 19.1645V19.1653ZM16.2298 22.0828C17.2962 21.2187 18.6276 20.7481 20.0001 20.75C21.4281 20.75 22.7398 21.2488 23.7703 22.082L22.3566 23.8325C21.69 23.2926 20.8579 22.9987 20.0001 23C19.1423 22.9987 18.3102 23.2926 17.6436 23.8325L16.2298 22.082V22.0828ZM18.5863 25.0003C18.9861 24.6761 19.4854 24.4994 20.0001 24.5C20.5356 24.5 21.0276 24.6875 21.4138 24.9995L20.0001 26.75L18.5863 24.9995V25.0003Z" fill="#1253A5"/>
</svg>
