<svg width="43" height="27" viewBox="0 0 43 27" fill="none" xmlns="http://www.w3.org/2000/svg">
<path d="M0.0128708 0V5.22804V10.421V15.6139H5.22759V10.421V5.22804V0H0.0128708Z" fill="url(#paint0_linear_605_1308)"/>
<path d="M39.9231 8.20101C37.8872 6.16593 35.2192 5.14606 32.5488 5.14606C29.8785 5.14606 27.2129 6.16593 25.1745 8.20101L21.4874 11.8899L17.8002 8.20101C13.7283 4.12852 7.12593 4.12852 3.05397 8.20101C-1.01799 12.2782 -1.01799 18.8816 3.05397 22.9541C7.12593 27.0266 13.7283 27.0266 17.8002 22.9541L20.5778 20.1752L17.8002 15.5764L21.4874 19.2653L25.1745 22.9518C29.2488 27.0243 35.8489 27.0243 39.9208 22.9518C43.9928 18.8793 43.9928 12.2735 39.9208 8.19867L39.9231 8.20101ZM14.1178 19.2676C13.1336 20.2524 11.8229 20.7951 10.4306 20.7951C9.0383 20.7951 7.72763 20.2524 6.74345 19.2676C5.75928 18.2805 5.21822 16.9705 5.21822 15.5787C5.21822 14.1869 5.75928 12.877 6.74345 11.8899C7.72763 10.9051 9.03597 10.3624 10.4306 10.3624C11.8252 10.3624 13.1336 10.9051 14.1178 11.8899L17.8049 15.5787L14.1178 19.2676ZM36.236 19.2676C35.2518 20.2524 33.9412 20.7951 32.5488 20.7951C31.1565 20.7951 29.8459 20.2524 28.8617 19.2676L25.1745 15.5787L28.8617 11.8899C29.8459 10.9051 31.1565 10.3624 32.5488 10.3624C33.9412 10.3624 35.2518 10.9051 36.236 11.8899C37.2202 12.877 37.7659 14.1846 37.7659 15.5787C37.7659 16.9729 37.2225 18.2828 36.236 19.2676Z" fill="url(#paint1_linear_605_1308)"/>
<path d="M21.4712 11.8688L25.3822 7.92266C25.3822 7.92266 28.1202 5.13438 32.5513 5.13672C34.7645 5.13672 37.6121 5.88759 39.9256 8.2057C39.9256 8.2057 43.7806 11.6817 42.8571 17.2021C42.8571 17.2021 42.3953 21.5366 38.4796 24.1986C37.5281 24.8465 33.3885 27.3144 28.3534 25.1272C28.3534 25.1272 38.3793 22.1986 37.724 15.0946C37.4395 12.0232 34.7365 10.4349 32.7169 10.3741C32.7169 10.3741 30.5363 10.215 28.8664 11.8992L25.1886 15.5858L21.4735 11.8688H21.4712Z" fill="url(#paint2_linear_605_1308)"/>
<path d="M20.5919 20.1916L18.6259 22.1565C18.6259 22.1565 16.0512 25.3401 12.0562 25.9296C8.06118 26.519 5.20661 24.6688 5.20661 24.6688C5.20661 24.6688 1.53345 22.8699 0.297402 18.1612C0.297402 18.1612 -0.00111521 17.132 0.00588128 15.6045C0.00588128 15.6045 4.16646 20.7951 10.405 20.7951C10.405 20.7951 12.406 20.9284 14.0991 19.3074L17.8073 15.5764L20.5942 20.1916H20.5919Z" fill="url(#paint3_linear_605_1308)"/>
<path d="M17.805 15.5764L20.5919 20.1916L21.4898 19.2676L17.805 15.5764Z" fill="#1253A5"/>
<defs>
<linearGradient id="paint0_linear_605_1308" x1="2.62023" y1="26.3601" x2="2.62023" y2="1.09239" gradientUnits="userSpaceOnUse">
<stop offset="0.42" stop-color="#6FC05E"/>
<stop offset="0.53" stop-color="#73C15C"/>
<stop offset="0.67" stop-color="#81C556"/>
<stop offset="0.81" stop-color="#98CC4D"/>
<stop offset="0.95" stop-color="#B8D540"/>
<stop offset="0.97" stop-color="#BBD63F"/>
</linearGradient>
<linearGradient id="paint1_linear_605_1308" x1="44.1654" y1="26.0021" x2="0.571604" y2="6.08016" gradientUnits="userSpaceOnUse">
<stop offset="0.09" stop-color="#1253A5"/>
<stop offset="0.31" stop-color="#348BB7"/>
<stop offset="0.48" stop-color="#4BB0C4"/>
<stop offset="0.57" stop-color="#54BFC9"/>
<stop offset="1" stop-color="#BBD63F"/>
</linearGradient>
<linearGradient id="paint2_linear_605_1308" x1="8.41803" y1="-0.327578" x2="39.7741" y2="20.1055" gradientUnits="userSpaceOnUse">
<stop offset="0.35" stop-color="#1253A5"/>
<stop offset="0.36" stop-color="#1156A5"/>
<stop offset="0.64" stop-color="#048AAC"/>
<stop offset="0.78" stop-color="#009FAF"/>
<stop offset="1" stop-color="#54BFC9"/>
</linearGradient>
<linearGradient id="paint3_linear_605_1308" x1="26.9704" y1="14.1027" x2="5.59585" y2="20.9286" gradientUnits="userSpaceOnUse">
<stop stop-color="#009FAF"/>
<stop offset="0.16" stop-color="#1BA9B7"/>
<stop offset="0.35" stop-color="#34B2BF"/>
<stop offset="0.54" stop-color="#46B9C4"/>
<stop offset="0.75" stop-color="#50BDC7"/>
<stop offset="1" stop-color="#54BFC9"/>
</linearGradient>
</defs>
</svg>
