<svg width="40" height="40" viewBox="0 0 40 40" fill="none" xmlns="http://www.w3.org/2000/svg">
<path d="M0 20C0 8.95431 8.95431 0 20 0C31.0457 0 40 8.95431 40 20C40 31.0457 31.0457 40 20 40C8.95431 40 0 31.0457 0 20Z" fill="#FFF9E7"/>
<path d="M16.9559 24.5C16.7332 23.5452 15.7282 22.7645 15.3157 22.25C14.6093 21.3675 14.1666 20.3033 14.0386 19.1802C13.9106 18.0571 14.1025 16.9207 14.5921 15.9018C15.0817 14.883 15.8492 14.0232 16.8062 13.4214C17.7631 12.8197 18.8706 12.5006 20.001 12.5007C21.1314 12.5009 22.2387 12.8204 23.1955 13.4225C24.1522 14.0245 24.9194 14.8845 25.4087 15.9035C25.8981 16.9225 26.0896 18.059 25.9612 19.1821C25.8328 20.3052 25.3898 21.3692 24.6832 22.2515C24.2707 22.7652 23.2672 23.546 23.0444 24.5H16.9552H16.9559ZM23.0002 26V26.75C23.0002 27.1478 22.8421 27.5294 22.5608 27.8107C22.2795 28.092 21.898 28.25 21.5002 28.25H18.5002C18.1023 28.25 17.7208 28.092 17.4395 27.8107C17.1582 27.5294 17.0002 27.1478 17.0002 26.75V26H23.0002ZM20.7502 18.5037V15.5L17.3752 20.0037H19.2502V23.0037L22.6252 18.5037H20.7502Z" fill="#FEC00F"/>
</svg>
